<svg xmlns="http://www.w3.org/2000/svg" width="56" height="56" fill="none" xmlns:v="https://vecta.io/nano"><g clip-path="url(#A)" fill="#d4d7e5"><path d="M45.136 53.041a1.89 1.89 0 0 1 1.314.531c2.304 2.225 5.665 2.966 8.652 2.038a16.76 16.76 0 0 1-.699-12.843c1.849-5.286 2.313-10.585.208-15.899-1.849-4.668-5.417-8.547-9.932-10.759a24.47 24.47 0 0 1 .418 4.515c0 6.473-2.489 12.56-7.008 17.142s-10.578 7.158-17.059 7.255c-1.204.019-2.403-.052-3.588-.208a20.76 20.76 0 0 0 17.662 10.419 20.47 20.47 0 0 0 9.218-2.006 1.89 1.89 0 0 1 .815-.185zM21.083.004C9.585-.224.028 9.077 0 20.572a20.46 20.46 0 0 0 1.63 8.094c.016.037.03.075.044.113a16.76 16.76 0 0 1-.699 12.843c2.988.927 6.348.186 8.652-2.039a1.89 1.89 0 0 1 2.129-.346 20.45 20.45 0 0 0 9.217 2.006c11.408-.169 20.343-9.227 20.343-20.621C41.316 9.478 32.239.228 21.083.004zM9.639 23.703a2.99 2.99 0 1 1 2.991-2.986 2.99 2.99 0 0 1-2.991 2.986zm11.019 0a2.99 2.99 0 1 1 2.991-2.986 2.99 2.99 0 0 1-2.991 2.986zm11.019 0a2.99 2.99 0 1 1 2.991-2.986 2.99 2.99 0 0 1-2.991 2.986z"/></g><defs><clipPath id="A"><path fill="#fff" d="M0 0h56v56H0z"/></clipPath></defs></svg>