<svg width="116" height="31" viewBox="0 0 116 31" fill="none" xmlns="http://www.w3.org/2000/svg">
<path d="M31.4912 0.404114H36.4016V30.786H31.4912V0.404114Z" fill="#D4D7E5"/>
<path d="M53.4816 21.158C53.4816 25.865 49.6386 26.2929 48.3576 26.2929C45.3687 26.2929 44.9417 23.5115 44.9417 22.0138V10.2462H40.0312V21.7998C40.0312 24.5813 40.8852 27.1488 42.5932 28.6465C44.0877 30.1442 46.0092 30.786 48.3576 30.786C50.0656 30.786 52.2006 30.3581 53.4816 29.0744V30.786H58.392V10.2462H53.4816V21.158Z" fill="#D4D7E5"/>
<path d="M67.9989 2.75763H63.0884V10.2461H59.459V14.9532H63.0884V30.786H67.9989V14.9532H71.6283V10.2461H67.9989V2.75763Z" fill="#D4D7E5"/>
<path d="M87.0002 24.5813C85.9327 25.4371 84.4383 26.079 82.9438 26.079C79.5278 26.079 77.1794 23.5115 77.1794 20.0882C77.1794 16.6649 79.5278 14.3113 82.9438 14.3113C84.4383 14.3113 85.9327 14.7392 87.0002 15.809L87.6407 16.4509L91.0567 13.2415L90.2027 12.5997C88.2812 10.888 85.7192 9.81824 82.9438 9.81824C76.9659 9.81824 72.4824 14.3113 72.4824 20.3021C72.4824 26.2929 76.9659 30.786 82.9438 30.786C85.7192 30.786 88.2812 29.7162 90.2027 28.0046L91.0567 27.3627L87.6407 23.9394L87.0002 24.5813Z" fill="#D4D7E5"/>
<path d="M108.35 11.9578C106.856 10.4601 105.361 9.81823 103.013 9.81823C101.305 9.81823 99.5967 10.2461 98.3157 11.5299V0.404114H93.4053V30.786H98.3157V19.4463C98.3157 14.7392 101.518 14.3113 102.799 14.3113C105.788 14.3113 105.575 17.0928 105.575 18.5905V30.5721H110.485V18.8044C110.485 16.023 109.845 13.4555 108.35 11.9578Z" fill="#D4D7E5"/>
<path d="M82.7294 23.7254C84.616 23.7254 86.1454 22.1927 86.1454 20.3021C86.1454 18.4115 84.616 16.8788 82.7294 16.8788C80.8429 16.8788 79.3135 18.4115 79.3135 20.3021C79.3135 22.1927 80.8429 23.7254 82.7294 23.7254Z" fill="#D4D7E5"/>
<path d="M24.659 23.2975C22.9511 25.0092 20.3891 26.0789 17.6136 26.0789C12.2762 26.0789 8.43326 21.7998 8.43326 16.023C8.43326 10.2461 12.2762 5.96699 17.8271 5.96699C20.3891 5.96699 22.9511 7.03677 24.8725 8.96238L25.513 9.60425L28.7155 6.3949L28.075 5.75303C25.2995 2.97158 21.6701 1.47389 17.8271 1.47389C9.71424 1.25993 3.73633 7.67864 3.73633 16.023C3.73633 24.3673 9.71424 30.786 17.6136 30.786C21.4566 30.786 25.2995 29.2883 27.8615 26.5069L28.502 25.865L25.2995 22.6556L24.659 23.2975Z" fill="#D4D7E5"/>
</svg>
