<svg xmlns="http://www.w3.org/2000/svg" width="143" height="85" fill="none" xmlns:v="https://vecta.io/nano"><path d="M1 81.034h4.443a1 1 0 0 0 .943-.667l2.957-8.371a1 1 0 0 1 1.777-.218l4.406 6.671a1 1 0 0 1 .107.213l1.109 3.082c.323.899 1.602.876 1.893-.034l7.303-22.823c.282-.88 1.504-.94 1.87-.092l2.392 5.539a1 1 0 0 0 1.353.504l3.78-1.824a1 1 0 0 0 .539-.674l6.595-28.3c.208-.893 1.409-1.059 1.85-.255l.87 1.583a1 1 0 0 0 1.753 0l1.843-3.353a1 1 0 0 1 .876-.518h5.618a1 1 0 0 0 .918-.604l3.783-8.76c.372-.862 1.619-.782 1.879.12l2.063 7.167a1 1 0 0 0 1.794.277l1.912-2.877a1 1 0 0 1 1.792.269l4.361 14.728a1 1 0 0 0 .816.706l2.401.348a1 1 0 0 1 .646.376l2.722 3.503a1 1 0 0 0 1.645-.096l2.165-3.582c.057-.095.098-.198.122-.306l2.111-9.776 7.251-24.381a1 1 0 0 1 .136-.283l2.42-3.503a1 1 0 0 1 1.701.09l4.333 7.943a1.05 1.05 0 0 1 .067.152l3.389 9.811c.302.875 1.529.905 1.873.046l4.179-10.421a1 1 0 0 1 1.372-.524l1.357.673a1 1 0 0 0 1.186-.225l7.978-8.818a1 1 0 0 1 1.624.202l2.221 4.179a1 1 0 0 0 1.477.336l2.485-1.831a1 1 0 0 1 1.578.635l1.593 9.221c.179 1.035 1.628 1.13 1.94.127L141.357 1" stroke="#22c55e" stroke-width="2" stroke-linecap="round"/></svg>