<svg xmlns="http://www.w3.org/2000/svg" width="40" height="40" fill="none" xmlns:v="https://vecta.io/nano"><g stroke-width="1.5" stroke-linecap="round"><path d="M3.33594 18.3333V21.6667C3.33594 27.9521 3.33594 31.0948 5.28856 33.0474C7.24118 35 10.3839 35 16.6693 35H23.3359C29.6213 35 32.764 35 34.7166 33.0474C36.6693 31.0948 36.6693 27.9521 36.6693 21.6667V18.3333C36.6693 12.0479 36.6693 8.90524 34.7166 6.95262C32.764 5 29.6213 5 23.3359 5H16.6693C10.3839 5 7.24118 5 5.28856 6.95262C4.19992 8.04126 3.71823 9.49981 3.50509 11.6667" stroke="url(#A)"/><path d="M25 5L25 21.6667M25 28.3333L25 35" stroke="url(#B)"/><path d="M10.0026 23.333L8.33594 24.9997L10.0026 26.6663M17.5026 26.6663L19.1693 28.333L17.5026 29.9997M15.0026 23.333L12.5026 29.9997" stroke="url(#C)" stroke-linejoin="round"/></g><defs><linearGradient id="A" x1="3.336" y1="20.072" x2="36.669" y2="20.072" gradientUnits="userSpaceOnUse"><stop stop-color="#6366f1"/><stop offset=".5" stop-color="#8b5cf6"/><stop offset="1" stop-color="#d946ef"/></linearGradient><linearGradient id="B" x1="25" y1="20.072" x2="26" y2="20.072" gradientUnits="userSpaceOnUse"><stop stop-color="#6366f1"/><stop offset=".5" stop-color="#8b5cf6"/><stop offset="1" stop-color="#d946ef"/></linearGradient><linearGradient id="C" x1="8.336" y1="26.682" x2="19.169" y2="26.682" gradientUnits="userSpaceOnUse"><stop stop-color="#6366f1"/><stop offset=".5" stop-color="#8b5cf6"/><stop offset="1" stop-color="#d946ef"/></linearGradient></defs></svg>