<svg xmlns="http://www.w3.org/2000/svg" width="40" height="40" fill="none" xmlns:v="https://vecta.io/nano"><g stroke-width="1.5" stroke-linecap="round"><path d="M33.3307 23.333C33.3307 29.6184 33.3307 32.7611 31.3781 34.7137C29.4255 36.6663 26.2828 36.6663 19.9974 36.6663C13.712 36.6663 10.5693 36.6663 8.61668 34.7137C6.66406 32.7611 6.66406 29.6184 6.66406 23.333V16.6663C6.66406 10.3809 6.66406 7.23825 8.61668 5.28563C10.5693 3.33301 13.712 3.33301 19.9974 3.33301C26.2828 3.33301 29.4255 3.33301 31.3781 5.28563C33.3307 7.23825 33.3307 10.3809 33.3307 16.6663" stroke="url(#A)"/><path d="M25 31.667H15" stroke="url(#B)"/><path d="M27.9133 3.96289L27.7731 4.17317C26.513 6.06331 25.883 7.00842 24.9627 7.58027C24.7797 7.69398 24.5896 7.79574 24.3934 7.88492C23.4072 8.33342 22.2713 8.33342 19.9996 8.33342C17.7279 8.33342 16.5921 8.33342 15.6058 7.88492C15.4097 7.79574 15.2195 7.69398 15.0365 7.58027C14.1163 7.00842 13.4862 6.06333 12.2261 4.17317L12.0859 3.96289" stroke="url(#C)"/></g><defs><linearGradient id="A" x1="6.664" y1="20.079" x2="33.331" y2="20.079" gradientUnits="userSpaceOnUse"><stop stop-color="#6366f1"/><stop offset=".5" stop-color="#8b5cf6"/><stop offset="1" stop-color="#d946ef"/></linearGradient><linearGradient id="B" x1="15" y1="32.169" x2="25" y2="32.169" gradientUnits="userSpaceOnUse"><stop stop-color="#6366f1"/><stop offset=".5" stop-color="#8b5cf6"/><stop offset="1" stop-color="#d946ef"/></linearGradient><linearGradient id="C" x1="12.086" y1="6.159" x2="27.913" y2="6.159" gradientUnits="userSpaceOnUse"><stop stop-color="#6366f1"/><stop offset=".5" stop-color="#8b5cf6"/><stop offset="1" stop-color="#d946ef"/></linearGradient></defs></svg>