<svg xmlns="http://www.w3.org/2000/svg" xmlns:xlink="http://www.w3.org/1999/xlink" width="40" height="40" fill="none" xmlns:v="https://vecta.io/nano"><g stroke-width="1.5"><circle cx="13.333" cy="16.666" r="3.333" stroke="url(#A)"/><circle cx="3.333" cy="3.333" r="3.333" transform="matrix(1 0 0 -1 23.3359 26.667)" stroke="url(#B)"/><g stroke-linecap="round"><path d="M13.3359 23.333V31.6663" stroke="url(#C)"/><path d="M26.6641 16.667V8.33366" stroke="url(#D)"/><path d="M13.3359 8.33301V9.99967" stroke="url(#E)"/><path d="M26.6641 31.667V30.0003" stroke="url(#F)"/><path d="M36.6693 19.9997C36.6693 27.8564 36.6693 31.7848 34.2285 34.2256C31.7877 36.6663 27.8593 36.6663 20.0026 36.6663C12.1459 36.6663 8.21749 36.6663 5.77671 34.2256C3.33594 31.7848 3.33594 27.8564 3.33594 19.9997C3.33594 12.1429 3.33594 8.21456 5.77671 5.77378C8.21749 3.33301 12.1459 3.33301 20.0026 3.33301C27.8593 3.33301 31.7877 3.33301 34.2285 5.77378C35.8514 7.39668 36.3952 9.67726 36.5774 13.333" stroke="url(#G)"/></g></g><defs><linearGradient id="A" x1="10" y1="16.682" x2="16.667" y2="16.682" xlink:href="#H"><stop stop-color="#d946ef"/><stop offset=".5" stop-color="#8b5cf6"/><stop offset="1" stop-color="#6366f1"/></linearGradient><linearGradient id="B" x1="0" y1="3.349" x2="6.667" y2="3.349" xlink:href="#H"><stop stop-color="#d946ef"/><stop offset=".5" stop-color="#8b5cf6"/><stop offset="1" stop-color="#6366f1"/></linearGradient><linearGradient id="C" x1="13.336" y1="27.52" x2="14.336" y2="27.52" xlink:href="#H"><stop stop-color="#d946ef"/><stop offset=".5" stop-color="#8b5cf6"/><stop offset="1" stop-color="#6366f1"/></linearGradient><linearGradient id="D" x1="26.664" y1="12.48" x2="27.664" y2="12.48" xlink:href="#H"><stop stop-color="#d946ef"/><stop offset=".5" stop-color="#8b5cf6"/><stop offset="1" stop-color="#6366f1"/></linearGradient><linearGradient id="E" x1="13.336" y1="9.17" x2="14.336" y2="9.17" xlink:href="#H"><stop stop-color="#d946ef"/><stop offset=".5" stop-color="#8b5cf6"/><stop offset="1" stop-color="#6366f1"/></linearGradient><linearGradient id="F" x1="26.664" y1="30.83" x2="27.664" y2="30.83" xlink:href="#H"><stop stop-color="#d946ef"/><stop offset=".5" stop-color="#8b5cf6"/><stop offset="1" stop-color="#6366f1"/></linearGradient><linearGradient id="G" x1="3.336" y1="20.079" x2="36.669" y2="20.079" xlink:href="#H"><stop stop-color="#d946ef"/><stop offset=".5" stop-color="#8b5cf6"/><stop offset="1" stop-color="#6366f1"/></linearGradient><linearGradient id="H" gradientUnits="userSpaceOnUse"/></defs></svg>