<svg xmlns="http://www.w3.org/2000/svg" width="40" height="40" fill="none" xmlns:v="https://vecta.io/nano"><g stroke-width="1.5"><circle cx="31.664" cy="8.333" r="5" stroke="url(#A)"/><g stroke-linecap="round"><path d="M11.6641 23.3337L15.4856 19.5122C16.1364 18.8613 17.1917 18.8613 17.8426 19.5122L20.4856 22.1551C21.1364 22.806 22.1917 22.806 22.8426 22.1551L28.3307 16.667M28.3307 16.667V20.8337M28.3307 16.667H24.1641" stroke="url(#B)" stroke-linejoin="round"/><path d="M36.6693 17.4997V19.9997C36.6693 27.8564 36.6693 31.7848 34.2285 34.2256C31.7877 36.6663 27.8593 36.6663 20.0026 36.6663C12.1459 36.6663 8.21749 36.6663 5.77671 34.2256C3.33594 31.7848 3.33594 27.8564 3.33594 19.9997C3.33594 18.1191 3.33594 16.4636 3.36941 14.9997M22.5026 3.33301H20.0026C12.1459 3.33301 8.21749 3.33301 5.77671 5.77378C5.04186 6.50864 4.52825 7.37835 4.16927 8.44951" stroke="url(#C)"/></g></g><defs><linearGradient id="A" x1="26.664" y1="8.357" x2="36.664" y2="8.357" gradientUnits="userSpaceOnUse"><stop stop-color="#6366f1"/><stop offset=".5" stop-color="#8b5cf6"/><stop offset="1" stop-color="#d946ef"/></linearGradient><linearGradient id="B" x1="11.664" y1="20.016" x2="28.331" y2="20.016" gradientUnits="userSpaceOnUse"><stop stop-color="#6366f1"/><stop offset=".5" stop-color="#8b5cf6"/><stop offset="1" stop-color="#d946ef"/></linearGradient><linearGradient id="C" x1="3.336" y1="20.079" x2="36.669" y2="20.079" gradientUnits="userSpaceOnUse"><stop stop-color="#6366f1"/><stop offset=".5" stop-color="#8b5cf6"/><stop offset="1" stop-color="#d946ef"/></linearGradient></defs></svg>