<svg xmlns="http://www.w3.org/2000/svg" width="76" height="75" fill="none" xmlns:v="https://vecta.io/nano"><g clip-path="url(#B)"><path d="M37.014 64.518a1.25 1.25 0 0 0 1.973 0l26.25-33.75a1.25 1.25 0 0 0 .136-1.316 1.06 1.06 0 0 0-.078-.116h.01l-8.75-13.75c-.235-.35-.633-.556-1.055-.546V15h-35v.039c-.421-.011-.818.192-1.055.54l-8.75 13.75h.01c-.028.037-.054.076-.078.116a1.25 1.25 0 0 0 .136 1.316l26.25 33.756zM40.278 17.5h12.945l-6.473 10.171L40.278 17.5zm4.195 11.25H31.528l6.473-10.171 6.472 10.171zm-15.222-1.079L22.778 17.5h12.945l-6.472 10.171zM14.307 31.25h13.985l7.405 27.5-21.39-27.5zm26.045 27.441l4.024-14.566a1.25 1.25 0 0 0-2.409-.666L38.018 57.75l-7.136-26.5h14.25l-1.542 5.936a1.25 1.25 0 0 0 1.547 1.559 1.25 1.25 0 0 0 .872-.934l1.709-6.561h13.978L40.352 58.691zM61.973 28.75H49.028l6.473-10.171 6.473 10.171zM20.501 18.579l6.473 10.171H14.028l6.472-10.171z" fill="url(#A)"/><path d="M1.75 38.75H5.5a1.25 1.25 0 1 0 0-2.5H1.75a1.25 1.25 0 1 0 0 2.5z" fill="url(#A)"/><path d="M70.5 38.75h3.75a1.25 1.25 0 1 0 0-2.5H70.5a1.25 1.25 0 1 0 0 2.5z" fill="url(#A)"/><path d="M39.25 73.75V70a1.25 1.25 0 1 0-2.5 0v3.75a1.25 1.25 0 1 0 2.5 0z" fill="url(#A)"/><path d="M38 6.25A1.25 1.25 0 0 0 39.25 5V1.25a1.25 1.25 0 1 0-2.5 0V5A1.25 1.25 0 0 0 38 6.25z" fill="url(#A)"/><path d="M14.134 59.598l-2.651 2.653a1.25 1.25 0 0 0 .54 2.132 1.25 1.25 0 0 0 1.226-.365l2.651-2.651a1.25 1.25 0 0 0-1.767-1.767h.001z" fill="url(#A)"/><path d="M60.982 15.769a1.25 1.25 0 0 0 .884-.366l2.651-2.652a1.25 1.25 0 0 0-.54-2.132 1.25 1.25 0 0 0-1.227.365l-2.651 2.651a1.25 1.25 0 0 0 .884 2.134h-.001z" fill="url(#A)"/><path d="M63.632 64.383a1.25 1.25 0 0 0 .884-2.134l-2.651-2.651a1.25 1.25 0 0 0-1.767 1.767l2.652 2.651a1.25 1.25 0 0 0 .883.366z" fill="url(#A)"/><path d="M14.134 15.402a1.25 1.25 0 0 0 1.768-1.767l-2.652-2.651a1.25 1.25 0 0 0-2.131.54 1.25 1.25 0 0 0 .365 1.226l2.651 2.653z" fill="url(#A)"/></g><defs><linearGradient id="A" x1=".5" y1="37.68" x2="75.5" y2="37.68" gradientUnits="userSpaceOnUse"><stop stop-color="#6366f1"/><stop offset=".5" stop-color="#8b5cf6"/><stop offset="1" stop-color="#d946ef"/></linearGradient><clipPath id="B"><path fill="#fff" transform="translate(.5)" d="M0 0h75v75H0z"/></clipPath></defs></svg>