<svg xmlns="http://www.w3.org/2000/svg" width="60" height="60" fill="none" xmlns:v="https://vecta.io/nano"><g clip-path="url(#B)"><path d="M13.996 58.072c-.483 0-.926-.306-1.097-.758-.175-.462-.031-1.006.353-1.319s.939-.35 1.362-.089a1.18 1.18 0 0 1 .538 1.186c-.094.558-.588.98-1.156.98z" fill="url(#A)"/><path d="M58.819 39.596a4.77 4.77 0 0 0-3.396-1.407c-.558 0-1.101.094-1.611.276l-.27-.238c-1.916-1.567-4.681-1.428-6.433.324l-5.536 5.536c-.463.463-2.352 1.549-2.902 1.618h-3.379c-.593 0-.826-.451-.883-.59-.048-.117-.167-.482.052-.845l2.676-.775c1.447-.419 2.564-1.535 2.988-2.986.415-1.421.085-2.929-.885-4.034l-.139-.153c-.777-.82-2.206-.906-4.933-.295-1.921.43-4.142 1.149-5.666 1.676-3.309 1.145-5.875 3.69-7.014 6.905h-1.19v-.919a1.17 1.17 0 0 0-1.172-1.172H1.172A1.17 1.17 0 0 0 0 43.687V56.9a1.17 1.17 0 0 0 1.172 1.172h7.504a1.17 1.17 0 1 0 0-2.344H2.344V44.859h15.611V56.9a1.17 1.17 0 1 0 2.344 0v-.919h3.502c3.446 1.175 7.006 1.767 10.614 1.767.792 0 1.587-.029 2.382-.086a32.51 32.51 0 0 0 12.717-3.585c.95-.493 1.292-.729 1.491-.921l7.26-6.738a.99.99 0 0 0 .031-.03c.889-.889 1.493-2.067 1.657-3.233.193-1.371-.21-2.635-1.134-3.559zm-10.054.612a2.45 2.45 0 0 1 3.014-.364l-5.289 5.289a1.94 1.94 0 0 1-1.381.572h-1.84l5.496-5.496zm8.867 2.621c-.094.666-.45 1.353-.979 1.887l-7.254 6.733c-.048.036-.259.182-.964.548-7.358 3.817-16.097 4.449-23.975 1.733l-.081-.028a1.17 1.17 0 0 0-.382-.064h-3.698v-6.687h2.054a1.17 1.17 0 0 0 1.133-.873c.758-2.867 2.919-5.171 5.783-6.161 6.265-2.166 7.913-1.976 8.202-1.906.452.515.597 1.182.404 1.84-.198.677-.717 1.197-1.39 1.392l-3.024.876a1.17 1.17 0 0 0-.503.297c-.962.962-1.236 2.34-.715 3.596s1.688 2.037 3.048 2.037h9.818a4.27 4.27 0 0 0 3.038-1.258l5.536-5.536a2.44 2.44 0 0 1 1.739-.72c.657 0 1.275.256 1.739.72.403.402.561.933.47 1.576z" fill="url(#A)"/><path d="M45.621 16.532l-.169-.06v-1.855a.46.46 0 0 1 .045.054 1.17 1.17 0 0 0 1.919-1.346c-.397-.565-1.082-1.047-1.968-1.257a1.17 1.17 0 0 0-1.167-1.066 1.17 1.17 0 0 0-1.171 1.142l-.141.04c-1.173.354-2.059 1.489-2.153 2.761-.094 1.267.575 2.365 1.791 2.938l.503.215v2.453c-.186-.098-.346-.22-.464-.367a1.17 1.17 0 1 0-1.825 1.47c.598.742 1.448 1.171 2.3 1.383a1.17 1.17 0 0 0 1.161 1.013c.564 0 1.036-.399 1.147-.93 1.536-.295 2.612-1.333 2.79-2.741.21-1.651-.858-3.233-2.597-3.848zm.272 3.553c-.037.288-.218.47-.44.585v-1.575c.336.297.48.678.44.99z" fill="url(#A)"/><path d="M44.401 27.907c-5.724 0-10.381-4.657-10.381-10.381S38.677 7.145 44.401 7.145s10.381 4.657 10.381 10.381-4.657 10.381-10.381 10.381zm0-18.418a8.05 8.05 0 0 0-8.037 8.037 8.05 8.05 0 0 0 8.037 8.037 8.05 8.05 0 0 0 8.037-8.037 8.05 8.05 0 0 0-8.037-8.037z" fill="url(#A)"/><path d="M44.402 33.124a15.62 15.62 0 0 1-15.598-15.599A15.62 15.62 0 0 1 44.402 1.927 15.62 15.62 0 0 1 60 17.526a15.62 15.62 0 0 1-15.598 15.599zm0-28.853c-7.309 0-13.255 5.946-13.255 13.255s5.946 13.255 13.255 13.255 13.255-5.946 13.255-13.255S51.71 4.271 44.402 4.271z" fill="url(#A)"/></g><defs><linearGradient id="A" x1="0" y1="30.134" x2="60" y2="30.134" gradientUnits="userSpaceOnUse"><stop stop-color="#6366f1"/><stop offset=".5" stop-color="#8b5cf6"/><stop offset="1" stop-color="#d946ef"/></linearGradient><clipPath id="B"><path fill="#fff" d="M0 0h60v60H0z"/></clipPath></defs></svg>