<svg xmlns="http://www.w3.org/2000/svg" width="60" height="60" fill="none" xmlns:v="https://vecta.io/nano"><path d="M23.501 8.434c-.076 0-.153-.007-.228-.022s-.149-.038-.22-.067a1.21 1.21 0 0 1-.202-.108 1.19 1.19 0 0 1-.178-.145c-.054-.055-.103-.115-.145-.178a1.27 1.27 0 0 1-.108-.203c-.029-.07-.053-.144-.067-.219s-.023-.152-.023-.228a1.18 1.18 0 0 1 .023-.23c.014-.075.038-.149.067-.219s.066-.138.108-.202.091-.125.145-.179a1.16 1.16 0 0 1 .178-.145c.064-.042.131-.079.202-.108s.145-.051.22-.066a1.18 1.18 0 0 1 1.057.32c.054.054.103.115.145.179a1.21 1.21 0 0 1 .108.202c.029.071.052.144.067.219a1.18 1.18 0 0 1 .023.23c0 .076-.008.152-.023.228s-.038.149-.067.219a1.23 1.23 0 0 1-.108.203c-.042.063-.091.123-.145.178a1.18 1.18 0 0 1-.829.342z" fill="url(#A)"/><path d="M41.489 0h-23.05a5.32 5.32 0 0 0-5.314 5.314v49.372A5.32 5.32 0 0 0 18.439 60h23.05a5.32 5.32 0 0 0 5.314-5.314V5.314A5.32 5.32 0 0 0 41.489 0zm-23.05 2.344h23.05c1.637 0 2.97 1.333 2.97 2.97v.777H29.105a1.17 1.17 0 1 0 0 2.344h15.354v41.957h-28.99V8.435h3.089a1.17 1.17 0 1 0 0-2.344h-3.089v-.777c0-1.637 1.333-2.97 2.97-2.97zm26.02 52.342c0 1.637-1.333 2.97-2.97 2.97h-23.05c-1.637 0-2.97-1.333-2.97-2.97v-1.951h28.99v1.951z" fill="url(#A)"/><path d="M27.518 26.44h-8.27a1.17 1.17 0 0 1-1.172-1.172v-8.269a1.17 1.17 0 0 1 1.172-1.172h8.27a1.17 1.17 0 0 1 1.172 1.172v8.27a1.17 1.17 0 0 1-1.172 1.172zm-7.098-2.344h5.926V18.17H20.42v5.926z" fill="url(#A)"/><path d="M40.679 26.44h-8.27a1.17 1.17 0 0 1-1.172-1.172v-8.269a1.17 1.17 0 0 1 1.172-1.172h8.27a1.17 1.17 0 0 1 1.172 1.172v8.27a1.17 1.17 0 0 1-1.172 1.172zm-7.098-2.344h5.926V18.17h-5.926v5.926z" fill="url(#A)"/><path d="M27.518 39.483h-8.27a1.17 1.17 0 0 1-1.172-1.172v-8.27a1.17 1.17 0 0 1 1.172-1.172h8.27a1.17 1.17 0 0 1 1.172 1.172v8.27a1.17 1.17 0 0 1-1.172 1.172zM20.42 37.14h5.926v-5.926H20.42v5.926z" fill="url(#A)"/><path d="M40.679 39.483h-8.27a1.17 1.17 0 0 1-1.172-1.172v-8.27a1.17 1.17 0 0 1 1.172-1.172h8.27a1.17 1.17 0 0 1 1.172 1.172v8.27a1.17 1.17 0 0 1-1.172 1.172zm-7.098-2.344h5.926v-5.926h-5.926v5.926z" fill="url(#A)"/><path d="M31.409 56.368h-2.891a1.17 1.17 0 1 1 0-2.344h2.891a1.17 1.17 0 1 1 0 2.344z" fill="url(#A)"/><path d="M33.831 44.648h-7.734a1.17 1.17 0 1 1 0-2.344h7.734a1.17 1.17 0 1 1 0 2.344z" fill="url(#A)"/><defs><linearGradient id="A" x1="13.126" y1="30.144" x2="46.803" y2="30.144" gradientUnits="userSpaceOnUse"><stop stop-color="#6366f1"/><stop offset=".5" stop-color="#8b5cf6"/><stop offset="1" stop-color="#d946ef"/></linearGradient></defs></svg>