<svg xmlns="http://www.w3.org/2000/svg" width="76" height="75" fill="none" xmlns:v="https://vecta.io/nano"><path d="M72.08 10.502c-1.016-3.195-2.393-5.482-2.451-5.578a1.05 1.05 0 0 0-1.112-.469c-.109.025-2.709.632-5.708 2.129-4.049 2.021-6.877 4.72-8.18 7.802-1.084 2.567-1.24 5.706-.471 9.173a29.21 29.21 0 0 0-5.492-4.779 42.55 42.55 0 0 0-4.773-7.317c-.836-1.027-2.443.262-1.599 1.299 1.709 2.102 2.996 4.17 3.801 5.591l-9.383-1.829-8.914-12.159c.866.012 1.734.096 2.599.265 2.74.536 5.447 1.932 8.046 4.147 1.018.868 2.341-.712 1.336-1.568-2.872-2.447-5.895-3.995-8.987-4.601-4.719-.924-10.224.289-15.919 3.507-4.245 2.399-7.084 5.034-7.203 5.145-.38.355-.44.999-.122 1.414.416.854 1.994 3.935 4.62 7.252 1.548 1.956 3.181 3.629 4.869 5.005-.48.402-.947.823-1.399 1.265-2.414 2.361-4.261 5.145-5.475 8.19-1.072 2.69-1.649 5.584-1.681 8.566-.053 4.877 1.36 9.581 4.088 13.604 2.665 3.929 6.39 6.946 10.772 8.724 1.227.497 2.002-1.411.775-1.909a21.75 21.75 0 0 1-4.455-2.451c.176-.976.584-4.488-1.749-8.124-.327-.509.65-2.506 1.233-3.699.602-1.23 1.223-2.501 1.513-3.698.308-1.272-.039-2.339-1.002-3.088-.707-.55-1.633-.834-2.449-1.085-.53-.163-1.131-.348-1.345-.526-.442-.37-1.164-1.739-1.744-2.838-.644-1.219-1.257-2.38-1.882-3.094 1.408-3.344 3.67-6.303 6.502-8.567 2.587 1.762 5.54 2.979 8.679 3.225-3.64 2.82-4.818 6.422-3.134 9.882 1.965 4.04 6.011 3.395 9.58 2.826l1.868-.277c.23-.029.299.034.345.075.782.695.758 4.015.741 6.44-.023 3.354-.044 6.522 1.205 8.148.637.829 1.535 1.253 2.587 1.253.63 0 1.315-.152 2.034-.46 3.107-1.33 6.336-5.334 5.843-8.502-.43-2.77-.715-4.6-.044-6.075.621-1.365 2.122-2.629 5.079-4.242a21.75 21.75 0 0 1 .514 4.954 21.6 21.6 0 0 1-6.537 15.306c-4.64 4.54-11.162 6.781-17.614 6.07-1.314-.142-1.541 1.903-.225 2.048 7.062.778 14.202-1.677 19.279-6.645 4.546-4.447 7.087-10.398 7.156-16.757.092-8.432-4.234-15.901-10.82-20.204a40.2 40.2 0 0 0 2.937-2.296 27.41 27.41 0 0 1 6.303 6.317 27.16 27.16 0 0 1 4.751 20.379c-2.457 14.874-16.556 24.978-31.432 22.52a27.16 27.16 0 0 1-17.77-11.051C5.81 53.201 4.123 45.963 5.313 38.758c.214-1.296-1.817-1.637-2.032-.336-1.28 7.748.535 15.531 5.108 21.915S19.75 70.94 27.499 72.22c1.62.267 3.243.4 4.854.4 6.09 0 12.014-1.891 17.062-5.508 6.385-4.574 10.605-11.36 11.885-19.108.938-5.678.212-11.374-2.042-16.525 1.04-.307 2.811-.902 4.75-1.871 4.048-2.021 6.876-4.72 8.179-7.803s1.267-6.992-.105-11.303zM12.296 38.825c.766 1.453 1.491 2.826 2.244 3.456.533.446 1.276.674 2.062.916 2.013.619 2.247.923 2.054 1.719-.237.979-.808 2.148-1.361 3.278-1.064 2.177-2.068 4.231-1.116 5.716 1.35 2.105 1.582 4.177 1.559 5.465-6.135-5.532-8.633-14.27-6.348-22.212.303.519.621 1.123.906 1.662zm49.835-20.242l-2.927-7.094c1.424-1.332 3.077-2.335 4.485-3.041a27.5 27.5 0 0 1 3.255-1.37l-4.812 11.505zm6.711-10.706a27.64 27.64 0 0 1 1.288 3.293c.444 1.406.852 3.148.933 4.966l-6.86 2.83 4.639-11.089zm-12.315 7.312a9.81 9.81 0 0 1 1.15-1.999l3.332 8.075-2.99 7.151c-.42-.891-.915-2.062-1.335-3.392-.842-2.663-1.553-6.531-.158-9.834zm6.599 12.555c-1.154.579-2.255 1.018-3.152 1.334l3.103-7.419 7.899-3.259c-.115.885-.333 1.762-.689 2.603-1.395 3.302-4.665 5.489-7.161 6.741zm-37.142-.586a13.84 13.84 0 0 1-1.077-.258l11.4-8.356 9.387 1.829c-3.419 2.694-11.741 8.346-19.71 6.785zm-10.419-6.445c-2.438-2.628-4.225-5.437-5.251-7.236l11.946 2.329-6.694 4.907zm2.11-13.743l4.998 6.817-12.023-2.344c1.514-1.195 4.012-2.989 7.025-4.473zm7.978 7.398l-6.059-8.265c1.814-.745 3.761-1.332 5.757-1.593l8.382 11.433-8.08-1.575zm-.641 1.974l8.543 1.665-10.964 8.037c-2.068-.955-3.928-2.328-5.557-3.854l7.978-5.848zm27.95 20.114c-3.713 1.978-5.532 3.532-6.394 5.428-.927 2.035-.587 4.22-.117 7.244.278 1.783-1.842 5.103-4.618 6.293-1.027.44-1.759.388-2.176-.155-.818-1.065-.796-4.289-.779-6.879.024-3.583.046-6.678-1.432-7.993-.532-.473-1.212-.673-1.968-.58a57.54 57.54 0 0 0-1.939.287c-3.786.603-6.169.845-7.403-1.693-2-4.11 2.048-7.154 3.882-8.272.373-.227.72-.496 1.042-.794 4.431-.53 8.618-2.431 12.349-4.812 4.474 2.673 7.908 6.903 9.555 11.927z" fill="url(#A)"/><defs><linearGradient id="A" x1="2.88" y1="37.632" x2="73.137" y2="37.632" gradientUnits="userSpaceOnUse"><stop stop-color="#6366f1"/><stop offset=".5" stop-color="#8b5cf6"/><stop offset="1" stop-color="#d946ef"/></linearGradient></defs></svg>