<svg xmlns="http://www.w3.org/2000/svg" width="76" height="75" fill="none" xmlns:v="https://vecta.io/nano"><g clip-path="url(#B)"><path d="M72.332 61.389l-1.546-10.625a4.82 4.82 0 0 0-1.368-2.706L66 27.062A3.75 3.75 0 0 0 64.275 20h-11.75c-1.467-1.302-3.562-1.62-5.349-.812s-2.933 2.59-2.926 4.551l-.921.736-1.579-1.58V18.75a5.69 5.69 0 0 0-2.356-4.853A7.5 7.5 0 0 0 35.501-.013a7.5 7.5 0 0 0-3.893 13.911c-1.484 1.174-2.352 2.96-2.359 4.853v17.5a3.75 3.75 0 0 0 2.5 3.52v2.208l-6.094 12.125a5 5 0 0 0 .094 4.647H20.5a3.74 3.74 0 0 0-2.22 6.756A7.37 7.37 0 0 0 18 67.5c-.003 3.46 2.364 6.472 5.727 7.288s6.847-.779 8.429-3.856c.605.202 1.237.309 1.875.319h27.484c1.531 2.658 4.528 4.114 7.564 3.676s5.498-2.683 6.215-5.666-.457-6.101-2.962-7.871zm-7.375-.736l-1.285-8.865a2.34 2.34 0 0 1 1.981-2.65c.649-.1 1.309.082 1.815.5.461.372.763.905.845 1.491l1.318 9.054a7.4 7.4 0 0 0-4.678.469l.004.001zm-30.708.597V40h5v21.25a2.5 2.5 0 1 1-5 0zm7.5 0V33.546c1.37.442 2.87.156 3.981-.758l5.691-4.556c.397-.194.767-.441 1.1-.732h5.814l3.481 21.54c-.553.938-.77 2.036-.616 3.114l1.458 10.089c-.443.452-.827.959-1.144 1.507h-20.46a4.95 4.95 0 0 0 .695-2.5zM63.541 27.5l3.125 19.18a4.85 4.85 0 0 0-1.36-.018 4.73 4.73 0 0 0-1.272.386L60.875 27.5h2.666zm1.6-4.64a1.26 1.26 0 0 1 .359.89 1.24 1.24 0 0 1-1.06 1.235 1.52 1.52 0 0 1-.165.015H54.072a4.49 4.49 0 0 0 0-2.5h10.203c.325.001.636.131.866.36zM49.25 21.25a2.5 2.5 0 1 1 0 5 2.5 2.5 0 1 1 0-5zM30.5 7.5a5 5 0 0 1 10 0 5 5 0 1 1-10 0zm7.647 8.59c.705.706 1.101 1.662 1.102 2.66v1.645l-1.616-1.616a1.25 1.25 0 0 0-1.767 1.767l6.487 6.488a1.25 1.25 0 0 0 1.664.093l.979-.783a5.02 5.02 0 0 0 2.286 2l-3.115 2.5a1.92 1.92 0 0 1-2.5-.135l-4.038-4.038a1.25 1.25 0 0 0-1.767 1.768l3.387 3.379V37.5H33a1.25 1.25 0 0 1-1.25-1.25v-17.5a3.75 3.75 0 0 1 6.397-2.66zm-10.25 39.134l3.852-7.677v10.673a2.53 2.53 0 0 1-1.788.606 1.83 1.83 0 0 1-.591-.106c-.05-.017-.101-.031-.154-.041v-.008a1.2 1.2 0 0 0-.221-.095c-1.221-.629-1.712-2.12-1.104-3.351h.005zM25.5 72.5a5 5 0 0 1-5-5 4.91 4.91 0 0 1 .175-1.25h3.575v1.25a1.25 1.25 0 1 0 2.5 0v-.945l2.875 2.875c.111.109.241.19.359.29-.852 1.697-2.585 2.771-4.484 2.78zm8.537-3.75c-.995 0-1.949-.394-2.654-1.096l-3.538-3.537a1.25 1.25 0 0 0-.884-.366H20.5a1.25 1.25 0 1 1 0-2.5h6.462a3.76 3.76 0 0 1 2.654 1.096l3.537 3.538a1.25 1.25 0 0 0 .884.366h26.575a7 7 0 0 0 0 2.5H34.037zM68 72.5a5 5 0 1 1 0-10 5 5 0 1 1 0 10z" fill="url(#A)"/><path d="M68 68.75a1.25 1.25 0 0 0 0-2.5 1.25 1.25 0 0 0 0 2.5z" fill="url(#A)"/><path d="M25.5 27.5a1.25 1.25 0 0 0-1.25-1.25h-12.5a1.25 1.25 0 1 0 0 2.5h12.5a1.25 1.25 0 0 0 1.25-1.25z" fill="url(#A)"/><path d="M25.5 36.25a1.25 1.25 0 1 0 0-2.5H14.25a1.25 1.25 0 1 0 0 2.5H25.5z" fill="url(#A)"/><path d="M28 42.5a1.25 1.25 0 0 0-1.25-1.25H15.5a1.25 1.25 0 1 0 0 2.5h11.25A1.25 1.25 0 0 0 28 42.5z" fill="url(#A)"/><path d="M5.5 26.25H1.75a1.25 1.25 0 1 0 0 2.5H5.5a1.25 1.25 0 1 0 0-2.5z" fill="url(#A)"/><path d="M9.25 33.75H8a1.25 1.25 0 1 0 0 2.5h1.25a1.25 1.25 0 1 0 0-2.5z" fill="url(#A)"/></g><defs><linearGradient id="A" x1=".5" y1="37.674" x2="75.502" y2="37.674" gradientUnits="userSpaceOnUse"><stop stop-color="#6366f1"/><stop offset=".5" stop-color="#8b5cf6"/><stop offset="1" stop-color="#d946ef"/></linearGradient><clipPath id="B"><path fill="#fff" transform="translate(.5)" d="M0 0h75v75H0z"/></clipPath></defs></svg>