<svg xmlns="http://www.w3.org/2000/svg" width="60" height="60" fill="none" xmlns:v="https://vecta.io/nano"><path d="M56.15 43.751v-13.16c0-1.022-.831-1.853-1.853-1.853h-.192V12.554c0-1.204-.607-2.308-1.624-2.952l-.322-.204a2.18 2.18 0 0 0 .036-1.257 2.18 2.18 0 0 0-1.023-1.334l-6.068-3.503a3.09 3.09 0 0 0-4.213 1.129c-.412.713-.521 1.545-.308 2.34s.724 1.461 1.437 1.873l6.068 3.503c.345.199.722.294 1.094.294a2.2 2.2 0 0 0 1.839-.991l.206.13c.335.212.535.575.535.972v16.184h-.192c-1.022 0-1.853.831-1.853 1.853v6.983c-2.095.3-3.798 1.16-5.075 2.572-1.997 2.208-2.392 5.185-2.44 6.866h-2.28c-.377-1.729-1.919-3.028-3.76-3.028H19.637c-1.841 0-3.383 1.299-3.76 3.028h-.531v-1.393c0-1.789-.752-3.514-2.064-4.731s-3.087-1.84-4.872-1.707l-5.267.392a1.17 1.17 0 0 0-1.082 1.255c.048.645.612 1.13 1.256 1.082l5.267-.392a4.07 4.07 0 0 1 3.103 1.087 4.07 4.07 0 0 1 1.314 3.014v.59c-1.26-1.945-3.449-3.236-5.934-3.236A7.08 7.08 0 0 0 0 50.041a7.08 7.08 0 0 0 7.068 7.068c2.814 0 5.248-1.653 6.384-4.039h2.579c.394.816 1.227 1.381 2.191 1.381h19.353c.965 0 1.798-.565 2.191-1.381h1.625a3.18 3.18 0 0 0 3.177-3.177v-1.709c0-.026-.002-.052-.004-.078l-.002-.037c-.004-.039-.353-3.964 1.824-6.361.828-.911 1.944-1.498 3.328-1.758v3.8c-2.284 1.173-3.85 3.551-3.85 6.29a7.08 7.08 0 0 0 7.068 7.068A7.08 7.08 0 0 0 60 50.041c0-2.739-1.567-5.117-3.85-6.29zM49.13 10.045l-5.94-3.43c-.171-.099-.294-.258-.345-.449s-.025-.39.074-.562a.74.74 0 0 1 .642-.37c.126 0 .253.032.369.099l5.94 3.429-.74 1.282zM7.068 54.764a4.73 4.73 0 0 1-4.724-4.724 4.73 4.73 0 0 1 4.724-4.724c1.453 0 2.754.66 3.622 1.695H8.861a2.97 2.97 0 0 0-2.965 2.965v.127a2.97 2.97 0 0 0 2.965 2.965h1.828c-.867 1.035-2.169 1.695-3.622 1.695zm8.72-4.039H8.861a.62.62 0 0 1-.621-.621v-.127a.62.62 0 0 1 .621-.621h6.927v1.37zm21.878-2.145h-7.725a1.17 1.17 0 0 0-1.172 1.172 1.17 1.17 0 0 0 .519.973c.187.125.411.199.653.199h7.725v1.092c0 .05-.041.09-.09.09H18.222c-.05 0-.091-.041-.091-.09v-4.183c0-.303.091-.585.245-.821.269-.412.733-.685 1.26-.685H36.16c.527 0 .991.273 1.26.685.155.236.245.518.245.821v.748zm4.559 1.312c0 .459-.374.833-.833.833H40.01v-1.37h2.215v.537zm9.834-18.811h1.747v17.519c0 .482-.392.874-.873.874s-.874-.392-.874-.874V31.081zm.874 23.683a4.73 4.73 0 0 1-4.724-4.724 4.71 4.71 0 0 1 1.507-3.455v2.015a3.22 3.22 0 0 0 3.217 3.217 3.22 3.22 0 0 0 3.217-3.217v-2.015a4.71 4.71 0 0 1 1.507 3.455 4.73 4.73 0 0 1-4.724 4.724z" fill="url(#A)"/><path d="M26.354 49.355c-.058-.161-.15-.309-.272-.431-.272-.272-.677-.397-1.058-.321a1.24 1.24 0 0 0-.219.067 1.19 1.19 0 0 0-.202.108 1.2 1.2 0 0 0-.325.325 1.19 1.19 0 0 0-.108.202l-.018.052a1.24 1.24 0 0 0-.048.167c-.015.076-.022.154-.022.23a1.18 1.18 0 0 0 .343.828 1.12 1.12 0 0 0 .177.144c.064.043.133.079.203.109a1.24 1.24 0 0 0 .219.067 1.18 1.18 0 0 0 .882-.175 1.16 1.16 0 0 0 .177-.144 1.18 1.18 0 0 0 .343-.829 1.17 1.17 0 0 0-.072-.397z" fill="url(#A)"/><defs><linearGradient id="A" x1="0" y1="30.13" x2="60" y2="30.13" gradientUnits="userSpaceOnUse"><stop stop-color="#6366f1"/><stop offset=".5" stop-color="#8b5cf6"/><stop offset="1" stop-color="#d946ef"/></linearGradient></defs></svg>