<svg xmlns="http://www.w3.org/2000/svg" xmlns:xlink="http://www.w3.org/1999/xlink" width="60" height="60" fill="none" xmlns:v="https://vecta.io/nano"><g clip-path="url(#B)"><path d="M53.254 8.077l.978 2.751a.44.44 0 0 0 .229.258l2.444 1.101a.49.49 0 0 1 0 .861l-2.444 1.101a.44.44 0 0 0-.229.258l-.978 2.751c-.138.389-.627.389-.765 0l-.978-2.751a.44.44 0 0 0-.229-.258l-2.444-1.101a.49.49 0 0 1 0-.861l2.444-1.101a.44.44 0 0 0 .229-.258l.978-2.751c.138-.389.627-.389.765 0z" fill="url(#A)"/><path d="M16.689.216l.726 2.04c.031.087.093.157.17.192l1.813.817c.256.115.256.523 0 .639l-1.813.817c-.078.035-.139.104-.17.192l-.726 2.04c-.102.288-.465.288-.568 0l-.726-2.04c-.031-.087-.093-.157-.17-.192l-1.813-.817c-.256-.115-.256-.523 0-.639l1.813-.817c.078-.035.139-.104.17-.192l.726-2.04c.102-.288.465-.288.568 0z" fill="url(#A)"/><path d="M46.319 4.477a1.44 1.44 0 0 1-1.437 1.437 1.44 1.44 0 0 1-1.437-1.437 1.44 1.44 0 0 1 1.437-1.437 1.44 1.44 0 0 1 1.437 1.437z" fill="url(#A)"/><path d="M7.082 12.483c0 1.173-.951 2.123-2.123 2.123s-2.123-.951-2.123-2.123.951-2.123 2.123-2.123 2.123.951 2.123 2.123z" fill="url(#A)"/><path d="M29.005 60C15.621 60 4.731 49.111 4.731 35.726s10.889-24.274 24.274-24.274S53.28 22.341 53.28 35.726 42.39 60 29.005 60zm0-46.191c-12.085 0-21.917 9.832-21.917 21.917s9.832 21.917 21.917 21.917 21.917-9.832 21.917-21.917-9.832-21.917-21.917-21.917z" fill="url(#A)"/><use xlink:href="#C" fill="url(#A)"/><path d="M43.382 30.292a1.18 1.18 0 0 1-1.178-1.178c0-1.809-1.471-3.28-3.28-3.28s-3.28 1.471-3.28 3.28a1.18 1.18 0 0 1-1.178 1.178 1.18 1.18 0 0 1-1.178-1.178c0-3.108 2.529-5.637 5.637-5.637s5.637 2.529 5.637 5.637a1.18 1.18 0 0 1-1.179 1.178z" fill="url(#A)"/><path d="M44.689 34.985H13.322a1.18 1.18 0 0 0-1.178 1.178c0 9.298 7.564 16.862 16.862 16.862s16.862-7.564 16.862-16.862a1.18 1.18 0 0 0-1.178-1.178zM20.053 47.567c1.608-2.578 5.078-4.259 8.952-4.259s7.344 1.681 8.952 4.259a14.43 14.43 0 0 1-8.952 3.101c-3.376 0-6.485-1.16-8.952-3.101zm19.652-1.622c-2.124-3.039-6.208-4.994-10.7-4.994s-8.577 1.955-10.7 4.994c-2.113-2.309-3.491-5.302-3.758-8.603h28.916a14.45 14.45 0 0 1-3.758 8.604z" fill="url(#A)"/></g><defs><linearGradient id="A" x1="2.835" y1="30.144" x2="57.164" y2="30.144" gradientUnits="userSpaceOnUse"><stop stop-color="#6366f1"/><stop offset=".5" stop-color="#8b5cf6"/><stop offset="1" stop-color="#d946ef"/></linearGradient><clipPath id="B"><path fill="#fff" d="M0 0h60v60H0z"/></clipPath><path id="C" d="M23.546 30.292a1.18 1.18 0 0 1-1.178-1.178c0-1.809-1.471-3.28-3.28-3.28s-3.28 1.471-3.28 3.28a1.18 1.18 0 0 1-1.178 1.178 1.18 1.18 0 0 1-1.178-1.178c0-3.108 2.529-5.637 5.637-5.637s5.637 2.529 5.637 5.637a1.18 1.18 0 0 1-1.179 1.178z"/></defs></svg>