<svg xmlns="http://www.w3.org/2000/svg" width="48" height="55" fill="none" xmlns:v="https://vecta.io/nano"><g clip-path="url(#A)"><g clip-path="url(#B)"><path d="M4.019 49.239L0 .092l48 .099-4.25 49.048-19.569 5.669-20.162-5.669z" fill="#d4d7e5"/><path d="M24.18 50.162V4.772l19.767.066-3.525 40.61-16.242 4.714z" fill="#9397ad"/><path d="M22.067 10.162h-5.226v30.21l-4.064-.775v-4.067l-4.839-.775v9.102l14.129 3.679V10.162zm3.92 0h14.467l-.968 5.79h-7.977v9.502h7.977l-.968 19.178-12.531 2.905v-6.003l8.467-2.905.489-7.94-8.956 1.297V10.162z" fill="#fff"/></g></g><defs><clipPath id="A"><path fill="#fff" d="M0 0h48v55H0z"/></clipPath><clipPath id="B"><path fill="#fff" d="M0 0h48v55H0z"/></clipPath></defs></svg>