<svg xmlns="http://www.w3.org/2000/svg" width="85" height="55" fill="#fff" xmlns:v="https://vecta.io/nano"><path d="M13.376 28.806c0-.26-.136-.499-.36-.629L7.048 24.73a.7.7 0 0 0-.329-.095h-.062a.71.71 0 0 0-.329.095L.361 28.177c-.222.129-.361.368-.361.629l.013 9.282c0 .13.067.249.18.312s.248.067.358 0l3.546-2.038a.73.73 0 0 0 .361-.628v-4.336a.72.72 0 0 1 .36-.626l1.51-.873a.71.71 0 0 1 .361-.098.7.7 0 0 1 .359.098l1.51.873a.72.72 0 0 1 .36.626v4.336a.73.73 0 0 0 .361.628l3.545 2.038c.111.067.25.067.36 0a.36.36 0 0 0 .179-.312l.012-9.282zm31.865-12.76a.36.36 0 0 0-.359.004c-.109.065-.178.184-.178.312v9.193c0 .09-.048.174-.125.219s-.175.045-.253 0l-1.494-.864a.72.72 0 0 0-.72 0l-5.97 3.458c-.223.129-.361.368-.361.627v6.918a.73.73 0 0 0 .36.627l5.97 3.46a.72.72 0 0 0 .721 0l5.97-3.461c.223-.13.361-.368.361-.627V18.668c0-.262-.141-.504-.37-.632l-3.552-1.99zm-.554 17.594c0 .065-.034.124-.09.157l-2.05 1.186c-.056.032-.124.032-.179 0l-2.05-1.186a.18.18 0 0 1-.09-.157v-2.376c0-.065.034-.124.09-.157l2.05-1.188a.18.18 0 0 1 .181 0l2.05 1.188c.055.032.09.092.09.157v2.376zm21.912-2.438c.222-.13.359-.368.359-.626V28.9a.72.72 0 0 0-.359-.626l-5.931-3.457a.72.72 0 0 0-.723-.001l-5.967 3.458a.72.72 0 0 0-.361.627v6.916c0 .26.139.5.365.629l5.93 3.392a.72.72 0 0 0 .707.004l3.588-2.001a.36.36 0 0 0 .185-.314.36.36 0 0 0-.181-.316l-6.006-3.46a.36.36 0 0 1-.181-.314v-2.168c0-.129.069-.249.18-.313l1.87-1.082a.36.36 0 0 1 .36 0l1.869 1.082a.36.36 0 0 1 .181.313v1.705c0 .129.069.249.181.314a.36.36 0 0 0 .361-.001l3.573-2.085zM24.234 24.78a.72.72 0 0 1 .721 0l5.969 3.458c.223.129.36.368.36.627v6.921c0 .259-.137.497-.36.627l-5.969 3.46a.72.72 0 0 1-.721 0l-5.968-3.46c-.223-.129-.36-.368-.36-.627v-6.921c0-.259.138-.497.361-.626l5.968-3.458zm53.949 15.19a1.17 1.17 0 0 1-.59-.159l-1.88-1.116c-.28-.157-.143-.213-.05-.245.374-.13.45-.16.85-.388.041-.024.096-.014.139.01l1.444.86c.052.029.126.029.174 0l5.629-3.261c.052-.03.086-.09.086-.153v-6.52a.18.18 0 0 0-.088-.155l-5.626-3.258c-.051-.03-.121-.03-.173 0l-5.625 3.259c-.054.031-.089.093-.089.155v6.52c0 .062.034.121.089.151l1.541.895c.837.419 1.349-.075 1.349-.572v-6.437c0-.091.073-.163.164-.163h.714c.089 0 .163.072.163.163v6.437c0 1.121-.608 1.764-1.667 1.764-.325 0-.581 0-1.297-.353l-1.476-.853c-.364-.211-.59-.607-.59-1.03v-6.52a1.19 1.19 0 0 1 .59-1.03l5.629-3.265a1.23 1.23 0 0 1 1.183 0l5.628 3.265c.365.211.592.606.592 1.03v6.52c0 .423-.227.817-.592 1.03l-5.628 3.262c-.18.105-.385.159-.593.159zm1.741-4.492c-2.463 0-2.979-1.135-2.979-2.086 0-.091.073-.163.162-.163h.728c.081 0 .148.059.162.138.109.744.438 1.119 1.926 1.119 1.186 0 1.691-.269 1.691-.901 0-.364-.143-.634-1.987-.816-1.539-.153-2.492-.495-2.492-1.731 0-1.14.957-1.82 2.562-1.82 1.803 0 2.695.628 2.808 1.976.005.047-.012.091-.043.126s-.074.052-.118.052h-.731c-.076 0-.142-.054-.158-.128-.175-.782-.601-1.032-1.757-1.032-1.295 0-1.445.453-1.445.792 0 .411.178.531 1.925.763 1.73.23 2.551.555 2.551 1.775 0 1.231-1.023 1.936-2.806 1.936zm-19.711-4.6c.043-.025.095-.025.138 0l1.146.663c.043.025.069.07.069.12v1.328a.14.14 0 0 1-.069.12l-1.146.663c-.043.025-.095.025-.138 0l-1.144-.663c-.043-.025-.069-.071-.069-.12v-1.328c0-.05.026-.095.069-.12l1.144-.663z" fill-opacity=".4"/></svg>