<svg xmlns="http://www.w3.org/2000/svg" width="56" height="55" fill="#fff" xmlns:v="https://vecta.io/nano"><path d="M13.3 24.319a4.12 4.12 0 0 1 1.611.117c.524.145 1.014.393 1.442.728a3.36 3.36 0 0 1 .515 1.411 3.34 3.34 0 0 1-.153 1.494c-.143 1.182-.715 2.27-1.607 3.059-1.075.693-2.347 1.018-3.623.926h-2.45l1.505-7.719 2.758-.016zm-9.8 15.55h4.025l.954-4.9h3.442a12.33 12.33 0 0 0 3.752-.485 7.1 7.1 0 0 0 2.678-1.607 8.02 8.02 0 0 0 2.527-4.518c.252-.868.297-1.783.13-2.672a5.75 5.75 0 0 0-1.092-2.442c-.664-.658-1.464-1.163-2.343-1.48s-1.818-.438-2.749-.355H7.1L3.5 39.869zM23.828 16.5h3.995l-.968 4.9h3.554a6.92 6.92 0 0 1 4.629 1.171 3.88 3.88 0 0 1 .889 1.794c.134.665.09 1.355-.126 1.998l-1.669 8.591H30.09l1.589-8.167a2.22 2.22 0 0 0-.2-1.901 2.8 2.8 0 0 0-2.002-.5h-3.19l-2.056 10.577h-4.004L23.828 16.5zm20.863 7.82a4.12 4.12 0 0 1 1.611.117c.524.145 1.014.393 1.442.728a3.36 3.36 0 0 1 .515 1.411 3.35 3.35 0 0 1-.153 1.494c-.143 1.182-.715 2.27-1.606 3.059a5.91 5.91 0 0 1-3.629.926h-2.448l1.502-7.728 2.767-.007zm-9.8 15.55h4.025l.954-4.9h3.444a12.33 12.33 0 0 0 3.759-.485c1.001-.33 1.915-.879 2.677-1.607 1.315-1.187 2.201-2.776 2.518-4.518a5.75 5.75 0 0 0-.962-5.114 6.42 6.42 0 0 0-2.343-1.477c-.879-.316-1.817-.437-2.747-.353H38.48L34.891 39.87z" fill-opacity=".4"/></svg>