<svg xmlns="http://www.w3.org/2000/svg" width="48" height="55" fill="none" xmlns:v="https://vecta.io/nano"><path d="M19.291 6A6.29 6.29 0 0 0 13 12.291v3.695h9.436c.858 0 1.564 1.256 1.564 2.114H8.291A6.29 6.29 0 0 0 2 24.391v8.319A6.29 6.29 0 0 0 8.291 39h2.595v-5.895c0-3.476 2.798-6.291 6.273-6.291h11.55c3.476 0 6.291-2.797 6.291-6.273v-8.25A6.29 6.29 0 0 0 28.709 6h-9.419zm-1.581 3.541c.88 0 1.581.266 1.581 1.564s-.701 1.959-1.581 1.959c-.858 0-1.564-.661-1.564-1.959s.706-1.564 1.564-1.564z" fill="#d4d7e5"/><path d="M37.11 17v5.895c0 3.476-2.793 6.291-6.269 6.291h-11.55c-3.476 0-6.291 2.793-6.291 6.269v8.25A6.29 6.29 0 0 0 19.291 50h9.419a6.29 6.29 0 0 0 4.449-1.844c1.18-1.181 1.842-2.782 1.841-4.45V40.01h-9.44c-.858 0-1.56-1.252-1.56-2.11h15.709A6.29 6.29 0 0 0 46 31.605v-8.314c-.001-3.474-2.817-6.29-6.291-6.291H37.11zm-21.205 9.93l-.009.009c.026-.005.055-.004.082-.009h-.073zm14.386 16.006c.858 0 1.564.661 1.564 1.959a1.56 1.56 0 0 1-1.564 1.56c-.88 0-1.581-.262-1.581-1.56s.701-1.959 1.581-1.959z" fill="#9397ad"/></svg>