<svg xmlns="http://www.w3.org/2000/svg" width="100" height="55" fill="none" xmlns:v="https://vecta.io/nano"><path d="M45.72 27.952c0-2.367 1.922-4.289 4.289-4.289s4.289 1.922 4.289 4.289-1.922 4.289-4.289 4.289-4.289-1.922-4.289-4.289zm28.281 0c0 2.948-3.477 5.929-9.082 7.784l-.897.282c.111.436.205.863.29 1.282.521 2.649.607 5.109.239 7.109-.393 2.127-1.282 3.64-2.563 4.383-.641.376-1.401.564-2.247.564-2.324 0-5.272-1.401-8.347-4.05-.436-.376-.863-.769-1.299-1.188-.333.325-.666.632-1 .923-2.033 1.777-4.127 3.076-6.04 3.751-1 .359-1.94.538-2.777.538-.871 0-1.641-.188-2.29-.564-2.452-1.418-3.306-5.502-2.273-10.928.102-.555.231-1.128.376-1.709-.453-.128-.889-.265-1.307-.41-2.555-.872-4.725-2.034-6.271-3.358C26.872 30.96 26 29.43 26 27.952c0-2.837 3.11-5.613 8.33-7.425.572-.197 1.171-.384 1.786-.564a29.9 29.9 0 0 1-.359-1.589c-.504-2.58-.598-4.947-.273-6.852.359-2.076 1.205-3.554 2.461-4.281 2.546-1.478 6.878.043 11.287 3.964l.803.743c.401-.384.803-.752 1.196-1.102 1.982-1.726 3.99-2.99 5.801-3.657 1.974-.726 3.682-.726 4.93-.009 2.555 1.47 3.4 5.981 2.204 11.756-.068.35-.154.701-.239 1.06.53.154 1.042.316 1.538.487 2.486.854 4.579 1.965 6.066 3.195C73.146 25.03 74 26.508 74 27.952zM51.47 13.41c1.367 1.47 2.734 3.178 4.05 5.058 2.264.214 4.426.555 6.425 1.017.077-.325.154-.641.214-.957 1.119-5.442.154-8.775-1.222-9.569-.701-.402-1.837-.35-3.204.154-1.581.581-3.366 1.717-5.161 3.281-.367.316-.735.658-1.102 1.017zm-12.842 21.24c1.367.299 2.845.538 4.417.709-.513-.803-1.017-1.623-1.504-2.461a54.2 54.2 0 0 1-1.358-2.478 44.29 44.29 0 0 0-1.555 4.229zm2.913-11.543c.478-.82.965-1.632 1.47-2.418-1.521.188-2.982.444-4.357.743a45.25 45.25 0 0 0 1.529 4.161c.427-.829.88-1.658 1.358-2.486zm1.777 8.766c.743 1.282 1.529 2.529 2.35 3.717a70.87 70.87 0 0 0 4.34.137 61 61 0 0 0 4.392-.154c.777-1.171 1.546-2.409 2.307-3.717a61.52 61.52 0 0 0 2.068-3.887 66.13 66.13 0 0 0-2.068-3.845 62.03 62.03 0 0 0-2.315-3.7c-1.427-.111-2.896-.162-4.383-.162-1.469 0-2.939.06-4.374.171-.803 1.179-1.589 2.418-2.324 3.7-.735 1.273-1.418 2.572-2.042 3.87a58.33 58.33 0 0 0 2.051 3.87zm13.696 3.452a43.54 43.54 0 0 0 4.477-.761c-.427-1.341-.965-2.76-1.615-4.229-.436.846-.906 1.7-1.393 2.546l-1.47 2.444zm4.374-13.867c-1.384-.316-2.854-.572-4.383-.769.495.777.982 1.581 1.461 2.401.487.846.948 1.683 1.384 2.503.607-1.418 1.128-2.811 1.538-4.135zM47.181 18.28c.931-.043 1.871-.068 2.819-.068.965 0 1.914.026 2.862.068a43.75 43.75 0 0 0-2.828-3.409 43.25 43.25 0 0 0-2.854 3.409zm-9.407-.299c.094.487.205.974.333 1.478 1.991-.453 4.152-.786 6.416-1 1.316-1.854 2.691-3.554 4.084-5.058a16.68 16.68 0 0 0-.718-.658c-4.169-3.691-7.536-4.52-8.911-3.725-.701.402-1.222 1.418-1.47 2.854-.282 1.657-.197 3.776.265 6.109zm1.23 10.031c-.948-2.068-1.743-4.11-2.341-6.066-.572.162-1.119.333-1.649.521-4.802 1.675-6.955 3.964-6.955 5.494 0 1.589 2.315 4.092 7.39 5.827.385.128.778.256 1.188.376.607-1.991 1.401-4.058 2.367-6.152zm9.655 14.644c-1.41-1.504-2.794-3.221-4.118-5.092-2.341-.188-4.511-.504-6.459-.94-.137.547-.248 1.077-.35 1.589-.948 4.998-.034 8.006 1.282 8.766 1.375.795 4.699.043 8.74-3.494a36.89 36.89 0 0 0 .906-.829zm4.246-4.947c-.948.043-1.922.068-2.896.068a74.87 74.87 0 0 1-2.802-.051c.948 1.247 1.914 2.401 2.888 3.452.931-1.034 1.88-2.187 2.811-3.469zm9.407-.008a22.63 22.63 0 0 0-.265-1.171c-1.982.461-4.169.795-6.493 1-1.324 1.922-2.683 3.64-4.024 5.109.401.393.812.76 1.205 1.102 3.853 3.315 6.912 4.033 8.236 3.264 1.376-.786 2.384-4.041 1.342-9.304zm9.646-9.749c0-.812-.615-1.769-1.734-2.7-1.29-1.076-3.17-2.059-5.417-2.837l-1.427-.453c-.59 1.905-1.376 3.93-2.341 5.998 1.008 2.127 1.828 4.169 2.426 6.075l.812-.256c5.272-1.743 7.681-4.246 7.681-5.827z" fill="#9397ad"/></svg>