<svg width="60" height="60" viewBox="0 0 60 60" fill="none" xmlns="http://www.w3.org/2000/svg">
<g clip-path="url(#clip0_5426_12025)">
<path d="M35.3055 5.39062C32.2604 5.39062 29.2484 6.40549 26.824 8.24844L12.8146 18.8969H3.2428C1.45477 18.8969 0 20.3517 0 22.1397V38.026C0 39.814 1.45477 41.2688 3.2428 41.2688H12.9593L26.824 51.8079C29.2484 53.6504 32.2604 54.6652 35.3055 54.6652C36.828 54.6652 38.0663 53.427 38.0663 51.9049V8.15094C38.0663 6.62888 36.828 5.39062 35.3055 5.39062ZM36.2975 51.9049C36.2975 52.4519 35.8525 52.8964 35.3055 52.8964C32.645 52.8964 30.0128 52.0097 27.8943 50.3993L13.997 39.836V27.5514C13.997 27.063 13.6011 26.667 13.1126 26.667C12.6242 26.667 12.2282 27.063 12.2282 27.5514V39.5H3.2428C2.43027 39.5 1.7688 38.8385 1.7688 38.026V22.1397C1.7688 21.3272 2.43027 20.6657 3.2428 20.6657H12.2282V23.4242C12.2282 23.9127 12.6242 24.3086 13.1126 24.3086C13.6011 24.3086 13.997 23.9127 13.997 23.4242V20.2199L27.8943 9.65652C30.0128 8.04611 32.645 7.15942 35.3055 7.15942C35.8525 7.15942 36.2975 7.60437 36.2975 8.15094V51.9049Z" fill="#B4B7C9"/>
<path d="M56.5737 19.0393C55.6906 17.764 54.6593 16.5981 53.5085 15.5745C53.1436 15.2499 52.5847 15.2829 52.2597 15.6477C51.9351 16.013 51.9681 16.572 52.3329 16.8965C53.3789 17.8267 54.3164 18.8864 55.1194 20.0464C57.155 22.9871 58.2312 26.4386 58.2312 30.0279C58.2312 33.6177 57.1555 37.0693 55.1194 40.0099C53.1313 42.8819 50.3696 45.0774 47.1337 46.3582C45.9828 46.8141 45.1593 44.9835 46.3957 44.4942C52.3677 42.1303 56.2267 36.4517 56.2267 30.0279C56.2267 23.6046 52.3677 17.926 46.3957 15.5621C46.1467 15.4633 45.9513 15.2737 45.8451 15.0279C45.7384 14.7826 45.7343 14.5102 45.8327 14.2612C46.0364 13.7471 46.6201 13.4944 47.1337 13.6981C47.9045 14.0035 48.6594 14.3655 49.3767 14.7743C49.8006 15.0165 50.3408 14.8686 50.5829 14.4443C50.8251 14.0199 50.6772 13.4798 50.2529 13.2381C49.4637 12.7876 48.6333 12.3894 47.7851 12.0534C46.3642 11.4912 44.7505 12.1893 44.1884 13.6102C43.9156 14.2983 43.9279 15.0513 44.2218 15.7306C44.5157 16.4099 45.0568 16.9345 45.7448 17.2069C51.0379 19.3021 54.4579 24.3347 54.4579 30.0284C54.4579 35.7216 51.0379 40.7542 45.7448 42.8499C45.0568 43.1223 44.5157 43.6464 44.2218 44.3257C43.9275 45.005 43.9156 45.7581 44.1884 46.4465C44.6096 47.5108 45.6212 48.1979 46.7656 48.1979C47.1149 48.1979 47.4582 48.1325 47.7851 48.0029C51.3469 46.593 54.386 44.1769 56.5741 41.017C58.8153 37.7788 60 33.9789 60 30.0279C60 26.077 58.8153 22.2771 56.5737 19.0393Z" fill="#B4B7C9"/>
<path d="M49.1921 37.5335C48.8516 37.1833 48.2917 37.1755 47.9415 37.5161C46.3073 39.1045 44.2533 40.0956 42.0007 40.3821C40.6146 40.5584 40.5381 38.5474 41.7484 38.3931C45.9452 37.8599 49.1097 34.2637 49.1097 30.028C49.1097 25.7927 45.9452 22.1965 41.7484 21.6632C41.2 21.5932 40.8109 21.0906 40.8805 20.5422C40.9144 20.2767 41.0494 20.04 41.2614 19.8761C41.4729 19.7123 41.7352 19.6409 42.0011 19.6743C47.1967 20.3348 51.1143 24.7861 51.1143 30.028C51.1143 31.6961 50.7069 33.3587 49.9369 34.8368C49.7108 35.2698 49.8792 35.804 50.3123 36.0297C50.7453 36.2558 51.2795 36.0874 51.5052 35.6543C52.4065 33.9249 52.8831 31.9794 52.8831 30.028C52.8831 23.8976 48.3009 18.6919 42.2245 17.9197C41.4903 17.8258 40.7633 18.024 40.1779 18.4777C39.5928 18.9309 39.2193 19.585 39.1255 20.3193C39.0321 21.0535 39.2307 21.7804 39.6839 22.3655C40.1371 22.9505 40.7908 23.3245 41.5251 23.4174C44.8406 23.839 47.3405 26.6808 47.3405 30.028C47.3405 33.3751 44.8402 36.2169 41.5251 36.6381C40.0094 36.8308 38.9327 38.221 39.1255 39.7367C39.3008 41.1173 40.4818 42.1587 41.8725 42.1587C41.9897 42.1587 42.1082 42.1514 42.2241 42.1363C44.8594 41.8012 47.2627 40.6421 49.1738 38.7836C49.5245 38.4435 49.5323 37.8837 49.1921 37.5335Z" fill="#B4B7C9"/>
</g>
<defs>
<clipPath id="clip0_5426_12025">
<rect width="60" height="60" fill="white"/>
</clipPath>
</defs>
</svg>
