<svg width="60" height="60" viewBox="0 0 60 60" fill="none" xmlns="http://www.w3.org/2000/svg">
<path d="M10.0051 49.8581H25.551C27.6417 57.08 35.0488 61.3745 42.3546 59.6008C49.661 57.8267 54.2743 50.6141 52.8204 43.2372C51.3665 35.8607 44.3613 30.9379 36.9287 32.0688V7.97741C36.9269 6.32577 35.5885 4.98785 33.9373 4.98599H32.94V2.99141C32.9382 1.34024 31.5998 0.00185629 29.9486 0H27.954C26.3028 0.00185629 24.9645 1.34024 24.9626 2.99141V4.98599H18.9798V2.99141C18.9779 1.34024 17.6395 0.00185629 15.9884 0H13.9938C12.3426 0.00185629 11.0042 1.34024 11.0024 2.99141V4.98599H10.0051C8.35391 4.98785 7.01553 6.32577 7.01367 7.97741V46.8667C7.01553 48.5178 8.35391 49.8562 10.0051 49.8581ZM50.8889 45.8694C50.8889 52.4782 45.5317 57.8355 38.9228 57.8355C32.3144 57.8355 26.9572 52.4782 26.9572 45.8694C26.9572 39.261 32.3144 33.9037 38.9228 33.9037C45.5284 33.9107 50.8815 39.2638 50.8889 45.8694ZM26.9572 2.99141C26.9576 2.44102 27.4036 1.99505 27.954 1.99412H29.9486C30.499 1.99505 30.945 2.44102 30.9454 2.99141V4.98599H26.9572V2.99141ZM12.9965 2.99141C12.997 2.44102 13.4434 1.99505 13.9938 1.99412H15.9884C16.5388 1.99505 16.9847 2.44102 16.9852 2.99141V4.98599H12.9965V2.99141ZM9.00826 7.97741C9.00872 7.42702 9.45469 6.98058 10.0051 6.98011H33.9373C34.4877 6.98058 34.9337 7.42702 34.9341 7.97741V32.4976C28.2691 34.4295 24.0707 41.0045 25.1222 47.864H10.0051C9.45469 47.8635 9.00872 47.4171 9.00826 46.8667V7.97741Z" fill="#B4B7C9"/>
<path d="M15.8797 27.9205H18.9189L18.0548 42.2895C18.0135 42.9819 18.4534 43.6121 19.118 43.8112C19.7825 44.0103 20.4968 43.7268 20.843 43.1258L29.3902 28.1641C29.6548 27.7014 29.6529 27.1329 29.3856 26.6716C29.1183 26.2108 28.6259 25.9268 28.0927 25.9263H25.0294L25.8879 12.5541C25.9283 11.8677 25.4948 11.2426 24.8382 11.0389C24.1815 10.8347 23.4705 11.1052 23.1146 11.6937L14.6026 25.646C14.3209 26.1078 14.3107 26.6856 14.5752 27.1571C14.8402 27.6285 15.3386 27.9205 15.8797 27.9205ZM23.768 14.4517L22.9703 26.8596C22.9526 27.1348 23.0496 27.4049 23.2385 27.6058C23.4269 27.8068 23.69 27.9205 23.9657 27.9205H27.2328L20.1738 40.2773L20.9724 26.983C20.9887 26.7088 20.8912 26.4401 20.7028 26.24C20.5144 26.04 20.2522 25.9263 19.977 25.9263H16.7675L23.768 14.4517Z" fill="#B4B7C9"/>
<path d="M47.4537 48.8408C46.9576 48.6018 46.3617 48.8097 46.1223 49.3054C45.3301 50.9505 44.0029 52.2773 42.3577 53.069C42.0371 53.224 41.8231 53.5387 41.7971 53.8941C41.7711 54.2496 41.9368 54.5916 42.2315 54.7921C42.5262 54.9921 42.9058 55.02 43.2265 54.8645C45.2763 53.8765 46.9302 52.2221 47.9182 50.1718C48.1572 49.6762 47.9493 49.0803 47.4537 48.8408Z" fill="#B4B7C9"/>
<path d="M30.3924 42.8984C30.631 43.0135 30.9048 43.0292 31.1545 42.942C31.4041 42.8547 31.6092 42.6724 31.7239 42.4338C32.516 40.7887 33.8433 39.4619 35.4884 38.6697C35.8096 38.5147 36.023 38.2001 36.049 37.8451C36.075 37.4896 35.9093 37.1471 35.6147 36.9471C35.32 36.7466 34.9408 36.7193 34.6201 36.8743C32.5699 37.8623 30.9159 39.5167 29.9284 41.5669C29.6889 42.063 29.8968 42.6589 30.3924 42.8984Z" fill="#B4B7C9"/>
<path d="M35.9317 45.8694C35.928 47.3252 36.9754 48.5707 38.4103 48.8176C39.8447 49.064 41.2481 48.2399 41.7307 46.8667H46.9005C47.4513 46.8667 47.8978 46.4202 47.8978 45.8694C47.8978 45.3185 47.4513 44.8721 46.9005 44.8721H41.7307C41.43 44.0275 40.765 43.3629 39.9204 43.0617V37.892C39.9204 37.3416 39.4739 36.8951 38.9231 36.8951C38.3722 36.8951 37.9258 37.3416 37.9258 37.892V43.0617C36.7341 43.4817 35.9354 44.6057 35.9317 45.8694ZM38.9231 44.8721C39.4739 44.8721 39.9204 45.3185 39.9204 45.8694C39.9204 46.4202 39.4739 46.8667 38.9231 46.8667C38.3722 46.8667 37.9258 46.4202 37.9258 45.8694C37.9267 45.319 38.3727 44.873 38.9231 44.8721Z" fill="#B4B7C9"/>
<path d="M11.9998 11.9661C12.5502 11.9661 12.9966 11.5197 12.9966 10.9688V9.97153C12.9966 9.42114 12.5502 8.97424 11.9998 8.97424C11.449 8.97424 11.0025 9.42114 11.0025 9.97153V10.9688C11.0025 11.5197 11.449 11.9661 11.9998 11.9661Z" fill="#B4B7C9"/>
<path d="M11.9998 22.9349C12.5502 22.9349 12.9966 22.4885 12.9966 21.9376V14.9575C12.9966 14.4067 12.5502 13.9602 11.9998 13.9602C11.449 13.9602 11.0025 14.4067 11.0025 14.9575V21.9376C11.0025 22.4885 11.449 22.9349 11.9998 22.9349Z" fill="#B4B7C9"/>
</svg>
