<svg width="60" height="60" viewBox="0 0 60 60" fill="none" xmlns="http://www.w3.org/2000/svg">
<g clip-path="url(#clip0_5426_12019)">
<path d="M45.122 9.48579H16.0608C13.0108 9.48579 10.5272 11.9711 10.5272 15.0214V44.0827C10.5272 47.1338 13.0105 49.6191 16.0608 49.6191H45.122C48.1711 49.6191 50.6564 47.1338 50.6564 44.0827V15.0214C50.6576 11.9714 48.172 9.48579 45.122 9.48579ZM45.122 47.8307H16.0608C13.9961 47.8307 12.3139 46.1497 12.3139 44.0818V15.0214C12.3139 12.9567 13.9949 11.2724 16.0608 11.2724H45.122C47.1867 11.2724 48.8689 12.9558 48.8689 15.0214V44.0827C48.8689 46.1494 47.1879 47.8307 45.122 47.8307Z" fill="#B4B7C9"/>
<path d="M53.7476 18.1663H59.1019C59.5963 18.1663 59.9979 17.7647 59.9979 17.2724C59.9979 16.7803 59.5963 16.3785 59.1019 16.3785H53.7476C53.2555 16.3785 52.8536 16.78 52.8536 17.2724C52.8536 17.7645 53.2552 18.1663 53.7476 18.1663Z" fill="#B4B7C9"/>
<path d="M59.1019 21.2536H53.7476C53.2555 21.2536 52.8536 21.653 52.8536 22.1463C52.8536 22.6395 53.2552 23.0402 53.7476 23.0402H59.1019C59.5963 23.0402 59.9979 22.6395 59.9979 22.1463C59.9979 21.653 59.596 21.2536 59.1019 21.2536Z" fill="#B4B7C9"/>
<path d="M59.1019 26.2202H53.7476C53.2555 26.2202 52.8536 26.6197 52.8536 27.1163C52.8536 27.6083 53.2552 28.009 53.7476 28.009H59.1019C59.5963 28.009 59.9979 27.6095 59.9979 27.1163C59.9979 26.6206 59.596 26.2202 59.1019 26.2202Z" fill="#B4B7C9"/>
<path d="M59.1019 31.0929H53.7476C53.2555 31.0929 52.8536 31.4957 52.8536 31.991C52.8536 32.4831 53.2552 32.8816 53.7476 32.8816H59.1019C59.5963 32.8816 59.9979 32.4833 59.9979 31.991C59.9979 31.4957 59.596 31.0929 59.1019 31.0929Z" fill="#B4B7C9"/>
<path d="M59.1019 35.592H53.7476C53.2555 35.592 52.8536 35.9935 52.8536 36.4868C52.8536 36.9821 53.2552 37.3807 53.7476 37.3807H59.1019C59.5963 37.3807 59.9979 36.9824 59.9979 36.4868C59.9979 35.9935 59.596 35.592 59.1019 35.592Z" fill="#B4B7C9"/>
<path d="M59.1019 40.465H53.7476C53.2555 40.465 52.8536 40.8677 52.8536 41.3598C52.8536 41.8551 53.2552 42.2579 53.7476 42.2579H59.1019C59.5963 42.2579 59.9979 41.8551 59.9979 41.3598C59.9979 40.8674 59.596 40.465 59.1019 40.465Z" fill="#B4B7C9"/>
<path d="M6.24691 16.3776H0.895876C0.402626 16.3776 0.00195312 16.7792 0.00195312 17.2715C0.00195312 17.7636 0.402626 18.1655 0.895876 18.1655H6.24721C6.74254 18.1655 7.14322 17.7639 7.14322 17.2715C7.14292 16.7792 6.74254 16.3776 6.24691 16.3776Z" fill="#B4B7C9"/>
<path d="M6.24691 21.2536H0.895876C0.402626 21.2536 0.00195312 21.653 0.00195312 22.1463C0.00195312 22.6395 0.402626 23.0402 0.895876 23.0402H6.24721C6.74254 23.0402 7.14322 22.6395 7.14322 22.1463C7.14292 21.653 6.74254 21.2536 6.24691 21.2536Z" fill="#B4B7C9"/>
<path d="M6.24691 26.2202H0.895876C0.402626 26.2202 0.00195312 26.6197 0.00195312 27.1163C0.00195312 27.6083 0.402626 28.009 0.895876 28.009H6.24721C6.74254 28.009 7.14322 27.6095 7.14322 27.1163C7.14292 26.6206 6.74254 26.2202 6.24691 26.2202Z" fill="#B4B7C9"/>
<path d="M6.24691 31.0929H0.895876C0.402626 31.0929 0.00195312 31.4957 0.00195312 31.991C0.00195312 32.4831 0.402626 32.8816 0.895876 32.8816H6.24721C6.74254 32.8816 7.14322 32.4833 7.14322 31.991C7.14292 31.4957 6.74254 31.0929 6.24691 31.0929Z" fill="#B4B7C9"/>
<path d="M6.24691 35.592H0.895876C0.402626 35.592 0.00195312 35.9935 0.00195312 36.4868C0.00195312 36.9821 0.402626 37.3807 0.895876 37.3807H6.24721C6.74254 37.3807 7.14322 36.9824 7.14322 36.4868C7.14292 35.9935 6.74254 35.592 6.24691 35.592Z" fill="#B4B7C9"/>
<path d="M6.24691 40.465H0.895876C0.402626 40.465 0.00195312 40.8677 0.00195312 41.3598C0.00195312 41.8551 0.402626 42.2579 0.895876 42.2579H6.24721C6.74254 42.2579 7.14322 41.8551 7.14322 41.3598C7.14292 40.8674 6.74254 40.465 6.24691 40.465Z" fill="#B4B7C9"/>
<path d="M42.6359 52.8549C42.1427 52.8549 41.7411 53.2576 41.7411 53.753V59.1052C41.7411 59.5973 42.1427 60 42.6359 60C43.1292 60 43.5319 59.5973 43.5319 59.1052V53.753C43.5319 53.2573 43.1292 52.8549 42.6359 52.8549Z" fill="#B4B7C9"/>
<path d="M37.7609 52.8549C37.2698 52.8549 36.8682 53.2576 36.8682 53.753V59.1052C36.8682 59.5973 37.2698 60 37.7609 60C38.2563 60 38.6579 59.5973 38.6579 59.1052V53.753C38.6581 53.2573 38.2566 52.8549 37.7609 52.8549Z" fill="#B4B7C9"/>
<path d="M32.7962 52.8549C32.3018 52.8549 31.9002 53.2576 31.9002 53.753V59.1052C31.9002 59.5973 32.3018 60 32.7962 60C33.2895 60 33.689 59.5973 33.689 59.1052V53.753C33.689 53.2573 33.2895 52.8549 32.7962 52.8549Z" fill="#B4B7C9"/>
<path d="M27.9212 52.8549C27.4268 52.8549 27.0264 53.2576 27.0264 53.753V59.1052C27.0264 59.5973 27.4271 60 27.9212 60C28.4133 60 28.8151 59.5973 28.8151 59.1052V53.753C28.816 53.2573 28.4136 52.8549 27.9212 52.8549Z" fill="#B4B7C9"/>
<path d="M23.4248 52.8549C22.9294 52.8549 22.5288 53.2576 22.5288 53.753V59.1052C22.5288 59.5973 22.9282 60 23.4248 60C23.9159 60 24.3175 59.5973 24.3175 59.1052V53.753C24.3175 53.2573 23.9159 52.8549 23.4248 52.8549Z" fill="#B4B7C9"/>
<path d="M18.5497 52.8549C18.0553 52.8549 17.6537 53.2576 17.6537 53.753V59.1052C17.6537 59.5973 18.0553 60 18.5497 60C19.0418 60 19.4424 59.5973 19.4424 59.1052V53.753C19.4424 53.2573 19.0418 52.8549 18.5497 52.8549Z" fill="#B4B7C9"/>
<path d="M42.6359 7.14305C43.1292 7.14305 43.5319 6.74357 43.5319 6.24913V0.896007C43.5319 0.402756 43.1292 0 42.6359 0C42.1427 0 41.7411 0.401566 41.7411 0.896007V6.24823C41.7411 6.74267 42.1427 7.14305 42.6359 7.14305Z" fill="#B4B7C9"/>
<path d="M37.7609 7.14305C38.2563 7.14305 38.6579 6.74357 38.6579 6.24913V0.896007C38.6579 0.402756 38.2563 0 37.7609 0C37.2698 0 36.8682 0.401566 36.8682 0.896007V6.24823C36.8682 6.74267 37.2701 7.14305 37.7609 7.14305Z" fill="#B4B7C9"/>
<path d="M32.7962 7.14305C33.2895 7.14305 33.689 6.74357 33.689 6.24913V0.896007C33.689 0.402756 33.2895 0 32.7962 0C32.3018 0 31.9002 0.401566 31.9002 0.896007V6.24823C31.9002 6.74267 32.3018 7.14305 32.7962 7.14305Z" fill="#B4B7C9"/>
<path d="M27.9212 7.14305C28.4133 7.14305 28.8152 6.74357 28.8152 6.24913V0.896007C28.8152 0.402756 28.4136 0 27.9212 0C27.4268 0 27.0264 0.401566 27.0264 0.896007V6.24823C27.0264 6.74267 27.4271 7.14305 27.9212 7.14305Z" fill="#B4B7C9"/>
<path d="M23.4248 7.14305C23.9159 7.14305 24.3175 6.74357 24.3175 6.24913V0.896007C24.3175 0.402756 23.9159 0 23.4248 0C22.9294 0 22.5288 0.401566 22.5288 0.896007V6.24823C22.5288 6.74267 22.9294 7.14305 23.4248 7.14305Z" fill="#B4B7C9"/>
<path d="M18.5497 7.14305C19.0418 7.14305 19.4424 6.74357 19.4424 6.24913V0.896007C19.4424 0.402756 19.0429 0 18.5497 0C18.0553 0 17.6537 0.401566 17.6537 0.896007V6.24823C17.6537 6.74267 18.0553 7.14305 18.5497 7.14305Z" fill="#B4B7C9"/>
<path d="M18.8714 14.788C17.8965 14.788 17.1062 15.5807 17.1062 16.5532C17.1062 17.5257 17.8968 18.3164 18.8714 18.3164C19.843 18.3164 20.6357 17.5257 20.6357 16.5532C20.6345 15.5807 19.843 14.788 18.8714 14.788Z" fill="#B4B7C9"/>
<path d="M21.44 38.3247H39.9406V19.6481H21.44V38.3247ZM38.0146 21.572V36.3984H23.3642V21.572H38.0146Z" fill="#B4B7C9"/>
</g>
<defs>
<clipPath id="clip0_5426_12019">
<rect width="60" height="60" fill="white"/>
</clipPath>
</defs>
</svg>
