<svg width="60" height="60" viewBox="0 0 60 60" fill="none" xmlns="http://www.w3.org/2000/svg">
<g clip-path="url(#clip0_5426_11989)">
<path d="M29.9998 43.9877C35.6539 43.9877 36.8958 40.4555 36.9461 40.3054C37.0592 39.9663 36.9827 39.5934 36.7457 39.3257C36.5091 39.0584 36.1476 38.9381 35.7976 39.0095C35.4475 39.0813 35.1624 39.3339 35.0494 39.6725C35.0416 39.6963 34.1612 41.9885 29.9998 41.9885C25.8832 41.9885 24.9909 39.7796 24.9461 39.6593C24.7676 39.1367 24.1997 38.8576 23.6772 39.036C23.1546 39.214 22.8754 39.7824 23.0539 40.3049C23.1042 40.4555 24.3462 43.9877 29.9998 43.9877Z" fill="#B4B7C9"/>
<path d="M20.9493 42.6643C20.7727 42.1413 20.2057 41.8603 19.6822 42.0369C19.1592 42.2136 18.8787 42.781 19.0553 43.304C19.1322 43.536 21.0518 48.9856 29.9997 48.9856C38.948 48.9856 40.8676 43.536 40.9445 43.304C41.0575 42.9654 40.9811 42.592 40.7445 42.3248C40.5075 42.0575 40.146 41.9372 39.7959 42.0086C39.4459 42.0799 39.1608 42.333 39.0478 42.6716C39.0336 42.7151 37.523 46.9863 29.9997 46.9863C22.5838 46.9863 21.0179 42.8565 20.9493 42.6643Z" fill="#B4B7C9"/>
<path d="M16.9509 45.6657C16.7711 45.1481 16.2078 44.8717 15.6879 45.0465C15.1686 45.2213 14.8867 45.7819 15.056 46.3031C15.1608 46.6166 17.7572 53.9839 29.9993 53.9839C42.2419 53.9839 44.8383 46.6166 44.9427 46.3031C45.0557 45.9645 44.9793 45.5911 44.7427 45.3238C44.5057 45.0566 44.1442 44.9358 43.7941 45.0072C43.4445 45.079 43.159 45.3316 43.0459 45.6707C43.0249 45.7339 40.8165 51.9847 29.9993 51.9847C19.2911 51.9847 17.047 45.9407 16.9509 45.6657Z" fill="#B4B7C9"/>
<path d="M29.9996 28.9916C31.6561 28.9916 32.9987 27.649 32.9987 25.9925C32.9987 24.3364 31.6561 22.9938 29.9996 22.9938C28.3436 22.9938 27.001 24.3364 27.001 25.9925C27.0028 27.6481 28.3445 28.9897 29.9996 28.9916ZM29.9996 24.9931C30.5519 24.9931 30.9995 25.4406 30.9995 25.9925C30.9995 26.5448 30.5519 26.9923 29.9996 26.9923C29.4478 26.9923 29.0002 26.5448 29.0002 25.9925C29.0007 25.4411 29.4482 24.9935 29.9996 24.9931Z" fill="#B4B7C9"/>
<path d="M1.1935 15.5515C2.6354 16.5701 4.3761 17.078 6.13923 16.9938C7.10201 16.9874 8.06205 16.8908 9.00699 16.706V24.4934C9.00196 26.1201 10.1222 27.5346 11.7068 27.9025C13.2915 28.2704 14.9201 27.4943 15.6326 26.0314C19.7679 26.4231 24.4221 30.4998 24.8047 32.0772C25.0737 33.2001 26.0782 33.9913 27.2331 33.9899H32.766C33.9209 33.9913 34.9254 33.2001 35.1944 32.0772C35.5765 30.5003 40.2312 26.4231 44.3665 26.0314C45.0786 27.4943 46.7076 28.2704 48.2923 27.9025C49.8769 27.5346 50.9971 26.1201 50.9921 24.4934V16.706C51.9366 16.8908 52.8966 16.9874 53.8594 16.9943C55.6216 17.078 57.361 16.5714 58.8019 15.5547C59.9043 14.6578 60.2946 13.1477 59.7656 11.8289C59.7569 11.7996 59.7464 11.7708 59.735 11.7419C59.3607 10.7229 58.4047 10.0333 57.3198 9.99895H50.9921V9.4988C50.9921 7.56636 49.4253 6 47.4933 6C45.5609 6 43.9945 7.56636 43.9945 9.4988V9.99895H37.6659C36.5805 10.0328 35.6246 10.7229 35.2507 11.7424C35.2397 11.7689 35.2306 11.7959 35.2223 11.8239C34.6897 13.1427 35.0787 14.6541 36.181 15.5528C37.6229 16.5705 39.3636 17.078 41.1267 16.9943C42.0895 16.9874 43.0496 16.8908 43.9945 16.706V19.9947H37.9968C36.9562 19.9618 35.9376 19.6859 35.0219 19.1898C31.8631 17.5974 28.136 17.5974 24.9767 19.1898C24.0615 19.6859 23.0429 19.9618 22.0023 19.9947H16.0046V16.706C16.9495 16.8908 17.9096 16.9874 18.8728 16.9943C20.6346 17.0785 22.3739 16.5714 23.8149 15.5547C24.9177 14.6582 25.3085 13.1477 24.7781 11.8289C24.7694 11.7996 24.7594 11.7708 24.7484 11.7424C24.3745 10.7224 23.4181 10.0319 22.3323 9.9985H16.0046V9.4988C16.0046 7.56636 14.4382 6 12.5058 6C10.5734 6 9.00699 7.56636 9.00699 9.4988V9.9985H2.67933C1.5939 10.0319 0.637522 10.7224 0.263664 11.7419C0.253139 11.7685 0.24353 11.7955 0.235293 11.8234C-0.297352 13.1417 0.0911492 14.6532 1.1935 15.5515ZM12.5058 25.9925C11.678 25.9916 11.0072 25.3207 11.0062 24.4934V16.2182C11.5091 16.0749 12.0088 15.9157 12.5058 15.7414C13.0023 15.9166 13.5024 16.0754 14.0053 16.2182V24.4934C14.0044 25.3207 13.3336 25.9916 12.5058 25.9925ZM47.4933 25.9925C46.6655 25.9916 45.9947 25.3207 45.9938 24.4934V16.2186C46.4953 16.0754 46.995 15.9166 47.4928 15.7418C47.9907 15.918 48.4909 16.0768 48.9929 16.2191V24.4934C48.9919 25.3207 48.3211 25.9916 47.4933 25.9925ZM45.9938 9.4988C45.9938 8.67054 46.665 7.99925 47.4933 7.99925C48.3211 7.99925 48.9929 8.67054 48.9929 9.4988V9.9985H45.9938V9.4988ZM37.39 13.9604C36.9969 13.587 36.8807 13.0067 37.0999 12.5107C37.109 12.4887 37.1177 12.4659 37.125 12.4425C37.2065 12.2037 37.4156 12.0316 37.6659 11.9977H57.3198C57.5692 12.0316 57.7778 12.2032 57.8597 12.4412C57.868 12.4645 57.8767 12.4874 57.8858 12.5103C58.1055 13.0072 57.9883 13.5888 57.5934 13.9618C56.5359 14.7676 54.4264 15.5185 50.3716 14.5264C49.5131 14.315 48.6675 14.0551 47.8388 13.749C47.7921 13.738 47.745 13.7307 47.6974 13.727C47.5629 13.6845 47.4183 13.6849 47.2837 13.7279C47.238 13.7311 47.1922 13.7384 47.1474 13.749C46.3191 14.0551 45.4739 14.3146 44.6164 14.526C40.5607 15.5185 38.4502 14.7671 37.39 13.9604ZM22.0023 21.994C23.3248 21.9633 24.6225 21.6284 25.7944 21.0143C28.433 19.6547 31.5661 19.6547 34.2046 21.0143C35.3766 21.6284 36.6738 21.9633 37.9968 21.994H43.9945V24.0568C39.2844 24.6366 33.8688 29.0602 33.2519 31.6068C33.1979 31.8314 32.997 31.9902 32.766 31.9907H27.2331C27.0016 31.9902 26.8012 31.8314 26.7472 31.6068C26.1303 29.0602 20.7146 24.6371 16.0046 24.0568V21.994H22.0023ZM11.0062 9.4988C11.0062 8.67054 11.6775 7.99925 12.5058 7.99925C13.334 7.99925 14.0053 8.67054 14.0053 9.4988V9.9985H11.0062V9.4988ZM2.11373 12.5107C2.12243 12.4887 2.13112 12.4659 2.13844 12.4425C2.2199 12.2037 2.42948 12.0316 2.67933 11.9977H22.3323C22.5816 12.0316 22.7903 12.2027 22.8722 12.4402C22.88 12.464 22.8887 12.4878 22.8978 12.5103C23.118 13.0072 23.0008 13.5888 22.6054 13.9613C21.5488 14.7662 19.4389 15.5171 15.3845 14.526C14.5265 14.3136 13.6804 14.0542 12.8513 13.7481C12.8051 13.7375 12.7579 13.7302 12.7108 13.7265C12.5758 13.684 12.4312 13.6845 12.2962 13.7275C12.2505 13.7311 12.2051 13.738 12.1603 13.7481C11.3316 14.0542 10.4864 14.3132 9.62887 14.5251C5.5718 15.519 3.46228 14.7667 2.40248 13.9586C2.00986 13.5856 1.89409 13.0058 2.11373 12.5107Z" fill="#B4B7C9"/>
</g>
<defs>
<clipPath id="clip0_5426_11989">
<rect width="60" height="60" fill="white"/>
</clipPath>
</defs>
</svg>
