<svg width="60" height="60" viewBox="0 0 60 60" fill="none" xmlns="http://www.w3.org/2000/svg">
<path d="M49.7713 13.0689L46.8829 17.2269V23.4816H45.1345V17.8306H33.0696V24.0467C34.9585 25.1052 36.1504 27.1101 36.1504 29.3035C36.1504 32.626 33.4473 35.3291 30.1248 35.3291C26.8023 35.3291 24.0992 32.626 24.0992 29.3035C24.0992 27.1101 25.2911 25.1052 27.18 24.0467V17.8306H15.1149V29.6489C15.1149 37.9253 21.8483 44.6587 30.1247 44.6587C38.4011 44.6587 45.1345 37.9253 45.1345 29.6489V25.23H46.8829V29.6489C46.8829 38.8894 39.3652 46.4071 30.1247 46.4071C20.8842 46.4071 13.3665 38.8894 13.3665 29.6489V17.2268L10.478 13.0689V8.32375H7.76328V0H52.4861V8.32375H49.7713V13.0689ZM25.8475 29.3034C25.8475 31.6618 27.7663 33.5806 30.1247 33.5806C32.4831 33.5806 34.4018 31.6618 34.4018 29.3034C34.4018 27.6074 33.3977 26.07 31.8435 25.3868L31.3212 25.1572V17.8308H28.9283V25.1572L28.406 25.3868C26.8517 26.0701 25.8475 27.6074 25.8475 29.3034ZM50.7377 6.5753V1.74844H9.51172V6.5753H17.0627V8.32375H12.2265V12.5212L14.7002 16.0822H45.5492L48.0229 12.5212V8.32375H18.8111V6.5753H50.7377Z" fill="#B4B7C9"/>
<path d="M29.2504 59.9999H30.9988V50.8929H29.2504V59.9999Z" fill="#B4B7C9"/>
<path d="M39.0105 48.9028L43.646 56.744L45.1515 55.8541L40.516 48.0129L39.0105 48.9028Z" fill="#B4B7C9"/>
<path d="M46.6477 42.9529L54.1792 48.0711L55.1618 46.6251L47.6303 41.507L46.6477 42.9529Z" fill="#B4B7C9"/>
<path d="M14.8504 55.8365L16.3559 56.7266L20.9914 48.8854L19.4859 47.9954L14.8504 55.8365Z" fill="#B4B7C9"/>
<path d="M4.83398 46.6425L5.81661 48.0885L13.3481 42.9703L12.3655 41.5243L4.83398 46.6425Z" fill="#B4B7C9"/>
<path d="M43.3858 29.6488H41.6374C41.6374 33.6065 39.6352 37.2417 36.2816 39.3732L37.2196 40.8487C41.0806 38.3947 43.3858 34.2078 43.3858 29.6488ZM34.8531 40.1454C34.361 40.368 33.8488 40.5573 33.3304 40.7078L33.8181 42.3869C34.4159 42.2133 35.0066 41.9951 35.5739 41.7383L34.8531 40.1454ZM31.7444 41.0483C31.2116 41.1236 30.6665 41.1618 30.1246 41.1618V42.9103C30.7482 42.9103 31.3754 42.8663 31.9891 42.7796L31.7444 41.0483Z" fill="#B4B7C9"/>
</svg>
