<svg width="60" height="60" viewBox="0 0 60 60" fill="none" xmlns="http://www.w3.org/2000/svg">
<path d="M57.3633 4.51196H2.63671C1.18289 4.51196 0 5.69473 0 7.14867V9.78538H1.75781V7.14867C1.75781 6.6641 2.15202 6.26977 2.63671 6.26977H57.3633C57.848 6.26977 58.2422 6.66398 58.2422 7.14867V36.1525H1.75781V11.5431H0V42.3047C0 43.7586 1.18289 44.9414 2.63671 44.9414H26.4844V47.3705L25.0624 50.2147H14.1796C12.7258 50.2147 11.5429 51.3974 11.5429 52.8514V55.4881H37.9102V53.7303H13.3007V52.8514C13.3007 52.3668 13.6949 51.9725 14.1796 51.9725H45.8204C46.3051 51.9725 46.6993 52.3668 46.6993 52.8514V53.7303H43.1837V55.4881H48.4571V52.8514C48.4571 51.3974 47.2742 50.2147 45.8204 50.2147H34.9376L33.5156 47.3705V44.9414H57.3633C58.8171 44.9414 60 43.7586 60 42.3047V7.14855C60 5.69473 58.8171 4.51196 57.3633 4.51196ZM32.9723 50.2147H27.0275L28.2421 47.7855V44.9414H31.7577V47.7855L32.9723 50.2147ZM57.3633 43.1836H2.63671C2.15202 43.1836 1.75781 42.7892 1.75781 42.3047V37.9101H58.2422V42.3047C58.2422 42.7893 57.848 43.1836 57.3633 43.1836Z" fill="#B4B7C9"/>
<path d="M39.6678 53.7302H41.4257V55.4881H39.6678V53.7302Z" fill="#B4B7C9"/>
<path d="M54.7267 8.02744H56.4846V9.78525H54.7267V8.02744Z" fill="#B4B7C9"/>
<path d="M54.7267 11.543H56.4846V13.3009H54.7267V11.543Z" fill="#B4B7C9"/>
<path d="M29.1211 39.668H30.8789V41.4258H29.1211V39.668Z" fill="#B4B7C9"/>
<path d="M22.8932 13.0989L17.3183 25.5688H25.4888V29.3235H27.2466V25.5688H29.1198V23.811H27.2466V13.0989H22.8932ZM25.4888 23.811H20.0296L24.0329 14.8567H25.4888V23.811Z" fill="#B4B7C9"/>
<path d="M32.1511 13.0988V29.3234H33.9089V22.5103L41.3481 29.6873L42.5685 28.4222L34.775 20.9033L42.054 14.2126L40.8644 12.9185L33.9089 19.3118V13.0988H32.1511Z" fill="#B4B7C9"/>
</svg>
