<svg width="60" height="60" viewBox="0 0 60 60" fill="none" xmlns="http://www.w3.org/2000/svg">
<path d="M32.6454 34.1029V18.6259C32.6454 18.1339 32.2467 17.7351 31.7542 17.7351C31.2621 17.7351 30.8633 18.1339 30.8633 18.6259V34.5529C30.8633 34.8413 31.0025 35.1114 31.2373 35.2785C34.5648 37.6492 36.5511 41.4999 36.5511 45.5795C36.5511 52.5481 30.8817 58.2179 23.9127 58.2179C16.9441 58.2179 11.2743 52.5481 11.2743 45.5795C11.2743 41.4999 13.261 37.6492 16.5884 35.2785C16.8228 35.1114 16.9624 34.8413 16.9624 34.5529V8.73276C16.9624 4.90036 20.0803 1.78207 23.9127 1.78207C27.7451 1.78207 30.8633 4.90036 30.8633 8.73276V15.0613C30.8633 15.5534 31.2621 15.9526 31.7542 15.9526C32.2467 15.9526 32.6454 15.5534 32.6454 15.0613V8.73276C32.6454 3.91754 28.7279 0 23.9127 0C19.0974 0 15.1799 3.91754 15.1799 8.73276V34.1029C11.6103 36.8243 9.49219 41.0802 9.49219 45.5795C9.49219 53.5309 15.9613 60 23.9127 60C31.8645 60 38.3336 53.5309 38.3336 45.5795C38.3336 41.0797 36.2155 36.8243 32.6454 34.1029Z" fill="#B4B7C9"/>
<path d="M23.9127 53.4654C22.2876 53.4654 20.7262 52.9729 19.3969 52.0409C18.994 51.758 18.4378 51.8555 18.1554 52.2588C17.873 52.6616 17.9705 53.2173 18.3738 53.4998C20.0043 54.6433 21.9196 55.2475 23.9127 55.2475C29.2438 55.2475 33.5811 50.9106 33.5811 45.5795C33.5811 42.4585 32.0604 39.5123 29.5139 37.6978L27.893 36.5433V8.73276C27.893 6.53778 26.1077 4.75251 23.9127 4.75251C21.7182 4.75251 19.9324 6.53778 19.9324 8.73276V36.5433L18.312 37.6978C15.765 39.5123 14.2447 42.4585 14.2447 45.5795C14.2447 47.514 14.8165 49.3822 15.8986 50.9825C16.1742 51.3899 16.7281 51.497 17.136 51.2215C17.5438 50.9459 17.6505 50.392 17.3749 49.9841C16.4933 48.68 16.0268 47.1565 16.0268 45.5795C16.0268 43.0335 17.2678 40.6297 19.346 39.1493L21.3405 37.728C21.5754 37.5609 21.715 37.2903 21.715 37.0024V33.5619H26.1109V37.0024C26.1109 37.2903 26.25 37.5609 26.4849 37.728L28.4798 39.1493C30.5581 40.6297 31.7986 43.0335 31.7986 45.5795C31.7986 49.9278 28.261 53.4654 23.9127 53.4654ZM26.1109 18.1627H21.715V13.1364H26.1109V18.1627ZM21.715 19.9448H26.1109V24.971H21.715V19.9448ZM23.9127 6.53458C25.1249 6.53458 26.1109 7.5206 26.1109 8.73276V11.3544H21.715V8.73276C21.715 7.5206 22.701 6.53458 23.9127 6.53458ZM21.715 31.7798V26.7535H26.1109V31.7798H21.715Z" fill="#B4B7C9"/>
<path d="M49.519 19.9287C48.8974 19.9287 48.5577 20.1672 48.5111 20.6355C48.3769 21.6861 48.1746 23.2727 45.7004 23.2727C43.6725 23.2727 42.6865 22.2427 42.6865 20.1237V13.3223C42.6865 11.2326 43.678 10.1729 45.6326 10.1729C47.9063 10.1729 48.4529 11.5553 48.5111 12.7153C48.5362 13.174 48.8947 13.4267 49.519 13.4267C50.1576 13.4267 50.5275 13.2472 50.5275 12.328C50.5275 9.97787 48.4959 8.33679 45.5873 8.33679C42.4622 8.33679 40.6696 10.1541 40.6696 13.3223V20.1237C40.6696 21.8266 41.1562 23.1235 42.1161 23.9781C42.9465 24.7179 44.139 25.1088 45.5649 25.1088C48.4868 25.1088 50.5275 23.4398 50.5275 21.0498C50.5275 20.1164 50.1416 19.9287 49.519 19.9287Z" fill="#B4B7C9"/>
<path d="M41.9298 5.79437C41.9298 4.18945 40.6238 2.88346 39.0189 2.88346C37.4135 2.88346 36.108 4.18945 36.108 5.79437C36.108 7.39929 37.4135 8.70529 39.0189 8.70529C40.6238 8.70529 41.9298 7.39929 41.9298 5.79437ZM39.0189 6.92322C38.3963 6.92322 37.89 6.41647 37.89 5.79437C37.89 5.17181 38.3963 4.66553 39.0189 4.66553C39.641 4.66553 40.1473 5.17181 40.1473 5.79437C40.1473 6.41647 39.641 6.92322 39.0189 6.92322Z" fill="#B4B7C9"/>
</svg>
