<svg width="60" height="60" viewBox="0 0 60 60" fill="none" xmlns="http://www.w3.org/2000/svg">
<g clip-path="url(#clip0_5426_12013)">
<path d="M30 0.9375C13.9744 0.9375 0.9375 13.9744 0.9375 30C0.9375 46.0256 13.9744 59.0625 30 59.0625C46.0256 59.0625 59.0625 46.0256 59.0625 30C59.0625 13.9744 46.0256 0.9375 30 0.9375ZM30 57.1875C15.0094 57.1875 2.8125 44.9906 2.8125 30C2.8125 15.0094 15.0094 2.8125 30 2.8125C44.9906 2.8125 57.1875 15.0094 57.1875 30C57.1875 44.9906 44.9906 57.1875 30 57.1875Z" fill="#B4B7C9"/>
<path d="M30 6.5625C17.0766 6.5625 6.5625 17.0766 6.5625 30C6.5625 42.9234 17.0766 53.4375 30 53.4375C42.9234 53.4375 53.4375 42.9234 53.4375 30C53.4375 17.0766 42.9234 6.5625 30 6.5625ZM30 51.5625C18.1097 51.5625 8.4375 41.8903 8.4375 30C8.4375 18.1097 18.1097 8.4375 30 8.4375C41.8903 8.4375 51.5625 18.1097 51.5625 30C51.5625 41.8903 41.8903 51.5625 30 51.5625Z" fill="#B4B7C9"/>
<path d="M43.125 15.9375H16.875C16.3566 15.9375 15.9375 16.3566 15.9375 16.875V43.125C15.9375 43.6434 16.3566 44.0625 16.875 44.0625H43.125C43.6434 44.0625 44.0625 43.6434 44.0625 43.125V16.875C44.0625 16.3566 43.6434 15.9375 43.125 15.9375ZM38.4375 37.1119V31.875H36.5625V36.5625H31.875V38.4375H37.1119L40.8619 42.1875H19.1381L22.8881 38.4375H28.125V36.5625H23.4375V31.875H21.5625V37.1119L17.8125 40.8619V19.1381L21.5625 22.8881V28.125H23.4375V23.4375H28.125V21.5625H22.8881L19.1381 17.8125H40.8619L37.1119 21.5625H31.875V23.4375H36.5625V28.125H38.4375V22.8881L42.1875 19.1381V40.8619L38.4375 37.1119Z" fill="#B4B7C9"/>
<path d="M30.9375 25.3125H29.0625V29.0625H25.3125V30.9375H29.0625V34.6875H30.9375V30.9375H34.6875V29.0625H30.9375V25.3125Z" fill="#B4B7C9"/>
<path d="M58.125 0.9375H48.75V2.8125H57.1875V10.3125H59.0625V1.875C59.0625 1.35656 58.6434 0.9375 58.125 0.9375Z" fill="#B4B7C9"/>
<path d="M2.8125 2.8125H11.25V0.9375H1.875C1.35656 0.9375 0.9375 1.35656 0.9375 1.875V10.3125H2.8125V2.8125Z" fill="#B4B7C9"/>
<path d="M57.1875 57.1875H48.75V59.0625H58.125C58.6434 59.0625 59.0625 58.6434 59.0625 58.125V49.6875H57.1875V57.1875Z" fill="#B4B7C9"/>
<path d="M2.8125 49.6875H0.9375V58.125C0.9375 58.6434 1.35656 59.0625 1.875 59.0625H11.25V57.1875H2.8125V49.6875Z" fill="#B4B7C9"/>
</g>
<defs>
<clipPath id="clip0_5426_12013">
<rect width="60" height="60" fill="white"/>
</clipPath>
</defs>
</svg>
