<svg xmlns="http://www.w3.org/2000/svg" xmlns:xlink="http://www.w3.org/1999/xlink" width="288" height="132" fill="none" xmlns:v="https://vecta.io/nano"><path d="M0 2a2 2 0 0 1 2-2h87a2 2 0 0 1 2 2v8a2 2 0 0 1-2 2H2a2 2 0 0 1-2-2V2z" fill="url(#A)"/><rect x="244" width="12" height="12" rx="2" fill="url(#B)"/><rect x="260" width="12" height="12" rx="2" fill="url(#C)"/><rect x="276" width="12" height="12" rx="2" fill="url(#D)"/><rect y="28" width="288" height="48" rx="2" fill="url(#E)"/><rect y="92" width="91" height="40" rx="2" fill="url(#F)"/><rect x="99" y="92" width="90" height="40" rx="2" fill="url(#G)"/><rect x="197" y="92" width="91" height="40" rx="2" fill="url(#H)"/><defs><linearGradient id="A" x1="0" y1="12" x2="91" y2="12" xlink:href="#I"><stop stop-color="#6366f1" stop-opacity=".4"/></linearGradient><linearGradient id="B" x1="244" y1="12" x2="256" y2="12" xlink:href="#I"><stop stop-color="#6366f1" stop-opacity=".4"/></linearGradient><linearGradient id="C" x1="260" y1="12" x2="272" y2="12" xlink:href="#I"><stop stop-color="#6366f1" stop-opacity=".4"/></linearGradient><linearGradient id="D" x1="276" y1="12" x2="288" y2="12" xlink:href="#I"><stop stop-color="#6366f1" stop-opacity=".4"/></linearGradient><linearGradient id="E" x1="0" y1="76" x2="288" y2="76" xlink:href="#I"><stop stop-color="#6366f1" stop-opacity=".4"/></linearGradient><linearGradient id="F" x1="0" y1="132" x2="91" y2="132" xlink:href="#I"><stop stop-color="#6366f1" stop-opacity=".4"/></linearGradient><linearGradient id="G" x1="99" y1="132" x2="189" y2="132" xlink:href="#I"><stop stop-color="#6366f1" stop-opacity=".4"/></linearGradient><linearGradient id="H" x1="197" y1="132" x2="288" y2="132" xlink:href="#I"><stop stop-color="#6366f1" stop-opacity=".4"/></linearGradient><linearGradient id="I" gradientUnits="userSpaceOnUse"/></defs></svg>