<svg xmlns="http://www.w3.org/2000/svg" xmlns:xlink="http://www.w3.org/1999/xlink" width="636" height="636" fill="none" xmlns:v="https://vecta.io/nano"><style><![CDATA[.B{fill:#fff}.C{fill:#f6f7fb}.D{fill:#dbe1f2}.E{fill:#edf0f8}.F{fill:#6366f1}]]></style><g clip-path="url(#A)"><g clip-path="url(#B)"><path d="M427.192 705.999l-221.26-.994c-26.61-.112-48.08-21.709-47.931-48.243l2.396-552.919c.116-26.534 21.784-47.971 48.411-47.842l221.26.994c26.61.112 48.08 21.709 47.931 48.243l-2.413 552.919c-.099 26.534-21.767 47.971-48.394 47.842z" fill="#1c1f2c"/><g class="D"><path d="M460.462 561.092a4.63 4.63 0 0 1-.822 2.629c-.537.778-1.299 1.385-2.191 1.742a5.02 5.02 0 0 1-2.82.267c-.946-.184-1.815-.636-2.496-1.299s-1.144-1.508-1.33-2.426a4.59 4.59 0 0 1 .284-2.734c.371-.864.999-1.602 1.803-2.12a4.99 4.99 0 0 1 2.713-.789c1.29.004 2.526.505 3.437 1.391s1.422 2.087 1.422 3.339z"/><path d="M455.603 571.465c-.572-3.435-.572-6.937 0-10.373a31.51 31.51 0 0 1 0 10.373z"/></g><path d="M434.48 75.24l-44.245-.16c-1.444.025-2.868.326-4.191.885s-2.521 1.366-3.523 2.374-1.79 2.198-2.319 3.501a10.39 10.39 0 0 0-.76 4.095v7.776c.044 2.822-1.067 5.546-3.09 7.576s-4.793 3.196-7.703 3.247l-86.259-.385c-2.914-.08-5.677-1.277-7.681-3.33s-3.088-4.794-3.013-7.621v-7.776c.04-1.4-.205-2.794-.722-4.103a10.61 10.61 0 0 0-2.286-3.522 11 11 0 0 0-3.501-2.405 11.28 11.28 0 0 0-4.184-.921h-15.57l-38.758-.241a35.74 35.74 0 0 0-13.348 2.515c-4.236 1.681-8.088 4.157-11.337 7.284s-5.829 6.845-7.594 10.941-2.681 8.489-2.694 12.93l-2.364 541.743a32.9 32.9 0 0 0 2.593 12.948 33.71 33.71 0 0 0 7.509 10.998c3.224 3.151 7.056 5.654 11.279 7.367s8.751 2.6 13.328 2.613l227.772 1.026a35.77 35.77 0 0 0 13.346-2.519 34.92 34.92 0 0 0 11.334-7.285 33.73 33.73 0 0 0 7.595-10.939c1.767-4.095 2.683-8.487 2.699-12.926l2.347-541.76c.035-8.955-3.596-17.558-10.094-23.919s-15.334-9.96-24.566-10.007z" class="B"/><path d="M184.496 502.748c1.951-1.411 97.201-42.119 97.201-42.119l-111.266-53.84-.38 86.756 14.445 9.203z" class="E"/><path opacity=".3" d="M190.312 405.122l81.169-40.019-87.218-46.913-13.454 3.271-.33 75.901 19.833 7.76z" class="F"/><g class="E"><path d="M173.736 312.739l250.185-113.354-247.871-78.579-2.314 191.933zm-2.91 295.202l114.324-56.918 170.189 97.129-40.543 34.487H269.564l-98.738-58.537v-16.161zm136.836-63.075l141.381 81.32 15.767-1.731v-78.194l-77.483-39.778-79.665 38.383zm23.238-77.648l133.299 72.742v-95.092l-48.229-20.042-85.07 42.392zm-142.373 40.083l78.194 41.622 94.904-47.683-75.401-37.196-97.697 43.257zm117.381-142.727l110.771 53.246 51.369-25.445.33-35.689-74.822-35.225-87.648 43.113zm-113.281 46.448l110.771 53.246 51.369-25.445.33-35.689-74.839-35.225-87.631 43.113zm15.338-95.702l90.276 43.851 84.193-43.851-87.234-38.607-87.235 38.607z"/></g><path d="M382.434 595.547c-.573-.222-1.126-.49-1.653-.802l-4.661-2.549-17.932-10.053-66.377-37.758-1.372-.785 1.422-.706 87.086-42.936v1.956l-65.021-33.67-2.05-1.058 2.066-1.058 90.309-45.983v2.228l-10.776-5.291-202.303-99.565-1.901-.93 1.934-.898 107.432-49.703 29.751-13.612 7.834-3.495 2.033-.866c.227-.104.466-.184.711-.24a2.71 2.71 0 0 1-.645.384l-1.95.995-7.752 3.896-29.552 14.125-106.953 50.456v-1.892l202.518 99.133 10.776 5.291 2.231 1.106-2.214 1.122-90.375 45.887v-2.116l64.938 33.798 1.917.994-1.934.946-87.35 42.52v-1.492l65.98 38.48 17.685 10.437 4.545 2.758a9.47 9.47 0 0 1 1.603.946z" class="F"/><path d="M336.635 371.34l-.397-18.887 50.758 23.841v19.625l-50.361-24.579z" class="C"/><path d="M386.996 376.294l63.038-30.383v21.148l-63.038 28.86v-19.625z" class="D"/><path d="M336.238 352.453l61.865-30.014 51.93 23.472-63.037 30.383-50.758-23.841z" class="C"/><g class="B"><path d="M342.867 360.614v9.155l4.959 2.164v-8.754l-4.959-2.565zm7.934 3.383v9.171l4.975 2.164v-8.754l-4.975-2.581z"/></g><path d="M176.941 252.166v-24.579l60.08 28.234v23.216l-60.08-26.871z" class="D"/><path d="M237.021 255.821l74.641-35.978v25.044l-74.641 34.15v-23.216z" class="C"/><g class="B"><path d="M176.941 227.587l73.219-35.513 61.501 27.769-74.64 35.978-60.08-28.234zm7.852 9.652v10.855l5.867 2.565v-10.374l-5.867-3.046zm9.387 4.024v10.839l5.884 2.581v-10.374l-5.884-3.046z"/></g><g class="D"><path d="M358.057 457.614v19.368l21.486 10.245v-20.009l-21.486-9.604z"/><path d="M406.813 454.536l-27.354 12.682v20.009l27.354-14.814v-17.877z"/></g><path d="M358.057 457.614l27.106-12.746 21.651 9.668-27.354 12.682-21.403-9.604z" class="C"/><path d="M365.658 471.515v9.155l4.959 2.18v-8.754l-4.959-2.581z" class="B"/><g class="D"><path d="M185.09 447.594v19.368l21.404 10.245v-20.01l-21.404-9.603z"/><path d="M233.864 444.515l-27.37 12.682v20.01l27.37-14.815v-17.877z"/></g><path d="M185.09 447.594l27.122-12.747 21.652 9.668-27.37 12.682-21.404-9.603z" class="C"/><path d="M192.693 461.494v9.155l4.959 2.181v-8.754l-4.959-2.582z" class="B"/><path d="M273.863 319.745v19.384l21.404 10.246v-20.01l-21.404-9.62z" class="C"/><path d="M322.636 316.683l-27.37 12.682v20.01l27.37-14.815v-17.877z" class="D"/><path d="M273.863 319.745l27.123-12.73 21.651 9.668-27.37 12.682-21.404-9.62z" class="C"/><g class="D"><path d="M281.465 333.662v9.155l4.958 2.181v-8.77l-4.958-2.566zm-31.403 152.074v19.384l21.404 10.23v-19.994l-21.404-9.62z"/></g><path d="M298.836 482.658l-27.354 12.698v19.993l27.354-14.798v-17.893z" class="E"/><path d="M250.062 485.736l27.123-12.73 21.652 9.652-27.354 12.698-21.421-9.62z" class="C"/><path d="M257.664 499.637v9.171l4.958 2.164v-8.754l-4.958-2.581z" class="B"/><path d="M338.453 532.537v24.29l45.072 25.765v-25.075l-45.072-24.98z" class="C"/><path d="M417.886 539.592l-34.312 17.925v25.075l34.312-18.566v-24.434z" class="D"/><g class="B"><path d="M338.453 532.521l34.015-15.969 45.419 23.039-34.312 17.925-45.122-24.995zm17.041 22.478v11.48l6.231 3.624v-11.352l-6.231-3.752z"/></g><path d="M229.914 582.528v24.291l45.121 25.781v-25.092l-45.121-24.98z" class="D"/><path d="M328.883 579.209l-53.848 28.299V632.6l53.997-29.036-.149-24.355z" class="B"/><path d="M229.914 582.528l56.956-26.759 42.162 23.537-53.997 28.202-45.121-24.98z" class="C"/><path d="M246.953 604.991v11.496l6.215 3.623v-11.367l-6.215-3.752z" class="B"/><path d="M400.715 491.701v97.016l28.164 14.125v-98.235l-28.164-12.906z" class="C"/><path d="M421.524 482.401l-20.809 9.3 28.164 12.906 18.941-10.357-26.296-11.849z" class="B"/><path d="M428.879 504.607v98.235l17.139-8.946 1.802-99.646-18.941 10.357z" class="D"/><path d="M281.695 413.122v97.017l28.164 14.125v-98.235l-28.164-12.907z" class="C"/><path d="M302.488 403.807l-20.793 9.315 28.164 12.907 18.941-10.357-26.312-11.865z" class="B"/><g class="D"><path d="M309.859 426.029v98.235l17.123-8.193 1.818-100.399-18.941 10.357zm-15.386 171.586v24.291l45.138 25.781v-25.076l-45.138-24.996z"/></g><path d="M373.907 604.686l-34.296 17.925v25.076l34.296-18.566v-24.435z" class="B"/><path d="M294.473 597.616l34.411-18.407 45.022 25.477-34.295 17.925-45.138-24.995z" class="C"/><path d="M311.514 620.078v11.496l6.231 3.623V623.83l-6.231-3.752z" class="B"/><path d="M394.83 308.009l-82.178-35.93 114.44-56.501 37.552 54.32-69.814 38.111z" class="E"/><path opacity=".3" d="M467.984 341.005l.561-62.208-63.715 35.176 63.154 27.032z" class="F"/><g class="D"><path d="M419.573 403.31a4.64 4.64 0 0 1-.861 2.606 4.85 4.85 0 0 1-2.205 1.706 5.02 5.02 0 0 1-2.811.237c-.94-.192-1.801-.648-2.474-1.313s-1.13-1.507-1.312-2.422-.08-1.862.291-2.722.996-1.594 1.796-2.11 1.74-.792 2.7-.792c1.301.021 2.541.537 3.453 1.437s1.423 2.111 1.423 3.373z"/><use xlink:href="#C"/><path d="M286.573 391.718c0 .951-.291 1.881-.836 2.672s-1.319 1.408-2.225 1.772-1.903.459-2.865.274-1.845-.644-2.538-1.317a4.76 4.76 0 0 1-1.357-2.463c-.192-.933-.094-1.9.282-2.779s1.011-1.63 1.826-2.158 1.774-.811 2.755-.811a5 5 0 0 1 1.91.344c.607.238 1.158.592 1.621 1.041s.827.983 1.072 1.572a4.59 4.59 0 0 1 .355 1.853z"/><path d="M281.697 402.156a31.52 31.52 0 0 1 0-10.374 31.52 31.52 0 0 1 0 10.374zm-60.278 55.587c0 .935-.285 1.849-.821 2.627s-1.297 1.384-2.188 1.742a5.01 5.01 0 0 1-2.817.269c-.946-.182-1.815-.633-2.497-1.294s-1.146-1.504-1.334-2.422-.092-1.868.277-2.732a4.76 4.76 0 0 1 1.796-2.123 4.98 4.98 0 0 1 2.709-.797 4.95 4.95 0 0 1 3.447 1.385c.915.887 1.428 2.09 1.428 3.345z"/><path d="M216.592 468.116a31.52 31.52 0 0 1 0-10.374 31.52 31.52 0 0 1 0 10.374zm9.702-61.327c0 .932-.284 1.844-.816 2.619a4.85 4.85 0 0 1-2.175 1.743 5.02 5.02 0 0 1-2.806.282 4.93 4.93 0 0 1-2.497-1.272c-.685-.653-1.156-1.489-1.353-2.401s-.113-1.86.244-2.726a4.76 4.76 0 0 1 1.759-2.139c.791-.529 1.725-.82 2.686-.835a5 5 0 0 1 1.891.336c.601.233 1.149.58 1.61 1.02a4.74 4.74 0 0 1 1.079 1.545 4.59 4.59 0 0 1 .378 1.828z"/><path d="M221.418 417.163a31.52 31.52 0 0 1 0-10.374 31.52 31.52 0 0 1 0 10.374zm125.201-15.007c.02.958-.257 1.901-.793 2.706a4.92 4.92 0 0 1-2.218 1.813c-.909.376-1.913.481-2.883.3a5.01 5.01 0 0 1-2.564-1.317c-.7-.677-1.175-1.541-1.365-2.482s-.086-1.915.299-2.798a4.85 4.85 0 0 1 1.861-2.158 5.07 5.07 0 0 1 2.787-.778c1.29 0 2.528.496 3.442 1.38s1.43 2.082 1.434 3.334z"/><use xlink:href="#D"/><path d="M423.623 437.541a4.63 4.63 0 0 1-.822 2.628c-.536.777-1.297 1.384-2.188 1.742a5.02 5.02 0 0 1-2.817.269c-.946-.183-1.815-.633-2.497-1.295s-1.146-1.504-1.334-2.421a4.6 4.6 0 0 1 .277-2.733c.369-.864.994-1.603 1.796-2.123s1.745-.797 2.709-.797c1.293 0 2.533.498 3.448 1.385a4.66 4.66 0 0 1 1.428 3.345z"/><path d="M418.746 447.914a31.51 31.51 0 0 1 0-10.373 31.51 31.51 0 0 1 0 10.373zm7.984 17.444a4.63 4.63 0 0 1-.822 2.628 4.84 4.84 0 0 1-2.188 1.742 5.01 5.01 0 0 1-2.817.269c-.946-.182-1.815-.633-2.496-1.294a4.69 4.69 0 0 1-1.335-2.422 4.6 4.6 0 0 1 .278-2.733c.369-.864.994-1.603 1.795-2.122a4.99 4.99 0 0 1 2.709-.797c1.293 0 2.534.498 3.448 1.385a4.66 4.66 0 0 1 1.428 3.344z"/><use xlink:href="#E"/><path d="M290.027 523.077a4.63 4.63 0 0 1-.816 2.62 4.85 4.85 0 0 1-2.175 1.742 5.02 5.02 0 0 1-2.806.282 4.92 4.92 0 0 1-2.497-1.272 4.69 4.69 0 0 1-1.354-2.401c-.197-.912-.112-1.86.244-2.726a4.77 4.77 0 0 1 1.76-2.139 4.97 4.97 0 0 1 2.686-.835 5 5 0 0 1 1.891.336c.601.233 1.148.58 1.61 1.02a4.74 4.74 0 0 1 1.078 1.545 4.61 4.61 0 0 1 .379 1.828z"/><path d="M285.15 533.451a31.51 31.51 0 0 1 0-10.373 31.51 31.51 0 0 1 0 10.373zm160.173 76.815c2.693 0 4.876-2.118 4.876-4.73s-2.183-4.73-4.876-4.73-4.876 2.118-4.876 4.73 2.183 4.73 4.876 4.73z"/><path d="M445.324 615.909a31.51 31.51 0 0 1 0-10.373 31.51 31.51 0 0 1 0 10.373zM405.591 632.6c0 .951-.291 1.881-.836 2.672s-1.319 1.407-2.225 1.771a5.09 5.09 0 0 1-2.865.274 5.01 5.01 0 0 1-2.539-1.316 4.77 4.77 0 0 1-1.357-2.463 4.68 4.68 0 0 1 .282-2.779c.376-.879 1.011-1.63 1.826-2.159s1.775-.81 2.755-.81c.654-.011 1.304.106 1.911.344a4.9 4.9 0 0 1 1.62 1.04 4.72 4.72 0 0 1 1.073 1.572c.245.589.366 1.219.355 1.854z"/><path d="M400.713 642.973a31.51 31.51 0 0 1 0-10.373 31.51 31.51 0 0 1 0 10.373zm-73.4-96.728c2.693 0 4.876-2.117 4.876-4.729s-2.183-4.73-4.876-4.73-4.875 2.117-4.875 4.73 2.182 4.729 4.875 4.729z"/><path d="M327.33 551.889a31.51 31.51 0 0 1 0-10.373 31.51 31.51 0 0 1 0 10.373zm17.156-56.533a4.63 4.63 0 0 1-.822 2.628c-.536.778-1.297 1.384-2.188 1.742a5.01 5.01 0 0 1-2.817.269c-.946-.182-1.815-.633-2.497-1.294s-1.146-1.505-1.334-2.422-.092-1.868.278-2.733.993-1.603 1.795-2.122a4.99 4.99 0 0 1 2.709-.798c1.293 0 2.533.499 3.448 1.386a4.66 4.66 0 0 1 1.428 3.344z"/><path d="M339.611 505.73a31.52 31.52 0 0 1 0-10.374 31.52 31.52 0 0 1 0 10.374zm-113.317-5.179a4.63 4.63 0 0 1-.816 2.619c-.532.776-1.289 1.382-2.175 1.742a5.01 5.01 0 0 1-2.806.283 4.93 4.93 0 0 1-2.497-1.272 4.69 4.69 0 0 1-1.353-2.401c-.197-.912-.113-1.861.244-2.726a4.75 4.75 0 0 1 1.759-2.139c.791-.529 1.725-.82 2.686-.836a5 5 0 0 1 1.891.337 4.88 4.88 0 0 1 1.61 1.02 4.73 4.73 0 0 1 1.079 1.544c.25.579.379 1.201.378 1.829z"/><path d="M221.418 510.924a31.51 31.51 0 0 1 0-10.373 31.51 31.51 0 0 1 0 10.373zm230.021-53.181c0 .935-.286 1.849-.822 2.627a4.84 4.84 0 0 1-2.188 1.742 5.01 5.01 0 0 1-2.817.269c-.946-.182-1.815-.633-2.496-1.294a4.69 4.69 0 0 1-1.335-2.422c-.188-.918-.091-1.868.278-2.732a4.77 4.77 0 0 1 1.795-2.123 4.98 4.98 0 0 1 2.709-.797c1.293 0 2.534.498 3.448 1.385a4.66 4.66 0 0 1 1.428 3.345z"/><path d="M446.562 468.116a31.57 31.57 0 0 1 0-10.374 31.52 31.52 0 0 1 0 10.374zm-8.197-81.128a4.63 4.63 0 0 1-.822 2.628c-.536.778-1.297 1.384-2.188 1.742a5.01 5.01 0 0 1-2.817.269c-.946-.182-1.815-.633-2.497-1.294s-1.146-1.505-1.334-2.422a4.6 4.6 0 0 1 .277-2.733 4.76 4.76 0 0 1 1.796-2.122c.802-.52 1.745-.798 2.709-.798 1.293 0 2.533.499 3.448 1.386a4.66 4.66 0 0 1 1.428 3.344z"/><path d="M433.488 397.346a31.52 31.52 0 0 1 0-10.374 31.52 31.52 0 0 1 0 10.374zm-98.72-68.157c2.693 0 4.876-2.118 4.876-4.73s-2.183-4.73-4.876-4.73-4.875 2.118-4.875 4.73 2.183 4.73 4.875 4.73z"/><path d="M334.768 334.817a30.42 30.42 0 0 1 0-10.374 31.52 31.52 0 0 1 0 10.374zm-88.343 78.866a4.63 4.63 0 0 1-.816 2.62c-.532.776-1.289 1.382-2.175 1.742a5.02 5.02 0 0 1-2.806.282c-.943-.176-1.812-.618-2.497-1.272a4.69 4.69 0 0 1-1.353-2.401 4.59 4.59 0 0 1 .244-2.726 4.76 4.76 0 0 1 1.759-2.139c.791-.529 1.725-.82 2.686-.835a5 5 0 0 1 1.891.336c.601.233 1.149.58 1.61 1.02a4.72 4.72 0 0 1 1.078 1.545 4.59 4.59 0 0 1 .379 1.828z"/><path d="M241.551 424.057a31.52 31.52 0 0 1 0-10.374 30.37 30.37 0 0 1 0 10.374zm62.161-133.348a4.71 4.71 0 0 1-.836 2.673c-.545.791-1.319 1.407-2.225 1.771a5.1 5.1 0 0 1-2.865.274c-.962-.186-1.845-.644-2.539-1.316s-1.165-1.53-1.357-2.463a4.68 4.68 0 0 1 .282-2.779 4.85 4.85 0 0 1 1.827-2.159 5.07 5.07 0 0 1 2.754-.811c.655-.01 1.304.107 1.911.345a4.86 4.86 0 0 1 1.62 1.04 4.71 4.71 0 0 1 1.073 1.572 4.61 4.61 0 0 1 .355 1.853z"/><path d="M298.836 301.147a31.51 31.51 0 0 1 0-10.373 31.51 31.51 0 0 1 0 10.373zm104.292-20.843a4.64 4.64 0 0 1-.862 2.606c-.545.767-1.312 1.36-2.205 1.706a5.02 5.02 0 0 1-2.81.237c-.94-.192-1.801-.648-2.475-1.313a4.68 4.68 0 0 1-1.311-2.422c-.181-.915-.08-1.863.291-2.722a4.76 4.76 0 0 1 1.796-2.11c.8-.516 1.739-.792 2.7-.792.647 0 1.288.125 1.885.368a4.87 4.87 0 0 1 1.592 1.046c.454.447.811.978 1.052 1.561a4.61 4.61 0 0 1 .347 1.835z"/><path d="M398.252 290.709a31.51 31.51 0 0 1 0-10.373 31.51 31.51 0 0 1 0 10.373zm32.362-14.734a4.7 4.7 0 0 1-.842 2.68 4.93 4.93 0 0 1-2.238 1.771 5.11 5.11 0 0 1-2.876.26 5.01 5.01 0 0 1-2.538-1.339c-.69-.681-1.155-1.546-1.337-2.484s-.072-1.908.316-2.785 1.036-1.623 1.862-2.142a5.08 5.08 0 0 1 2.777-.771 5 5 0 0 1 1.885.368 4.86 4.86 0 0 1 1.592 1.046c.454.447.812.978 1.052 1.561s.358 1.207.347 1.835z"/><path d="M425.738 286.348a31.51 31.51 0 0 1 0-10.373 31.51 31.51 0 0 1 0 10.373zm-6.166-45.261a4.63 4.63 0 0 1-.822 2.628c-.536.777-1.297 1.384-2.188 1.742a5.02 5.02 0 0 1-2.817.269c-.946-.183-1.815-.633-2.497-1.295a4.69 4.69 0 0 1-1.334-2.421 4.6 4.6 0 0 1 .277-2.733c.369-.864.994-1.603 1.796-2.123a4.99 4.99 0 0 1 2.709-.797c1.287.021 2.514.526 3.424 1.408a4.74 4.74 0 0 1 1.452 3.322z"/><path d="M414.697 251.444a31.51 31.51 0 0 1 0-10.373 31.51 31.51 0 0 1 0 10.373zm-148.223 70.017a4.63 4.63 0 0 1-.816 2.619c-.532.776-1.289 1.382-2.175 1.742a5.01 5.01 0 0 1-2.806.283 4.93 4.93 0 0 1-2.497-1.272 4.69 4.69 0 0 1-1.353-2.401c-.198-.912-.113-1.861.244-2.726a4.75 4.75 0 0 1 1.759-2.139c.791-.529 1.725-.82 2.686-.836a5.02 5.02 0 0 1 1.891.337c.601.233 1.148.58 1.61 1.02a4.71 4.71 0 0 1 1.078 1.544c.25.579.379 1.201.379 1.829z"/><path d="M261.598 331.834a31.51 31.51 0 0 1 0-10.373c.572 3.435.572 6.938 0 10.373zm118.191-55.121c.016.958-.262 1.898-.801 2.702s-1.312 1.432-2.221 1.806a5.11 5.11 0 0 1-2.883.292 5.01 5.01 0 0 1-2.559-1.32 4.77 4.77 0 0 1-1.361-2.482c-.188-.94-.083-1.914.302-2.796a4.85 4.85 0 0 1 1.862-2.155c.828-.522 1.798-.793 2.785-.777 1.294 0 2.534.498 3.448 1.385a4.66 4.66 0 0 1 1.428 3.345z"/><path d="M374.914 287.086a31.51 31.51 0 0 1 0-10.373 31.51 31.51 0 0 1 0 10.373zM242.889 170.189c.016.958-.263 1.898-.801 2.702a4.92 4.92 0 0 1-2.222 1.805 5.1 5.1 0 0 1-2.882.293 5 5 0 0 1-2.559-1.32 4.77 4.77 0 0 1-1.361-2.482 4.67 4.67 0 0 1 .302-2.796c.385-.882 1.034-1.633 1.862-2.155a5.07 5.07 0 0 1 2.785-.777c1.293 0 2.533.498 3.448 1.385a4.66 4.66 0 0 1 1.428 3.345z"/><path d="M238.08 180.546c-.423-1.694-.568-3.441-.43-5.179-.138-1.737.007-3.485.43-5.178a15.58 15.58 0 0 1 .43 5.178 15.58 15.58 0 0 1-.43 5.179zm60.755 15.536a4.63 4.63 0 0 1-.821 2.628c-.536.777-1.297 1.384-2.188 1.742a5.02 5.02 0 0 1-2.817.269c-.946-.183-1.815-.633-2.497-1.295s-1.146-1.504-1.334-2.421a4.6 4.6 0 0 1 .277-2.733c.369-.864.994-1.603 1.796-2.123a4.99 4.99 0 0 1 2.709-.797 4.95 4.95 0 0 1 3.447 1.385c.915.887 1.428 2.091 1.428 3.345z"/><path d="M293.96 206.455a16.21 16.21 0 0 1-.43-5.178 16.26 16.26 0 0 1 .43-5.195 16.26 16.26 0 0 1 .43 5.195 16.21 16.21 0 0 1-.43 5.178zm-83.979 71.428c0 .951-.291 1.881-.835 2.672s-1.32 1.408-2.226 1.772-1.903.459-2.864.273a5 5 0 0 1-2.539-1.316c-.694-.673-1.166-1.53-1.357-2.463a4.68 4.68 0 0 1 .282-2.779c.375-.879 1.011-1.63 1.826-2.159s1.774-.81 2.755-.81a5 5 0 0 1 1.91.344c.607.238 1.158.592 1.621 1.04s.827.984 1.073 1.572.365 1.219.354 1.854z"/><path d="M205.023 288.321a31.57 31.57 0 0 1 0-10.374 31.52 31.52 0 0 1 0 10.374zm9.768-87.509a4.71 4.71 0 0 1-.801 2.702 4.93 4.93 0 0 1-2.221 1.806 5.1 5.1 0 0 1-2.883.293 5.01 5.01 0 0 1-2.559-1.321c-.698-.677-1.172-1.541-1.361-2.482s-.083-1.914.302-2.796a4.85 4.85 0 0 1 1.862-2.155c.828-.522 1.798-.793 2.785-.777 1.293 0 2.534.498 3.448 1.385a4.66 4.66 0 0 1 1.428 3.345z"/><path d="M209.981 211.185c-.431-1.692-.576-3.441-.429-5.179-.147-1.742-.002-3.497.429-5.194.422 1.699.567 3.452.43 5.194.136 1.738-.009 3.485-.43 5.179z"/></g><g class="E"><path d="M424.613 421.347l40.196-20.666-.165 37.277-40.031-16.611zM257.665 553.524l-88.061 44.091v-82.266l9.751-4.216 78.31 42.391z"/></g><path d="M389.194 597.616a5.33 5.33 0 0 1-.947 3.028c-.617.897-1.495 1.595-2.522 2.008a5.79 5.79 0 0 1-3.247.31c-1.09-.21-2.091-.729-2.877-1.492a5.4 5.4 0 0 1-1.538-2.791c-.217-1.057-.105-2.153.32-3.15s1.145-1.847 2.07-2.446a5.74 5.74 0 0 1 3.122-.919 5.71 5.71 0 0 1 3.973 1.597 5.37 5.37 0 0 1 1.646 3.855z" class="F"/><g class="E"><path d="M440.613 208.508l28.048 8.273v42.872l-28.048-51.145zm28.328-57.271l-.165-46.784c-1.131-8.06-5.223-15.453-11.524-20.82s-14.387-8.347-22.772-8.393l-44.245-.16c-1.444.025-2.868.326-4.192.885a11.02 11.02 0 0 0-3.523 2.374 10.63 10.63 0 0 0-2.318 3.501 10.39 10.39 0 0 0-.76 4.095v7.776c.044 2.822-1.067 5.546-3.09 7.575s-4.794 3.196-7.703 3.247l-86.26-.385c-2.913-.08-5.676-1.277-7.681-3.33s-3.088-4.794-3.012-7.62v-7.776a10.39 10.39 0 0 0-.722-4.103c-.516-1.308-1.293-2.505-2.286-3.522a11 11 0 0 0-3.502-2.405 11.27 11.27 0 0 0-4.184-.921h-15.569l-38.758-.24c-8.72-.019-17.129 3.146-23.553 8.866-3.884 7.263-8.131 17.636-6.181 25.476l291.785 92.143.215-49.479z"/></g><path d="M434.481 75.24h1.19c1.178.021 2.354.117 3.52.289 4.623.555 9.069 2.064 13.041 4.425 2.957 1.712 5.627 3.853 7.917 6.349 2.805 2.965 5.043 6.391 6.611 10.117 1.785 4.358 2.651 9.02 2.545 13.709v15.92l-.694 190.57-1.141 282.632-.165 40.371v10.246a35.06 35.06 0 0 1-1.388 10.277c-.975 3.37-2.487 6.573-4.479 9.491-2.021 2.917-4.471 5.532-7.273 7.76-5.727 4.474-12.756 7.092-20.098 7.488-1.834.112-3.652.08-5.47.08h-5.455-10.958l-44.344-.192-91.119-.433-46.543-.209-23.503-.176c-8.028.399-15.969-1.764-22.61-6.157-6.621-4.476-11.472-11.008-13.751-18.518-1.084-3.71-1.558-7.562-1.405-11.416V636.48l.198-45.165.38-88.295.761-166.937.694-151.048.33-68.445v-8.193c0-1.363.132-2.742.215-4.105s.364-2.693.727-4.008c1.274-5.25 3.799-10.137 7.372-14.269 3.476-3.978 7.842-7.133 12.766-9.226s10.275-3.066 15.645-2.847l30.346.144h14.594 7.157c2.425-.117 4.824.542 6.826 1.876 2.022 1.348 3.55 3.285 4.363 5.531a18.02 18.02 0 0 1 .678 6.67v3.207c-.074 1.068-.074 2.139 0 3.207.268 2.099 1.171 4.074 2.595 5.676 1.381 1.586 3.244 2.708 5.322 3.207a12.1 12.1 0 0 0 3.14.32h3.206 12.578l45.899.241 20.246.112h4.744c1.52-.163 2.983-.656 4.281-1.443 1.252-.755 2.335-1.746 3.187-2.913s1.453-2.488 1.771-3.885c.242-1.355.336-2.73.281-4.104v-4.04a20.73 20.73 0 0 1 .198-3.928c.22-1.268.668-2.489 1.323-3.608 1.215-2.189 3.187-3.892 5.569-4.81 2.233-.676 4.582-.91 6.909-.69l22.577.144 13.884.096h4.743-4.743-13.884-22.577c-2.294-.226-4.612.008-6.809.689-2.305.882-4.222 2.515-5.422 4.617-.626 1.098-1.056 2.29-1.272 3.527-.178 1.286-.239 2.584-.182 3.88v4.04c.065 1.396-.035 2.794-.298 4.169a10.83 10.83 0 0 1-1.793 4.009c-.869 1.207-1.979 2.231-3.264 3.014-1.336.817-2.844 1.332-4.413 1.507-1.653.128-3.173 0-4.793 0h-20.247l-45.898-.177h-12.578-3.206a12.67 12.67 0 0 1-3.306-.32c-2.122-.498-4.04-1.604-5.504-3.175-1.489-1.68-2.432-3.749-2.71-5.948-.107-1.092-.14-2.19-.1-3.287v-3.207a17.13 17.13 0 0 0-.644-6.413c-.76-2.085-2.169-3.889-4.033-5.163-1.91-1.27-4.2-1.89-6.512-1.764h-7.157-14.594l-30.362-.112c-5.248-.243-10.484.672-15.314 2.677s-9.127 5.048-12.569 8.899c-3.498 4.062-5.971 8.861-7.222 14.013-.347 1.283-.463 2.63-.711 3.945s-.182 2.661-.198 4.024v8.193l-.281 68.445-.612 151.048-.711 166.937-.446 88.327-.182 45.165v11.399c-.155 3.788.308 7.576 1.372 11.224 2.217 7.31 6.926 13.675 13.355 18.053 6.496 4.262 14.251 6.345 22.081 5.932l23.503.096 46.559.209 90.987.417 44.345.208h10.958 5.454c1.818 0 3.636 0 5.421-.08 7.172-.385 14.039-2.942 19.635-7.311 2.737-2.179 5.132-4.734 7.107-7.584a32.66 32.66 0 0 0 4.38-9.251c.948-3.275 1.399-6.667 1.339-10.069V639.51l.182-40.387 1.322-282.616.975-190.57.083-15.921c.127-4.653-.716-9.283-2.479-13.612-1.529-3.709-3.735-7.12-6.512-10.069a33.64 33.64 0 0 0-7.835-6.269 33.6 33.6 0 0 0-12.958-4.489c-1.164-.186-2.34-.293-3.52-.321-.744.032-1.14-.016-1.14-.016z" fill="#1c1f2c"/><path fill-rule="evenodd" d="M345.202 244.343c6.338 0 27.006-28.571 27.006-43.039s-12.091-26.198-27.006-26.198-27.007 11.729-27.007 26.198 20.668 43.039 27.007 43.039zm0-28.069c8.523 0 15.432-6.702 15.432-14.97s-6.909-14.97-15.432-14.97-15.432 6.702-15.432 14.97 6.909 14.97 15.432 14.97z" class="F"/></g></g><defs><clipPath id="A"><rect width="636" height="636" rx="8" class="B"/></clipPath><clipPath id="B"><path transform="translate(158 56)" d="M0 0h320v650H0z" class="B"/></clipPath><path id="C" d="M414.697 413.684a31.52 31.52 0 0 1 0-10.374 31.52 31.52 0 0 1 0 10.374z"/><path id="D" d="M341.742 412.481a31.51 31.51 0 0 1 0-10.373 31.51 31.51 0 0 1 0 10.373z"/><path id="E" d="M421.853 475.732a31.57 31.57 0 0 1 0-10.374 31.52 31.52 0 0 1 0 10.374z"/></defs></svg>