<svg xmlns="http://www.w3.org/2000/svg" xmlns:xlink="http://www.w3.org/1999/xlink" width="636" height="636" fill="none" xmlns:v="https://vecta.io/nano"><style><![CDATA[.B{fill:#1c1f2c}.C{fill:#2e3242}.D{fill:#6366f1}]]></style><path opacity=".3" d="M211.496 444.498c-13.425 8.1-26.741 16.403-41.082 22.754-9.252 4.092-19.258 7.111-29.42 7.449-8.253.266-19.948-1.739-24.185-10.318-2.595-5.267-.89-11.847 2.691-16.505s8.733-7.826 13.752-10.889l72.641-44.2c23.867-14.511 47.884-29.086 73.783-39.748 10.127-4.166 23.168-10.811 34.4-9.66 6.795.688 14.586 2.8 19.301 8.012 5.827 6.434 5.686 12.235-.467 17.628-8.199 7.101-15.421 11.282-22.782 15.735l-98.632 59.742z" class="B"/><use xlink:href="#C" class="D"/><g class="B"><use xlink:href="#C" opacity=".6"/><path d="M269.942 344.821c0-15.424 9.398-33.378 21-40.026.584-.332 1.184-.634 1.799-.904l.167-.084c.39-.181.79-.339 1.199-.473.307-.111.6-.236.907-.333l.878-.237c.405-.097.795-.195 1.186-.25l.641-.098a11.4 11.4 0 0 1 1.394-.083h.265.837a24.65 24.65 0 0 1 11.354 3.215c3.466 1.975 6.399 4.762 8.545 8.12 2.127 2.968 3.4 6.459 3.681 10.097.15 1.078.23 2.165.237 3.254.007.093.007.186 0 .278v.306c0 15.424-9.398 33.379-21 40.026-.614.348-1.213.64-1.799.918l-.167.084c-.405.181-.809.32-1.2.459l-.906.334c-.293.097-.586.166-.878.236s-.795.195-1.2.264l-.627.084c-.46 0-2.022.111-2.189.111h-.279a24.64 24.64 0 0 1-11.363-3.21 24.56 24.56 0 0 1-8.55-8.125c-2.123-2.969-3.391-6.461-3.667-10.097-.15-1.074-.229-2.156-.238-3.24-.007-.093-.007-.186 0-.278v-.306l-.027-.042z"/></g><path d="M290.38 369.279c-9.27-3.934-11.13-20.375-4.155-36.723s20.142-26.411 29.411-22.478 11.13 20.375 4.155 36.723-20.142 26.411-29.411 22.478z" fill="#edf0f8"/><g class="B"><path opacity=".4" d="M296.88 362.595c2.274-.066 4.491-.728 6.428-1.92 8.66-4.979 15.702-18.385 15.702-29.859 0-6.175-2.05-10.904-5.578-12.962-2.998-1.725-6.791-1.391-10.695.82-8.66 4.979-15.702 18.372-15.702 29.86 0 6.161 2.05 10.89 5.578 12.948 1.297.745 2.77 1.129 4.267 1.113zm12.229-44.588a7.19 7.19 0 0 1 3.64.932c3.179 1.835 5.006 6.161 5.006 11.877 0 11.126-6.763 23.99-15.074 28.775-3.5 2.016-6.847 2.294-9.441.806-3.179-1.836-5.006-6.161-5.006-11.863 0-11.126 6.763-23.991 15.074-28.775a11.76 11.76 0 0 1 5.801-1.752z"/><path d="M295.641 346.907a3.24 3.24 0 0 1-.122 1.498c-.157.483-.426.923-.784 1.284l-1.618 1.599c.407 1.274 1.235 2.373 2.35 3.116s2.45 1.086 3.786.973l.376-2.42a2.96 2.96 0 0 1 .52-1.399 2.95 2.95 0 0 1 1.14-.965c.739-.195 1.199.514 1.032 1.585l-.391 2.406a19.02 19.02 0 0 0 8.032-7.9l-1.227-.82a1.53 1.53 0 0 1-.404-.705 1.52 1.52 0 0 1 .014-.811 3.1 3.1 0 0 1 .321-.987c.502-1.03 1.394-1.572 1.924-1.197l1.241.821c.821-1.994 1.411-4.075 1.757-6.203a19.89 19.89 0 0 0 .125-5.785l-1.617 1.599a1.68 1.68 0 0 1-.711.445c-.11.031-.225.038-.337.02s-.22-.06-.314-.124a.77.77 0 0 1-.232-.244.78.78 0 0 1-.107-.32c-.083-.502-.044-1.016.114-1.5s.429-.923.792-1.281l1.618-1.599a5.92 5.92 0 0 0-2.361-3.11 5.94 5.94 0 0 0-3.789-.965l-.376 2.406a2.88 2.88 0 0 1-.522 1.362c-.288.402-.675.723-1.124.932-.725.195-1.185-.514-1.018-1.571l.391-2.42a19.1 19.1 0 0 0-8.032 7.899l1.227.835c.198.19.341.43.412.695s.069.544-.008.807c-.064.346-.172.682-.321 1.001-.516 1.029-1.394 1.558-1.924 1.196l-1.241-.834a27.22 27.22 0 0 0-1.771 6.231 19.76 19.76 0 0 0-.125 5.771l1.631-1.599a1.52 1.52 0 0 1 .697-.445.79.79 0 0 1 .662.129c.093.069.17.158.225.261s.085.217.089.333z"/><path d="M189.828 412.704l115.99-66.757a10.05 10.05 0 0 0 3.04-3.497c.726-1.386 1.118-2.922 1.143-4.486 0-3.073-1.882-4.492-4.183-3.157l-17.695 10.222-3.249.292L181.448 403.4l8.38 9.304z"/></g><path d="M293.394 351.01l12.55-7.191a6.28 6.28 0 0 0 1.928-2.201c.461-.875.708-1.845.722-2.833 0-1.933-1.186-2.782-2.65-1.989l-12.55 7.19c-.804.575-1.461 1.33-1.919 2.205a6.29 6.29 0 0 0-.716 2.83c0 1.933 1.171 2.823 2.635 1.989z" class="C"/><path d="M293.52 348.604l12.229-7.051c.271-.191.493-.443.649-.735s.238-.617.244-.948c0-.654-.405-.946-.893-.668l-12.229 7.051c-.271.191-.493.443-.649.735s-.238.617-.244.948c0 .654.405.946.893.668z" class="D"/><path d="M189.814 412.704l-17.528-10.097-8.367-9.374 17.528 10.097 8.367 9.374z" class="B"/><path d="M170.213 382.58l89.44-51.458 23.092 13.309v3.589l-89.426 51.458c-8.046 4.631-19.746 5.41-26.118 1.738-2.719-1.571-4.016-3.699-4.002-5.98v-3.56c.042-3.032 2.412-6.314 7.014-9.096z" class="C"/><use xlink:href="#D" class="D"/><use xlink:href="#D" opacity=".3" class="B"/><path d="M167.215 396.112c6.372 3.672 18.128 2.907 26.118-1.724l89.412-51.459-4.016-2.336-2.301-1.321-10.57-6.092-6.177-3.574-89.426 51.458c-8.074 4.631-9.413 11.377-3.04 15.048z" class="C"/><use xlink:href="#E" class="D"/><use xlink:href="#E" opacity=".4" class="B"/><use xlink:href="#F" class="C"/><g class="B"><use xlink:href="#F" opacity=".2"/><path d="M142.82 384.903a.74.74 0 0 0 .335-.084c.102-.042.194-.104.271-.183a.82.82 0 0 0 .178-.275c.041-.102.06-.212.057-.322s-.028-.218-.074-.318c-5.146-11.585-3.305-19.249.139-22.545 1.13-1.107 2.584-1.826 4.152-2.051a7.45 7.45 0 0 1 4.564.8.84.84 0 0 0 1.122-.383c.098-.199.113-.429.041-.639s-.225-.383-.424-.48a9.17 9.17 0 0 0-5.564-.947c-1.909.277-3.68 1.149-5.062 2.49-3.849 3.7-5.996 12.058-.502 24.436.067.148.174.274.31.362a.85.85 0 0 0 .457.139z"/><path d="M138.137 389.089a.73.73 0 0 0 .335-.069.86.86 0 0 0 .268-.186.84.84 0 0 0 .176-.275c.04-.102.06-.21.058-.32s-.026-.218-.07-.318c-4.894-11.377-3.096-21.07-.07-25.91a11.45 11.45 0 0 1 6.973-5.049 9.56 9.56 0 0 1 3.838-.063c1.271.239 2.479.734 3.552 1.454a.84.84 0 0 0 .595.06c.198-.054.37-.178.482-.351a.83.83 0 0 0 .126-.582.84.84 0 0 0-.296-.518c-1.26-.843-2.679-1.42-4.171-1.698a11.18 11.18 0 0 0-4.503.085c-3.35.803-6.249 2.885-8.074 5.8-3.249 5.187-5.201 15.479 0 27.467.074.143.186.262.324.346s.296.127.457.127zm-18.991 42.557c0-15.437 9.399-33.378 21.001-40.04.613-.348 1.199-.626 1.799-.904l.167-.083c.404-.181.795-.32 1.199-.473l.907-.32c.292-.097.585-.167.878-.237s.795-.194 1.185-.264l.642-.083c.46 0 .92-.084 1.394-.098h1.102a24.57 24.57 0 0 1 11.358 3.208c3.468 1.975 6.4 4.765 8.541 8.127 2.125 2.964 3.398 6.45 3.681 10.083a25.32 25.32 0 0 1 .237 3.255c.007.092.007.185 0 .278v.306c0 15.437-9.399 33.378-21 40.04-.614.348-1.214.626-1.799.904l-.168.083c-.404.181-.808.32-1.199.473s-.613.237-.906.32-.586.167-.879.236-.808.195-1.199.265l-.627.083c-.461 0-2.022.125-2.19.125h-.279c-3.993-.136-7.894-1.24-11.363-3.218a24.58 24.58 0 0 1-8.549-8.13c-2.123-2.964-3.391-6.451-3.668-10.083a24.97 24.97 0 0 1-.237-3.255c-.007-.092-.007-.185 0-.278v-.306l-.028-.014z"/></g><path d="M139.584 456.111c-9.269-3.933-11.129-20.375-4.155-36.722s20.143-26.412 29.412-22.478 11.129 20.375 4.155 36.723-20.143 26.411-29.412 22.477z" fill="#edf0f8"/><g class="B"><path opacity=".4" d="M146.085 449.434a13.14 13.14 0 0 0 6.428-1.919c8.659-4.993 15.701-18.386 15.701-29.874 0-6.175-2.049-10.889-5.577-12.948-2.998-1.724-6.791-1.391-10.696.807-8.659 4.979-15.701 18.386-15.701 29.86 0 6.175 2.05 10.889 5.578 12.961 1.299.739 2.771 1.123 4.267 1.113zm12.229-44.602c1.276-.012 2.532.315 3.639.946 3.18 1.836 5.006 6.161 5.006 11.863 0 11.126-6.763 23.991-15.074 28.775-3.5 2.017-6.846 2.309-9.44.821-3.179-1.836-5.006-6.161-5.006-11.877 0-11.127 6.763-23.991 15.074-28.775a11.76 11.76 0 0 1 5.801-1.753z"/><path d="M144.832 433.746c.082.502.043 1.017-.115 1.501s-.429.923-.792 1.281l-1.603 1.599c.406 1.273 1.235 2.371 2.351 3.111a5.91 5.91 0 0 0 3.784.964l.377-2.406c.055-.489.233-.956.519-1.357a2.91 2.91 0 0 1 1.112-.938c.739-.194 1.199.515 1.032 1.572l-.39 2.42c3.409-1.773 6.207-4.524 8.032-7.9l-1.228-.834a1.5 1.5 0 0 1-.404-.697c-.069-.265-.064-.543.014-.805.051-.349.16-.687.321-1.002.502-1.029 1.394-1.557 1.91-1.196l1.255.835c.822-1.999 1.411-4.085 1.757-6.217a19.89 19.89 0 0 0 .126-5.785l-1.618 1.599a1.54 1.54 0 0 1-.711.445c-.109.034-.223.043-.336.027a.76.76 0 0 1-.548-.362.77.77 0 0 1-.106-.319 3.17 3.17 0 0 1 .906-2.781l1.618-1.6c-.411-1.274-1.243-2.371-2.36-3.114a5.95 5.95 0 0 0-3.79-.974l-.376 2.42a2.94 2.94 0 0 1-.528 1.357c-.288.401-.672.723-1.118.937-.725.195-1.185-.514-1.018-1.585l.391-2.406c-3.416 1.764-6.216 4.518-8.032 7.899l1.227.821c.199.192.34.436.409.703s.062.549-.019.813c-.054.342-.158.674-.306.987-.516 1.029-1.395 1.572-1.925 1.196l-1.255-.82c-.825 1.997-1.415 4.083-1.757 6.217-.323 1.907-.366 3.851-.125 5.771l1.617-1.599c.198-.204.442-.356.712-.445a.78.78 0 0 1 .337-.02c.112.018.219.06.313.124a.8.8 0 0 1 .233.244.77.77 0 0 1 .107.319zm8.894-62.57l2.9-17.371 29.548 32.864c1.562 1.724 1.116 3.894-1.394 5.34a12.48 12.48 0 0 1-11.253 0c-.518-.294-.988-.664-1.395-1.098l-18.406-19.735z"/></g><path d="M147.396 378.547l7.976-46.716 9.999.556-4.044 23.727-2.901 17.37-1.046 5.73c-.105.363-.282.7-.522.992a2.8 2.8 0 0 1-.872.705 7.87 7.87 0 0 1-7.098 0c-.475-.175-.878-.502-1.148-.93s-.391-.931-.344-1.434z" class="C"/><use xlink:href="#G" class="D"/><use xlink:href="#G" opacity=".3" class="B"/><g class="C"><path d="M157.772 377.017c-.739 4.451 6.693 9.735 5.285 17.802l-5.09 29.846c-.906 4.45-3.361 7.899-6.386 8.65-2.343.487-4.267-1.39-3.668-6.216l5.187-30.416c.698-4.103-7.306-6.954-9.761-6.481a24.94 24.94 0 0 0-8.701 5.646l1.883-7.691c2.035-8.344 10.862-9.471 11.978-15.966l9.273 4.826z"/><path d="M149.599 427.822l2.357-14.186c.255-.954.732-1.834 1.39-2.571a6.33 6.33 0 0 1 2.402-1.671c1.813-.682 3.068.111 2.789 1.766l-2.356 14.186c-.255.952-.729 1.832-1.385 2.568s-1.476 1.31-2.394 1.674c-1.827.681-3.11-.111-2.803-1.766z"/></g><path d="M151.818 426.862l2.3-13.908a2.13 2.13 0 0 1 .472-.842 2.12 2.12 0 0 1 .797-.548c.614-.237 1.032 0 .949.584l-2.315 13.907a2.08 2.08 0 0 1-.467.848c-.221.241-.496.427-.802.543-.669.237-1.032-.028-.934-.584z" class="D"/><path d="M158.454 164.425l4.866-8.345-20.568-11.835a2.39 2.39 0 0 0-1.256-.236c-.432.036-.847.19-1.198.444a7.61 7.61 0 0 0-2.425 2.562c-.596 1.031-.94 2.188-1.005 3.377a2.43 2.43 0 0 0 .194 1.217c.169.383.433.715.768.966l20.624 11.85z" class="C"/><path d="M157.452 162.213c0 2.184 1.547 3.074 3.444 1.975a7.54 7.54 0 0 0 2.428-2.551 7.53 7.53 0 0 0 1.002-3.373c0-2.184-1.534-3.074-3.43-1.989-1 .652-1.833 1.528-2.432 2.56s-.945 2.189-1.012 3.378z" class="B"/><path d="M161.438 158.514c.281-.181.617-.255.948-.209l20.136 11.558.474.278-2.357 4.089-20.121-11.544-.558-.347c-.178-.246-.263-.547-.237-.849.036-.594.209-1.173.507-1.689s.711-.957 1.208-1.287z" class="C"/><path d="M156.376 331.761l27.513-160.994 7.85.445-24.444 142.929-2.287 13.643-.809 4.506c-.078.297-.218.574-.41.813s-.433.436-.706.578c-.864.438-1.819.667-2.788.667s-1.925-.229-2.789-.667a1.81 1.81 0 0 1-.896-.766c-.205-.348-.287-.754-.234-1.154z" class="B"/><path opacity=".3" d="M183.57 172.658h7.934l-2.496 14.561-6.303 1.489c-.613.139-1.269.25-1.938.333l2.803-16.383z" fill="#000"/><path d="M190.581 172.686a6.17 6.17 0 0 1-2.789.667c-.97 0-1.925-.229-2.789-.667a1.69 1.69 0 0 1-1.154-1.606 1.69 1.69 0 0 1 .319-.988c.206-.288.498-.505.835-.619.866-.432 1.82-.657 2.789-.657a6.25 6.25 0 0 1 2.789.657c.336.114.628.331.835.619a1.69 1.69 0 0 1 0 1.975c-.207.289-.499.505-.835.619z" fill="#4f556d"/><path d="M182.76 185.217c-4.518 1.057-10.653.5-13.693-1.252-1.283-.737-1.799-1.571-1.646-2.364.224-1.099 2.092-12.378 2.092-12.378l30.929-.083-2.092 12.419-15.59 3.658z" class="B"/><g class="C"><path d="M184.795 172.797c-4.518 1.057-10.64.501-13.68-1.252-1.269-.723-1.798-1.543-1.659-2.322.195-1.113 1.701-2.142 4.351-2.782l15.576-3.602 11.002 6.342-15.59 3.616zm7.852 2.823l22.995 13.268-2.343 4.061-22.981-13.17c-1.352-.765.475-4.951 2.329-4.159z"/><path d="M226.405 202.754l4.867-8.344-20.624-11.891a2.42 2.42 0 0 0-2.468.222c-1 .648-1.832 1.522-2.428 2.552a7.52 7.52 0 0 0-1.002 3.373 2.43 2.43 0 0 0 .194 1.217c.169.383.433.715.768.966l20.693 11.905z"/></g><path d="M225.399 200.543c0 2.183 1.534 3.06 3.43 1.975a7.61 7.61 0 0 0 2.426-2.561c.595-1.032.94-2.189 1.005-3.378 0-2.183-1.534-3.073-3.431-1.975-1 .65-1.833 1.527-2.429 2.559a7.54 7.54 0 0 0-1.001 3.38z" class="B"/><path d="M164.199 174.355l3.389-1.989c.605-.241 1.263-.318 1.907-.223a3.7 3.7 0 0 1 1.76.765c1.473 1.067 2.674 2.463 3.507 4.076a11.58 11.58 0 0 1 1.29 5.215c.034.649-.104 1.295-.401 1.873s-.739 1.07-1.286 1.423l-3.389 1.989a3.69 3.69 0 0 1-1.909.216 3.68 3.68 0 0 1-1.758-.773c-1.475-1.063-2.677-2.458-3.508-4.073s-1.268-3.402-1.275-5.217a3.62 3.62 0 0 1 .388-1.868c.295-.577.738-1.066 1.285-1.414z" class="C"/><path d="M171.048 187.456l3.347-1.961c.547-.353.991-.844 1.287-1.423s.434-1.224.4-1.873c.028-1.611-.321-3.206-1.018-4.659l-3.458 1.989c.697 1.453 1.046 3.048 1.018 4.659.037.633-.088 1.265-.364 1.837s-.693 1.064-1.212 1.431z" class="B"/><path d="M167.295 186.941c-1.475-1.063-2.677-2.459-3.508-4.073s-1.268-3.402-1.275-5.217c.154-3.324 2.566-4.562 5.369-2.782 1.472 1.067 2.674 2.463 3.507 4.076a11.58 11.58 0 0 1 1.29 5.215c-.168 3.351-2.58 4.589-5.383 2.781z" class="C"/><path d="M169.654 186.719c1.646.069 1.925-1.78 1.967-2.587-.026-1.628-.428-3.228-1.175-4.676a10.59 10.59 0 0 0-3.134-3.669c-.529-.367-1.144-.592-1.785-.653-1.646-.084-1.924 1.766-1.952 2.573a10.49 10.49 0 0 0 1.162 4.676c.746 1.448 1.818 2.704 3.133 3.668.529.369 1.143.599 1.784.668z" class="B"/><path d="M167.312 175.787c-.475-.327-1.019-.541-1.59-.626-.285.542-.443 1.141-.46 1.753.022 1.628.423 3.23 1.17 4.678s1.822 2.703 3.139 3.666a4.01 4.01 0 0 0 1.589.64c.286-.546.444-1.15.461-1.766-.026-1.628-.428-3.228-1.175-4.676a10.59 10.59 0 0 0-3.134-3.669z" class="D"/><g clip-path="url(#A)"><g clip-path="url(#B)"><path d="M430.479 525.244l-141.357-.635c-17-.072-30.717-13.869-30.622-30.82l1.532-353.225c.073-16.951 13.917-30.646 30.928-30.564l141.357.635c17 .072 30.717 13.869 30.622 30.82l-1.542 353.225c-.063 16.951-13.907 30.646-30.918 30.564z" class="B"/><path d="M435.137 122.291l-28.267-.102c-.923.016-1.833.208-2.678.565a7.02 7.02 0 0 0-2.251 1.517 6.79 6.79 0 0 0-1.481 2.236c-.337.833-.502 1.722-.486 2.616v4.968c.029 1.803-.681 3.543-1.974 4.839a7.13 7.13 0 0 1-4.921 2.075l-55.109-.246c-1.861-.051-3.626-.816-4.907-2.128s-1.973-3.062-1.925-4.868v-4.968c.026-.894-.131-1.785-.461-2.621s-.826-1.6-1.46-2.25-1.395-1.171-2.237-1.536a7.22 7.22 0 0 0-2.673-.588h-9.947l-24.762-.154c-2.924-.013-5.821.533-8.528 1.607s-5.167 2.655-7.242 4.653-3.724 4.373-4.852 6.99-1.713 5.423-1.721 8.259l-1.51 346.086c-.014 2.836.549 5.647 1.656 8.272s2.738 5.012 4.797 7.026a22.3 22.3 0 0 0 7.206 4.706c2.698 1.094 5.591 1.661 8.515 1.669l145.518.656c2.923.012 5.82-.535 8.526-1.609s5.166-2.656 7.241-4.654 3.724-4.372 4.852-6.988a21.02 21.02 0 0 0 1.724-8.258l1.499-346.096c.023-5.721-2.296-11.217-6.448-15.281s-9.796-6.363-15.694-6.393z" fill="#f6f7fb"/><g class="C"><path d="M405.141 287.19l-5.138.044.044 5.12-15.343.134.135 15.562 4.987-.043.046 5.328-5.06.045.043 4.905 20.339-.178-.089-10.159-15.352.133-.044-5.154 10.292-.09-.044-5.027 5.197-.046.043 4.904 5.111-.045.135 15.553 5.132-.045.089 10.194-5.008.044-.041-4.863-5.106.045.043 4.899-5.196.046-.041-4.842-5.107.045.041 4.784-5.194.046-.041-4.818-5.104.044.042 4.981-10.49.092.074.073-.09-10.296-5.059.045-.044-5.186 9.986-.087-.09-10.446-5.005.045.071.075-.046-5.293 4.931-.043-.044-5.047-10.164.089.025-5.247-.07.072 10.199-.089-.046-5.302-4.965.043-.045-5.113-.069.077 5.111-.045-.044-5.055 15.615-.136.089 10.214-10.196.089.043 4.965 10.122-.089-.044-5.039 10.391-.005-.071-.075.046 5.243.068-.075zm-98.438-55.877l35.822-.313.312 35.88-35.822.312-.312-35.879zm30.879 30.531l-.222-25.537-25.491.222.222 25.537 25.491-.222zm5.594 41.625l.312 35.881-35.817.313-.312-35.881 35.817-.313zm-30.633 5.369l.222 25.537 25.49-.222-.222-25.537-25.49.222zm66.439-78.159l35.814-.313.312 35.881-35.814.313-.312-35.881zm30.722 4.973l-25.493.223.221 25.538 25.493-.222-.221-25.539zm-41.124 10.563l5.027-.045.089 10.219-10.052.087.089 10.26-5.193.046-.041-4.812-5.196.046.087 10.033-5.349.044c-.003-.002.083.072.08.069l-.182-20.553 20.759-.181-.046-5.286-.072.073z"/><path d="M374.228 302.976l.045 5.151-10.192.089.043 5.032-10.467.092-.043-5.001 5.036-.044-.043-4.959-4.963.043.043 5.031-5.153.045-.136-15.595-.076.071 5.234-.046-.072-.071.044 5.172 10.402-.091.046 5.242 10.322-.09-.07-.071zm30.867-20.879l-.044-5.144-5.054.045-.043-5.032 10.093-.087.043 4.935 5.126-.044.133 15.349-10.165.089-.045-5.015-.069.077 5.021-.045-.046-5.243-5.021.044.071.071zm-30.638 46.731l.031 5.248.073-.074-10.242.089.044 5.046-5.234.046-.089-10.211-.075.071 5.234-.046-.046-5.243-.069.077 5.11-.045.044 5.161 5.292-.046c.001 0-.073-.073-.073-.073zm-52.056-40.693l.087 10.012-4.999.043-.041-4.839-5.173.046.042 4.849-5.012.045-.088-10.025 15.184-.131zm46.248-41.994l-10.196.088-.133-15.341 4.866-.043.089 10.245 5.315-.046-.074-.073.061 5.242c0 .002.072-.072.072-.072zm-61.588 36.568l-.087-9.982 10.096-.087.087 9.982-10.096.087z"/><path d="M368.594 241.045l-.089-10.195 4.964-.043.087 10.121-5.036.045.074.072zm-15.657 5.152l-4.845.043-.088-10.117 4.846-.042.087 10.116zm-14.955 36.407l-10.314.09-.045-5.162-.072.074 10.393-.099-.077-.069.046 5.243.069-.077zm15.711 46.329l.09 10.331-4.817.042-.089-10.262 4.899-.04c.003.003-.083-.071-.083-.071zm15.18-67.14l4.855-.043.043 4.911-4.856.042-.042-4.91zm-25.819 31.028l.044 5.166-4.815.042-.045-5.097 4.899-.04c.003.003-.083-.071-.083-.071z"/><path d="M348.402 292.861l-5.343-.037c-.003-.003.082.071.08.068l.056-5.157-.076.071 5.234-.046-.072-.071.046 5.243.075-.071z"/><path d="M343.194 287.735l-5.168.045-.044-5.176-.07.077 5.234-.046-.072-.071.046 5.243.074-.072zm10.625 36.103l-5.009.044-.043-4.962 4.937-.042.044 5.034.071-.074z"/><path d="M353.75 323.912l5.247-.041-.077-.07.046 5.243.075-.071-5.343-.037c-.003-.003.083.071.08.068l.044-5.164-.072.072zm-26.129-46.381l-5.024.043-.043-4.971 4.95-.043.045 5.045.072-.074zm46.867 56.545l5.023-.045.043 4.973-4.95.043-.045-5.045-.071.074zm10.522-.073l4.816-.041.043 4.947-4.816.041-.043-4.947zm15.221-.007l.042 4.867-4.848.043-.043-4.867 4.849-.043zm10.321-.125l.042 4.845-4.881.043-.042-4.845 4.881-.043zm-46.695-35.901l-.046-5.244 5.234-.046.046 5.244-5.234.046zm-31.545-56.517l.131 15.196-15.216.134-.131-15.197 15.216-.133zm.677 87.682l-15.136.132-.133-15.286 15.136-.132.133 15.286zm56.469-72.986l-.131-15.19 15.167-.131.131 15.189-15.167.132zm-46.315 26.485v-.073h-.072l.072.073zM369 287.508h-.072v.073l.072-.073zm-31.059-10.002l-.002-.071h-.075l.077.071zm15.619 15.382v-.073h-.072l.072.073zm-5.207-5.127v-.072h-.072l.072.072zm25.721-10.64h-.072v.076l.072-.076z"/><path d="M358.448 272.312l.087 10.002-5.064.045.046 5.286.044 5.172 5.043-.044-.044-5.173 10.372-.09-.09-10.343 5.163-.044-.043-4.946-15.514.135zm-10.41-.221l.004.072h.078c.003.002-.082-.072-.082-.072z"/><g fill-rule="evenodd"><path d="M298.521 223.713l23.648-.709-.09-2.999-26.6.798.418 29.342 2.999-.043-.375-26.389zm100.437-3.411l26.636.116-.133 30.103-3-.014.12-27.102-23.636-.103.013-3zm-101.532 99.76l3-.005.043 27.103 23.636-.038.005 3-26.636.043-.048-30.103zm125.146 27.042l.007-27.103 3 .001-.008 30.103-26.635-.008v-3l23.636.007z"/></g></g><rect x="284.999" y="415" width="151" height="45" rx="6" class="D"/><g fill="#fff"><path d="M345.652 434.293c-.057-.583-.3-1.036-.73-1.358s-1.014-.484-1.751-.484c-.501 0-.924.072-1.269.216s-.609.335-.794.585c-.179.251-.269.535-.269.853-.009.265.045.496.163.693a1.74 1.74 0 0 0 .503.513 3.81 3.81 0 0 0 .737.368c.279.101.577.188.894.26l1.304.318c.633.144 1.214.337 1.743.578s.988.537 1.375.888.688.766.9 1.242c.218.477.329 1.024.333 1.64-.004.905-.231 1.69-.68 2.354s-1.087 1.173-1.928 1.539-1.845.541-3.026.541c-1.172 0-2.193-.182-3.062-.548s-1.54-.908-2.027-1.625c-.482-.723-.735-1.616-.758-2.68h2.969c.033.496.173.91.418 1.242.251.328.584.576 1 .744s.895.246 1.424.246c.52 0 .971-.077 1.354-.231s.688-.369.9-.643a1.5 1.5 0 0 0 .319-.946c0-.333-.097-.612-.29-.838s-.468-.419-.837-.578-.81-.303-1.339-.433l-1.581-.405c-1.224-.303-2.19-.777-2.899-1.423s-1.06-1.514-1.056-2.607c-.004-.895.229-1.678.702-2.347s1.132-1.192 1.963-1.567 1.777-.564 2.835-.564c1.078 0 2.018.188 2.821.564s1.436.898 1.885 1.567.681 1.444.695 2.326h-2.941zm10.066 10.754c-1.115 0-2.075-.241-2.878-.723s-1.413-1.16-1.843-2.022-.638-1.854-.638-2.975c0-1.137.215-2.133.645-2.991a4.86 4.86 0 0 1 1.85-2.015c.799-.486 1.749-.729 2.849-.729.95 0 1.782.176 2.495.527s1.278.845 1.694 1.481.645 1.382.688 2.239h-2.849c-.081-.554-.293-.999-.638-1.336s-.787-.513-1.34-.513c-.468 0-.876.13-1.226.39s-.614.628-.808 1.119-.291 1.086-.291 1.784c0 .708.095 1.31.284 1.806.194.496.465.874.815 1.134s.758.39 1.226.39c.345 0 .655-.072.929-.217a1.84 1.84 0 0 0 .687-.628c.184-.28.305-.614.362-1.004h2.849c-.048.847-.274 1.594-.681 2.239-.401.64-.957 1.141-1.665 1.502s-1.548.542-2.516.542zm9.899-.008c-.694 0-1.313-.122-1.857-.368a3.01 3.01 0 0 1-1.29-1.105c-.312-.491-.467-1.103-.467-1.834 0-.617.111-1.134.333-1.553s.524-.756.907-1.011.817-.448 1.304-.578a9.76 9.76 0 0 1 1.545-.275l1.531-.187c.387-.063.669-.154.843-.275s.263-.298.263-.534v-.044c0-.457-.142-.811-.426-1.061-.278-.251-.675-.376-1.19-.376-.544 0-.976.123-1.297.368s-.534.545-.638.91l-2.793-.231c.142-.674.421-1.256.837-1.747a4.07 4.07 0 0 1 1.608-1.142c.662-.269 1.427-.404 2.297-.404.605 0 1.183.072 1.736.217s1.052.368 1.482.671.777.694 1.027 1.17.376 1.038.376 1.698v7.482h-2.863v-1.538h-.086c-.174.346-.408.652-.701.917a3.23 3.23 0 0 1-1.056.614c-.411.144-.886.216-1.425.216zm.865-2.123c.444 0 .836-.089 1.176-.267a2.09 2.09 0 0 0 .801-.737c.194-.308.291-.657.291-1.047v-1.177c-.095.062-.225.12-.39.173l-.546.137-.609.109-.553.079c-.354.053-.664.137-.929.253s-.47.272-.616.469-.22.434-.22.722c0 .419.149.74.447.961s.685.325 1.148.325zm10.628-4.499v6.413h-3.02v-11.094h2.878v1.958h.127c.241-.646.645-1.156 1.212-1.531.567-.381 1.255-.571 2.063-.571.756 0 1.415.168 1.977.506a3.42 3.42 0 0 1 1.312 1.444c.312.626.467 1.363.467 2.224v7.064h-3.019v-6.515c.005-.679-.165-1.208-.51-1.589s-.82-.577-1.425-.577c-.406 0-.765.089-1.077.267s-.548.438-.723.78-.258.744-.262 1.221z"/></g></g><path d="M515.149 403.337l-35.488-61.855c-1.642-3.117-5.194-4.919-8.901-4.519l-8.76-1.295-.212 29.297 9.984 11.433c1.201 1.61 8.693 27.312 7.427 28.907-4.874 6.137-5.502 11.206-17.772 45.691-1.333 3.746-4.691 16.061-8.145 18.336-5.418 3.57-12.765 2.836-17.144-1.712l-33.18-34.464c-5.805-6.031-15.785-7.121-22.655-1.991-7.526 5.623-8.415 15.873-2.156 22.374l41.216 42.81s2.304 56.531 37.71 90.387l8.608 79.642 66.265-31.644-14.19-222.02c-.182-3.269-1.068-6.458-2.607-9.377z" fill="#f6b8a4"/><path d="M455.388 651.205l-4.334-40.096s31.315-34.588 84.273-47.333l7.576 77.97-87.515 9.459z" class="C"/></g><defs><clipPath id="A"><path fill="#fff" transform="translate(259 110)" d="M0 0h289v526H0z"/></clipPath><clipPath id="B"><path fill="#fff" transform="translate(258.5 110)" d="M0 0h204.439v415.244H0z"/></clipPath><path id="C" d="M308.149 304.294l1.143 2.295 10.57 6.105a16.05 16.05 0 0 0-.92-1.905 13.7 13.7 0 0 0-1.074-1.683 13.44 13.44 0 0 0-2.245-2.364l-.516-.39-.739-.486c-.45-.268-.916-.51-1.394-.724l-.767-.278-.181-.069c-.457-.148-.923-.264-1.395-.348a10.64 10.64 0 0 0-2.482-.153z"/><path id="D" d="M170.213 381.064l89.44-51.458 23.092 13.309v3.505l-89.426 51.458c-8.046 4.632-19.746 5.41-26.118 1.739-2.719-1.572-4.016-3.7-4.002-5.98v-3.561c.042-2.99 2.412-6.342 7.014-9.012z"/><path id="E" d="M276.424 339.23l2.3 1.321c2.524-13.81 11.017-27.815 21.126-33.656a17.63 17.63 0 0 1 8.367-2.601 10.65 10.65 0 0 1 2.412.153 10.61 10.61 0 0 1 1.395.347l.181.07c.251.083.502.167.767.278.479.214.944.455 1.394.723a8.49 8.49 0 0 1 .739.487l.516.39c.842.694 1.596 1.488 2.245 2.364.399.534.758 1.097 1.074 1.683.349.614.656 1.25.921 1.905.479.478 1.088.807 1.752.945s1.353.081 1.985-.166c-1.311-5.563-4.002-9.485-7.6-11.557-4.323-2.49-9.97-2.253-16.148 1.307-10.918 6.286-20.177 21.056-23.426 36.007z"/><path id="F" d="M276.41 339.23c3.249-14.951 12.55-29.721 23.427-36.007 6.177-3.56 11.825-3.797 16.147-1.307l-10.597-6.106c-4.323-2.489-9.957-2.253-16.134 1.308-10.933 6.286-20.192 21.056-23.427 36.006-1.422 6.523 3.821 10 10.584 6.106z"/><path id="G" d="M163.864 334.279a7.79 7.79 0 0 1-7.098 0c-1.966-1.127-1.966-2.949 0-4.089a7.87 7.87 0 0 1 7.098 0c1.966 1.14 1.966 2.962 0 4.089z"/></defs></svg>