<svg xmlns="http://www.w3.org/2000/svg" xmlns:xlink="http://www.w3.org/1999/xlink" width="636" height="636" fill="none" xmlns:v="https://vecta.io/nano"><style><![CDATA[.B{fill:#2e3242}.C{fill:#1c1f2c}.D{fill:#f6b8a4}.E{fill:#fff}.F{opacity:.2}.G{fill-rule:evenodd}]]></style><path opacity=".3" d="M318 572c142.489 0 258-6.743 258-15.062s-115.511-15.062-258-15.062-258 6.743-258 15.062S175.511 572 318 572z" class="C"/><path d="M388.424 239.864l3.274-8.329a5.33 5.33 0 0 0 .249-3.052c-.218-1.019-.73-1.952-1.473-2.683-.921-.908-2.036-1.595-3.26-2.009l-9.594-3.234-5.11 5.323c-1.663 5.695 8.277 10.445 8.277 10.445l7.637 3.539z" class="D"/><path d="M376.156 515.145H228.094c-2.767 0-5.03 2.901-5.03 6.44s2.263 6.426 5.03 6.426h148.062c2.768 0 5.03-2.9 5.03-6.426s-2.262-6.44-5.03-6.44z" class="B"/><path d="M374.679 234.289c-1.366.34-2.542 1.207-3.27 2.411s-.949 2.648-.616 4.016l56.606 229.416c.34 1.369 1.209 2.546 2.417 3.275a5.32 5.32 0 0 0 7.293-1.801c.728-1.205.95-2.648.616-4.016l-56.566-229.389c-.165-.685-.464-1.329-.88-1.897s-.941-1.048-1.543-1.412a5.33 5.33 0 0 0-4.057-.603z" class="C"/><g class="B"><path d="M425.763 475.294c-8.589 2.695-16.38 7.468-22.681 13.895s-10.921 14.309-13.447 22.949c-.553 1.863-.663 3.83-.322 5.743a12.47 12.47 0 0 0 2.288 5.278c1.163 1.557 2.673 2.821 4.411 3.691s3.656 1.323 5.599 1.321h40.226V482.36c.001-1.388-.324-2.756-.948-3.995a8.87 8.87 0 0 0-2.647-3.139c-1.116-.824-2.41-1.375-3.778-1.608s-2.771-.142-4.097.266l-4.604 1.41z"/><path d="M399.149 510.049H228.028c-3.101 0-5.642 3.246-5.642 7.212s2.541 7.211 5.642 7.211h171.121c3.101 0 5.642-3.246 5.642-7.211s-2.541-7.212-5.642-7.212zm22.622-84.837c-2.175.541-4.046 1.922-5.206 3.839a8.48 8.48 0 0 0-.982 6.393l12.149 49.231c.545 2.172 1.926 4.042 3.842 5.201a8.49 8.49 0 0 0 12.579-9.259l-12.149-49.231c-.545-2.172-1.926-4.041-3.843-5.197a8.48 8.48 0 0 0-6.39-.977z"/><path d="M430.713 450.173c-.736.183-1.368.65-1.76 1.298a2.86 2.86 0 0 0-.329 2.162l4.098 16.632a2.87 2.87 0 0 0 1.297 1.763c.648.394 1.425.516 2.163.339.734-.188 1.365-.658 1.756-1.308s.511-1.427.333-2.165l-4.112-16.658a2.86 2.86 0 0 0-1.3-1.738c-.645-.386-1.416-.502-2.146-.325z"/></g><use xlink:href="#B" class="E"/><use xlink:href="#B" class="C"/><path d="M462.849 548.225c11.604-11.603 11.604-30.415 0-42.018s-30.418-11.604-42.022-.001-11.603 30.416 0 42.019 30.418 11.603 42.022 0z" class="B"/><path d="M457.843 543.22c8.839-8.839 8.839-23.169 0-32.008a22.64 22.64 0 0 0-32.01 0c-8.839 8.839-8.839 23.169 0 32.008s23.171 8.838 32.01 0z" fill="#edf0f8"/><path d="M454.018 529.215c1.091-6.717-3.471-13.045-10.188-14.136s-13.047 3.471-14.137 10.188 3.471 13.046 10.188 14.136 13.047-3.471 14.137-10.188z" class="C"/><g class="B"><path d="M224.608 527.226h-27.877a8.69 8.69 0 0 1-3.792-.864l-25.136-12.095c-1.218-.586-2.283-1.446-3.112-2.513a8.74 8.74 0 0 1-1.664-3.637c-.265-1.325-.22-2.693.133-3.997s1.004-2.508 1.902-3.518c4.734-5.278 10.792-9.196 17.547-11.351a39.85 39.85 0 0 1 20.879-.908c6.917 1.561 13.291 4.94 18.466 9.787s8.962 10.987 10.971 17.787c.398 1.304.486 2.683.256 4.027a8.75 8.75 0 0 1-4.652 6.326 8.75 8.75 0 0 1-3.921.956z"/><path d="M215.747 548.238c11.604-11.603 11.604-30.415 0-42.019s-30.417-11.603-42.021 0-11.604 30.416 0 42.019 30.417 11.603 42.021 0z"/></g><path d="M210.741 543.233c8.84-8.839 8.84-23.17 0-32.008a22.64 22.64 0 0 0-32.01 0c-8.839 8.838-8.839 23.169 0 32.008s23.171 8.838 32.01 0z" fill="#edf0f8"/><path d="M206.911 529.216c1.09-6.716-3.471-13.045-10.188-14.136s-13.047 3.471-14.137 10.188 3.471 13.046 10.188 14.136 13.047-3.471 14.137-10.188z" class="C"/><path d="M240.749 536.075h-36.713a5.4 5.4 0 0 1-5.322-5.323c.02-1.405.588-2.747 1.582-3.74a5.4 5.4 0 0 1 3.74-1.582h36.713c1.405.021 2.747.588 3.741 1.582a5.4 5.4 0 0 1 1.582 3.74c-.018 1.407-.584 2.75-1.578 3.745s-2.339 1.56-3.745 1.578z" class="B"/><use xlink:href="#C" class="E"/><use xlink:href="#C" class="C"/><g class="E"><path d="M209.811 529.129h-11.284a1.9 1.9 0 0 1-1.345-.557c-.357-.357-.557-.841-.557-1.346a1.92 1.92 0 0 1 .556-1.35c.356-.359.84-.562 1.346-.566h11.324c.507.004.993.207 1.351.565a1.93 1.93 0 0 1 .565 1.351c-.001.254-.054.505-.153.739a1.93 1.93 0 0 1-.427.622c-.182.177-.397.316-.633.409a1.93 1.93 0 0 1-.743.133zm165.028-10.224h-40.585c-.624-.003-1.221-.214-1.662-.589s-.69-.881-.694-1.411.249-1.039.69-1.414 1.041-.586 1.666-.586h40.585a2.6 2.6 0 0 1 1.67.586c.444.374.695.883.698 1.414-.003.532-.254 1.041-.698 1.415s-1.045.585-1.67.585z" class="F"/></g><g class="C"><path d="M380.706 236.95c0 1.49-.441 2.946-1.269 4.184s-2.004 2.204-3.38 2.774-2.89.719-4.351.428-2.803-1.007-3.857-2.061-1.77-2.395-2.061-3.856-.141-2.975.429-4.351a7.53 7.53 0 0 1 2.774-3.38c1.238-.827 2.694-1.269 4.184-1.269 1.997 0 3.913.794 5.326 2.206a7.53 7.53 0 0 1 2.205 5.325z"/><path d="M385.098 244.282l-9.528-3.992c-1.015-.421-1.822-1.228-2.244-2.243s-.423-2.156-.005-3.173a4.16 4.16 0 0 1 2.243-2.244c1.016-.421 2.157-.423 3.173-.004l9.528 3.991c1.013.424 1.818 1.231 2.239 2.245s.425 2.154.01 3.171a4.18 4.18 0 0 1-2.248 2.234c-1.013.421-2.151.426-3.168.015z"/></g><path d="M425.696 457.598a16.81 16.81 0 0 1-6.014-1.144 15.54 15.54 0 0 1-5.462-3.385 15.53 15.53 0 0 1-3.627-5.304c-1.636-4.244-1.33-8.875-1.024-13.306l.119-1.889c.759-12.893-1.41-23.644-6.466-31.934a77.25 77.25 0 0 0-6.148-8.316l-3.446-4.364c-8.321-11.148-13.388-24.386-14.638-38.24-1.038-12.095.932-24.297 2.835-36.085l1.769-11.563c1.717-12.694 3.048-31.295-5.256-46.237l1.264-.705c8.517 15.328 7.173 34.235 5.43 47.128-.519 3.872-1.158 7.811-1.77 11.603-1.89 11.709-3.846 23.817-2.821 35.726 1.201 13.584 6.148 26.569 14.291 37.508 1.104 1.464 2.275 2.914 3.42 4.311 2.269 2.684 4.359 5.516 6.254 8.476 5.203 8.569 7.451 19.599 6.653 32.785l-.12 1.903c-.292 4.311-.599 8.768.932 12.72.79 1.787 1.925 3.4 3.34 4.747a14.83 14.83 0 0 0 4.906 3.102c1.824.701 3.768 1.035 5.721.983s3.876-.49 5.66-1.288l.652 1.331a14.4 14.4 0 0 1-6.454 1.437zm-134.303-333.28c-27.158 9.846-54.277-3.58-79.559-1.97s-46.573 17.803-51.616 24.456c11.084 1.77 17.524 17.524 17.524 17.524s23.54-22.62 48.064-25.281c39.307-4.338 50.351 4.551 70.125-4.338l-4.538-10.391z" class="B"/><path d="M348.691 470.544l7.811 30.523 14.624-3.592-7.811-30.523-14.624 3.592z" class="D"/><g class="C"><path d="M371.419 491.248l-16.514 3.579c-.257.052-.486.198-.641.409s-.225.474-.197.735l1.145 12.122a2.39 2.39 0 0 0 2.661 1.902c4.724 0 6.76-1.995 13.306-3.432 7.665-1.677 12.602.811 20.732-3.5 4.923-2.661 3.153-7.983.812-7.398-7.439 2.023-13.813-1.636-17.778-4.098-1.091-.555-2.353-.67-3.526-.319z"/><path d="M348.691 470.544l4.019 15.741 14.637-3.593-4.032-15.74-14.624 3.592z" class="F"/></g><path d="M322.624 352.922c-17.418-51.253-31.23-111.767-31.23-111.767l49.713-3.14 11.137 114.668c3.992 37.615 16.314 122.545 16.314 122.545l-22.421 4.537s-21.038-79.94-23.513-126.843z" class="B"/><path d="M314.294 269.695l-11.976 14.916c3.074 11.509 6.654 24.442 10.646 37.668a259.65 259.65 0 0 0 1.33-52.584z" class="C F"/><use xlink:href="#D" class="B"/><use xlink:href="#D" opacity=".1" class="E"/><path d="M266.71 469.48l-.918 31.508 15.076-.213.918-31.508-15.076.213z" class="D"/><g class="C"><path d="M281.227 494.321l-16.034.227c-.26-.001-.511.095-.703.27s-.311.416-.335.674l-1.33 12.109a2.2 2.2 0 0 0 .096.925c.097.298.257.572.468.804a2.22 2.22 0 0 0 1.671.719c5.323-.173 7.013-.612 13.719-.719 7.851-.119 9.554.865 18.762.719 5.576-.093 6.467-5.722 4.072-6.227-6.321-1.272-12.195-4.186-17.032-8.449-.943-.766-2.142-1.143-3.354-1.052z"/><path d="M266.71 469.493l-.479 16.233 15.076-.213.479-16.233-15.076.213z" class="F"/></g><g class="B"><path d="M273.044 354.492c4.244-53.928-1.97-85.622 4.298-112.406l45.242-2.794s-11.391 81.816-19.148 117.742-18.696 120.31-18.696 120.31l-22.235.279s-.107-81.058 10.539-123.131z"/><use xlink:href="#E"/></g><use xlink:href="#E" opacity=".1" class="E"/><path d="M338.339 148.853c1.623 3.633 3.087 7.305 4.617 10.964s2.954 7.371 4.351 11.084l4.139 11.19 3.912 11.403-.639-1.331c1.513 2.796 3.248 5.466 5.19 7.984 2.022 2.661 4.191 5.322 6.48 7.983s4.631 5.203 7.039 7.677c1.211 1.238 2.422 2.475 3.633 3.593a52.21 52.21 0 0 0 1.73 1.583l.665.572s.106.107-.067.094h-.186-.399-.32a3.25 3.25 0 0 0-.558 0 4.48 4.48 0 0 0-.719.199 3.59 3.59 0 0 0-.945.492c.487-.358 1.041-.615 1.629-.755a4.5 4.5 0 0 1 1.794-.056c.596.103 1.165.325 1.673.653a4.49 4.49 0 0 1 1.283 1.256c.338.501.572 1.065.686 1.659s.109 1.204-.018 1.795a4.48 4.48 0 0 1-.722 1.644c-.349.494-.794.912-1.308 1.229-.343.233-.714.421-1.105.559a4.51 4.51 0 0 1-.891.239 5.25 5.25 0 0 1-.719.067h-.479a4 4 0 0 1-.732-.08l-.519-.106a13.38 13.38 0 0 1-1.33-.4c-.692-.252-1.224-.492-1.73-.731a44.8 44.8 0 0 1-2.794-1.451c-1.73-.984-3.367-2.009-4.95-3.087-3.181-2.142-6.201-4.444-9.129-6.865a109.06 109.06 0 0 1-8.476-7.837 63.21 63.21 0 0 1-7.758-9.501 3.1 3.1 0 0 1-.292-.545l-.346-.798-9.315-21.529-4.604-10.871-4.458-10.937a9.06 9.06 0 0 1 5.035-11.457c2.151-.896 4.565-.928 6.74-.091a9.06 9.06 0 0 1 4.938 4.589l-.026-.08z" class="D"/><g class="E"><path d="M326.829 133.073c16.779 5.535 24.231 34.861 24.231 34.861-6.813 7.69-13.945 13.305-21.663 15.181 0 0-5.935-11.07-11.976-24.735-6.52-14.889-3.872-29.685 9.408-25.307z"/><path d="M342.145 153.776a26.88 26.88 0 0 0-8.904-16.899c-4.937-4.354-11.3-6.744-17.882-6.718-12.634.101-25.225 1.488-37.578 4.138a14.76 14.76 0 0 0-9.356 6.557c-1.044 1.661-1.747 3.513-2.067 5.449a14.72 14.72 0 0 0 .206 5.823c11.417 47.448 1.996 73.86 4.83 94.165 24.032 4.484 52.374-5.868 72.281-2.289 2.129-34.741.838-69.908-1.53-90.226z"/></g><g fill="#6366f1"><path d="M319.976 181.905l8.782-18.495-5.948-4.724-5.629-2.102-4.577 19.666 3.233 2.475-4.045 21.515 11.91-15.461-3.726-2.874z"/><path d="M317.9 202.435c-9.993 0-18.775-10.485-19.587-23.365-.452-7.304 1.69-14.064 5.895-18.534a14.69 14.69 0 0 1 4.909-3.604c1.87-.846 3.897-1.291 5.949-1.306 9.993 0 18.775 10.471 19.574 23.351.465 7.305-1.69 14.064-5.895 18.548a14.64 14.64 0 0 1-4.901 3.608 14.65 14.65 0 0 1-5.944 1.302zm-2.834-45.239a13.15 13.15 0 0 0-5.317 1.174c-1.671.759-3.164 1.859-4.384 3.23-3.912 4.165-5.908 10.485-5.469 17.364.759 12.055 8.836 21.875 18.004 21.875a13.19 13.19 0 0 0 9.701-4.405c3.912-4.164 5.908-10.498 5.469-17.377-.759-12.041-8.836-21.848-18.004-21.848v-.013z"/></g><path d="M289.012 102.749c1.982 7.638 4.311 21.05.665 28.381-.378.715-.494 1.54-.329 2.332a3.47 3.47 0 0 0 1.234 2.006c4.684 3.606 10.645 6.972 19.441 6.426 9.181-.558 8.503-6.054 6.174-9.726a3.42 3.42 0 0 0-.93-.984 3.41 3.41 0 0 0-1.239-.546c-8.676-1.783-8.782-8.689-7.545-15.328l-17.471-12.561z" class="D"/><path d="M291.46 119.461c-6.241-2.435-5.895 1.025-5.762 5.894s-6.001 5.482-2.168 9.86 17.391 9.633 26.852 7.983c16.394-2.914 7.851-9.22 6.454-12.653s2.461-9.966-2.316-10.884-13.878 3.379-23.06-.2z" class="B"/><g class="C"><path d="M313.376 130.585c-7.838 3.472-19.322 2.275-25.908-2.435 8.289 2.998 17.205 3.836 25.908 2.435z"/><path d="M296.104 107.872l10.339 7.438a28.1 28.1 0 0 0-.545 4.883c-3.753-.173-9.089-3.752-9.714-7.598-.311-1.556-.338-3.157-.08-4.723z" class="F"/></g><path d="M313.802 91.293c5.588-1.983 6.427-10.072 1.33-14.503-10.153-2.062-6.919 10.232-1.33 14.503z" class="B"/><path d="M285.765 89.776c1.57 11.669 1.929 18.628 8.064 23.95 9.221 8.13 22.621 1.224 24.47-10.804 1.61-10.817-1.237-28.088-12.588-31.561s-21.53 6.746-19.946 18.415z" class="D"/><path d="M287.149 96.988c6.201-.825 8.077-8.542 4.91-14.131 2.661-.146 12.162-.293 11.723-4.577 6.866 2.954 15.741 4.843 15.302-.665-.372-4.55-3.925-8.276-11.457-11.39s-28.755-3.167-27.73 11.975c-10.845 6.959-2.435 19.812 7.252 18.788z" class="B"/><path d="M281.853 99.316a11.06 11.06 0 0 0 5.961 5.589c3.327 1.224 4.937-2.063 3.992-5.668-.878-3.247-3.672-7.784-6.999-7.425s-4.511 4.245-2.954 7.504z" class="D"/><path d="M317.581 81.154l-20.08 2.435a9.61 9.61 0 0 0-8.383 10.645l1.158 9.486a5.1 5.1 0 0 1-.543 2.941c-.471.904-1.202 1.646-2.099 2.13s-1.918.688-2.932.586-1.974-.506-2.756-1.159a25.56 25.56 0 0 1-6.775-8.741c-1.593-3.373-2.429-7.054-2.448-10.784a25.55 25.55 0 0 1 2.335-10.809c1.559-3.389 3.84-6.397 6.684-8.811s6.182-4.176 9.779-5.163 7.368-1.175 11.046-.55a25.56 25.56 0 0 1 17.768 12.271 3.68 3.68 0 0 1 .511 1.739c.022.613-.11 1.222-.384 1.772a3.67 3.67 0 0 1-2.881 2.011z" class="B"/><path d="M285.179 101.711c.786 1.916.44 3.859-.758 4.338s-2.808-.665-3.579-2.581-.426-3.859.771-4.351 2.795.679 3.566 2.594z" class="E F"/><path d="M302.065 90.561c.08.958.666 1.69 1.331 1.623s1.064-.878.985-1.836-.666-1.69-1.331-1.637-1.065.878-.985 1.85zm11.271-.479c.093.958.665 1.69 1.33 1.623s1.065-.892.985-1.85-.665-1.676-1.331-1.623-1.064.892-.984 1.85zm-.566 11.53c-1.182.63-2.525.868-3.948.698s-2.898-.743-4.334-1.686c-.102-.074-.19-.194-.245-.334a.76.76 0 0 1-.049-.412.38.38 0 0 1 .061-.154.24.24 0 0 1 .249-.098.4.4 0 0 1 .149.071c1.594 1.017 3.228 1.555 4.771 1.57a6.12 6.12 0 0 0 4.111-1.486c.034-.034.076-.055.122-.062a.27.27 0 0 1 .147.023.48.48 0 0 1 .146.105.73.73 0 0 1 .12.167.86.86 0 0 1 .08.202.73.73 0 0 1 .024.205c-.003.066-.015.126-.037.177s-.053.092-.091.12c-.398.35-.824.648-1.276.893zm-12.638-14.124a.52.52 0 0 1-.266-.106.58.58 0 0 1-.093-.798c.537-.724 1.237-1.312 2.044-1.714a5.73 5.73 0 0 1 2.6-.601.56.56 0 0 1 .389.197.56.56 0 0 1 .107.195.57.57 0 0 1 .023.221.58.58 0 0 1-.2.385.57.57 0 0 1-.412.134 4.55 4.55 0 0 0-2.052.495c-.636.324-1.186.792-1.608 1.368a.55.55 0 0 1-.234.187.56.56 0 0 1-.298.039zm16.321-.189a.52.52 0 0 1-.493-.2 4.5 4.5 0 0 0-1.646-1.293 4.51 4.51 0 0 0-2.053-.41.57.57 0 0 1-.625-.492c-.015-.148.028-.296.119-.412s.226-.193.373-.213a5.52 5.52 0 0 1 4.697 2.103.57.57 0 0 1-.066.799.67.67 0 0 1-.306.12z" class="B"/><path d="M279.032 159.804l-2.355 4.577-2.329 4.737-4.418 9.567a142.32 142.32 0 0 0-7.105 19.226l-.613 2.369c0 .173 0 0 0 0v-.093c-.024.113-.024.232 0 .345a15.3 15.3 0 0 0 .692 3.566 75.78 75.78 0 0 0 3.686 9.195c2.914 6.306 6.414 12.72 9.754 19.067l.067.133c.522.959.68 2.076.443 3.143s-.851 2.011-1.73 2.66a4.52 4.52 0 0 1-3.053.869c-1.089-.088-2.11-.568-2.873-1.35a127.8 127.8 0 0 1-14.637-17.603c-2.325-3.327-4.351-6.854-6.054-10.539-1.055-2.228-1.811-4.586-2.249-7.012a18 18 0 0 1-.24-2.408c-.025-.47-.025-.941 0-1.41v-.772l.094-.665.505-3.021c.711-3.913 1.662-7.779 2.848-11.576 1.104-3.765 2.448-7.398 3.832-10.977s2.928-7.092 4.591-10.538a153.89 153.89 0 0 1 2.541-5.136c.879-1.703 1.757-3.34 2.795-5.163 1.143-2.117 3.081-3.693 5.387-4.382s4.791-.433 6.908.71 3.694 3.081 4.383 5.387a9.08 9.08 0 0 1-.71 6.908l-.16.186z" class="D"/><path d="M276.264 134.709c-19.574 4.937-27.678 32.479-27.678 32.479s5.576.094 12.868 5.895c8.103 6.427 15.089 5.948 15.089 5.948s5.057-3.207 6.867-18.03c.864-7.078-3.181-26.478-7.146-26.292z" class="E"/><g class="D"><path d="M273.257 229.605l11.31 4.218-8.662 11.616s-9.78-5.069-7.984-10.644l5.336-5.19z"/><path d="M289.877 245.266l-3.726 3.566a4.22 4.22 0 0 1-2.65 1.146c-.99.058-1.97-.234-2.766-.827l-4.83-3.645 8.662-11.616 5.323 5.402a4.18 4.18 0 0 1 .927 1.369c.215.513.324 1.064.323 1.621a4.17 4.17 0 0 1-.33 1.619c-.217.513-.535.977-.933 1.365z"/></g><path d="M315.465 75.419c-1.145 1.929-5.216 1.637-9.102-.665s-6.094-5.721-4.95-7.651 5.216-1.637 9.102.652 6.094 5.735 4.95 7.664z" class="E F"/><g opacity=".4" class="C G"><path d="M113.208 469.414l-.226.276 1.387.308-.187.214 1.38.29-.161.195.806.254c.192.04.399 0 .599.009.212.01.079.301.347.379.254.075.52.112.843.144l-.209.266 1.385.307-.175.194 1.737.451-.186.222 1.729.474-.178.223 1.732.465-.201.222 1.736.454-.197.231 1.706.437-.163.33c.482.011.967-.073 1.355.262l-.165.182 1.386.227-.18.371c.7-.086 1.314.086 1.882.418l-.18.204c.101.021.19.069.255.047.366-.124.645-.058.963.238.035.032.112.037.163.027.076-.016.174-.104.216-.08.19.111.381.271.598.117.224-.159.325-.444.556-.615.052-.038.008-.208.008-.286l.818-.312-1.369-.539c.291-.152.458-.054.663.068.141.083.371.015.549.015.09-.485-.295-.517-.502-.593-1.397-.507-2.708-1.197-4.039-1.841l-4.253-2.152-2.874-1.34-3.262-1.438-2.112-.911-2.046-.848-2.187-.932-4.127-1.631-2.715-1.101-3.982-1.564c-1.142-.483-2.348-.814-3.506-1.265l-2.906-1.056-5.224-1.881-3.368-1.179-5.029-1.729-3.001-1.034-3.68-1.252-5.512-1.806-4.106-1.47c-.182-.086-.417-.058-.608-.08-.209.533.493.394.462.834-.147-.053-.268-.116-.395-.138-.135-.022-.276-.005-.504-.005l.176.46c-.124.083-.351.064-.322.357.014.147.341.3.024.46.014.02.024.048.043.06.137.083.269.176.414.241.747.336 1.475.732 2.251.978l3.128 1.146 4.731 1.618 2.981 1.097-.174.193c.021.021.04.056.062.058l1.237.192 1.301.382-.271.318.378-.07c.1-.029.216-.129.29-.102l1.459.576-.241.286.38-.075c.1-.029.215-.127.29-.1l1.457.575-.242.289.383-.079c.1-.029.215-.124.29-.097l1.455.573-.243.293c.2-.043.316-.035.381-.089.122-.099.198-.112.362-.048l2.766 1.028-.175.2c.22.321.503-.354.781.059.111.166.49.151.782.227l-.176.214c.03.032.059.072.098.097.015.01.771-.007.799.003l2.023.739-.19.212c.661.006.957.069 1.534.326l-.163.181c.042.027.092.088.129.081.895-.168 1.612.397 2.416.596.424.106.816.34 1.223.516l-.163.193c.062.028.117.077.157.067.666-.163 1.269.14 1.81.393.698.326 1.479.442 2.119.904l-.186.218h1.192l.063.311c.21.258.737-.208.881.408l.542.005c.094.009.26.069.263.114.009.192.098.211.265.233.231.03.597-.199.648.28.003.026.146.041.225.053.242.038.589-.151.633.301l.738.064c.068.108.117.287.205.308.214.053.446.033.671.042.053.471.45.262.679.322.029.051.054.077.049.091-.009.024-.04.039-.057.062-.029.038-.052.079-.119.181h1.098l-.201.248c.134.302.537-.116.674.257s.482.108.72.183l.795.258c-.014-.027.01-.001.005.012-.01.025-.041.04-.057.063-.028.037-.052.079-.117.181h1.097zm-36.315 23.741c-3.087.485-2.582.122-2.5.361l-.773.284.584.406-.14.161c.038.028.081.087.12.084.956-.071 1.881.256 2.845.19s1.953-.103 2.91.014c.78.094 1.553.123 2.332.152.24.008.436-.194.728-.033.219.122.558.025.844.025h.943.857l.854.009c.021.001.041.038.113.11l-.721.093.003.108.894.021h.943c.053 0 .133.003.156-.028.316-.425.673-.373 1.094-.155.158.081.393.013.593.013l8.058.006c.292.002.63-.142.874.164.011.013.07.014.081 0 .241-.284.516.139.708-.011.248-.193.414-.159.648-.001.071.049.257-.038.373-.097.162-.083.152-.198.002-.299.029-.035.053-.09.09-.1.049-.014.139-.014.157.014.057.088.064.215.133.284.091.092.222.198.337.199.199.003.443-.162.586-.092.23.114.375.1.603.007.156-.064.386.089.585.092l2.374.005.212-.342.413.352c.334.084.912-.234 1.261.345l.282-.31c.678.189 1.333.217 1.988-.007.678.312 1.38.04 2.064.147-.015-.158-.051-.337-.029-.344.266-.089.224.154.299.317h.908l.12.329c.04-.02.096-.029.116-.061.163-.249.442-.35.661-.239.515.26 1.045.122 1.566.151.448.026.9.005 1.358.13l-.824.083c.628.055 1.296.409 1.766-.16.33.047.593.114.858.119l2.45.005.137.394.364-.549c.059.235.194.479.439.31.259-.178.408-.055.645-.008.434.086.898.025 1.362.136l-.649.102c.035.055.059.125.082.125l1.886-.005c.462-.028.909-.235 1.387-.161a.33.33 0 0 1 .231.131l-.688.072c.717.074 1.419.27 2.142.002.32-.119.72-.02 1.105.071l-.478.118c.028.044.051.114.074.115l.855-.001c.153-.362.382.175.615-.062.151-.155.467.208.773-.073.167-.153.589-.027.908.084l-.675.105c.05.055.08.118.112.119l1.286.008c.834.044 1.68.04 2.495.196.439.083.87.101 1.305.153.373.045.736.177.882.67.148 0 .479.059.508-.01.127-.301.514-.333.601-.592.082-.245.217-.32.419-.434.409-.23.498-.669.291-1.098l.338-.358c-.005-.062.012-.137-.017-.17-.321-.363-.696-.549-1.208-.613-.839-.104-1.658-.361-2.518-.32-.492-.301-1.038-.119-1.557-.175l-1.215-.162c-.398-.029-.842.101-1.19-.032-.502-.192-.994-.168-1.481-.131-.625.048-1.202-.204-1.816-.19-.628.015-1.283.117-1.88-.021-1.152-.266-2.312-.001-3.446-.164-1.407-.203-2.827-.006-4.214-.184-1.868-.24-3.729-.058-5.59-.141-.228-.01-.457.001-.686-.002-.192-.002-.403.051-.532-.163-.102.271-.323-.027-.501.103-.109.08-.381-.085-.584-.106-.226-.022-.456-.005-.685-.005h-.6-.685-.686-.6c-.229 0-.459-.016-.686.004-.268.025-.533-.065-.81.125-.134.091-.445-.115-.677-.122-.713-.019-1.428.006-2.142-.013-.266-.007-.565.124-.791-.162-.149-.187-.26.328-.485.047-.07-.088-.427-.103-.465-.039-.216.36-.46-.187-.624.035-.234.314-.379-.055-.567-.043-.106.006-.211.039-.317.06-.184.036-.478.162-.536.093-.235-.284-.509-.006-.766-.115-.266-.113-.614-.04-.926-.04-5.6-.001-11.2.007-16.8-.011-.747-.003-1.518.185-2.243-.162-.381.328-.758-.036-1.145-.019-1.197.053-2.398.019-3.679.019.043.134.069.326.112.33.605.056 1.191.222 1.814.199 1.256-.046 2.514-.015 3.771-.011.045.001.091.054.136.082-.057.029-.111.069-.172.084-.151.038-.29.228-.468.011-.046-.056-.218-.009-.332-.009-1.655 0-3.309 0-2.022.072 2.986.043 2.983.012 2.98-.018.265-.071.527-.165.798-.206.143-.021 1.05.01 1.181-.008.111-.016.282-.057.329-.003.233.269.529.158.796.159l12.177-.003c.238 0 .51.126.726-.111.041-.045.191-.067.22-.035.26.281.589.118.884.149.604.064 1.222-.103 1.822.16.169.074.428-.033.64-.08.408-.092.814-.158 1.211.03.139.065.311-.18.426.052.219-.276.587-.231.778-.131.318.167.548-.15.815-.028.048.022.12.015.15.049.141.162.242.125.426.025a.88.88 0 0 1 .648-.055c.245.09.541.159.729.12.293-.059.541.022.808.032 2.092.076 4.183-.104 6.278.153 1.563.192 3.147-.069 4.733.162 1.441.209 2.919-.054 4.387.176 1.158.182 2.353-.076 3.531.177.547.117 1.142-.016 1.71.03.521.043 1.03-.077 1.577.112.511.177 1.128.043 1.697.052.088.001.176.034.264.052-.116.117-.223.12-.329.116-1.006-.035-2.007.013-3.02-.144-1.216-.187-2.461.052-3.703-.171-1.153-.206-2.364.156-3.524-.202-.164-.05-.303.329-.464.014-.186.283-.36-.017-.539-.021-1.407-.029-2.821.141-4.219-.155-.187-.039-.468-.072-.575.03-.243.23-.362-.129-.573-.05-.175.066-.395.014-.595.014-1.143 0-2.287.009-3.43-.006-.294-.005-.621.129-.885-.148-.03-.03-.184.07-.284.092-.133.029-.349.103-.389.05-.16-.209-.254-.027-.39-.005s-.293-.144-.441-.144c-.239 0-.517-.119-.708.143-.166-.196-.394-.154-.608-.152s-.459-.071-.614.167c-.154-.243-.399-.166-.616-.166-1.429-.005-2.859.03-4.287-.012-1.406-.042-2.824.195-4.217-.162-.172.165-.395.076-.587.091-.248.021-.505-.083-.758-.084-.293-.001-.614-.101-.866.149-.28-.306-.645-.146-.964-.148l-11.319-.009c-.275 0-.551-.017-3.816-.099zm38.031-11.772l.294.517h-.82l-.02-.074.239-.061c.078-.016.157-.023.255-.037-.012-.103.002-.23-.036-.248-.189-.093-.386-.189-.59-.224l-1.385-.181c-.229-.034-.453-.102-.669-.152-.255.378.237.252.261.455-.594.214-1.104-.283-1.681-.191.382-.097.764-.232 1.202-.005-.053-.092-.082-.225-.161-.267-.161-.087-.345-.135-.525-.178-.294-.069-.618.121-.898-.111-.218-.181-.529.035-.78-.213-.126-.124-.476-.021-.755-.021.229.477.608.288.915.348.276.054.544.153.798.332-.621-.055-1.26-.041-1.86-.186l-1.723-.46 1.205-.066v-.104l-2.538-.4-.028.134 1.186.31c-.369.044-.742.247-1.089-.057-.771.032-1.515-.37-2.318-.142v.57c.141.063.295-.145.446.055.072.095.334-.105.4.167.018.074.172.19.197.175.418-.247.826.059 1.234.005.128-.017.248-.085.398-.139l.083.434c.241-.201.548.237.769-.103l.127.355c.308-.109.597-.328.948-.131l-.211.261 1.469-.195.554.553c.27-.003.383-.319.658-.059.216.203.562.296.866.366.195.045.427-.017.63-.073.144-.04.261.117.448-.043.197-.167.175.183.276.276.095.086.235.185.348.177.452-.034.879.205 1.332.11.023-.005.041-.039.06-.059.485.499 1.201.281 1.734.549.444.224.957-.066 1.335.298 1.229.264 2.487.407 3.673.858.73-.087 1.355.338 2.062.419.653.076 1.335.236 1.942.469 1.099.421 2.302.46 3.356.998.383-.083.618.138.881.371.146.128.402.131.574.18.37-.29.585-.679.999-.814l-.234-.909c-.948-.309-1.927-.722-2.988-.898-.491-.082-.95-.351-1.44-.438l-1.809-.387c-.648-.085-1.258-.297-1.886-.437l-1.174-.239c-.646-.095-1.246-.355-1.897-.416-.392-.036-.77-.205-1.158-.297-.265-.063-.56.104-.813-.112-.215-.183-.579.086-.758-.234-.48.084-.925-.108-1.386-.176-.119-.018-.231-.088-.524-.205z"/></g><g opacity=".4" class="C G"><path d="M138.116 118.298l-1.166 2.278c-.159.354-.399.834.135 1.109.627.323 1.22.081 1.509-.469 1.105-2.097 2.528-3.973 4.013-5.813 1.646-2.039 3.483-3.912 5.571-5.443 1.695-1.243 3.577-2.284 5.542-3.132 4.054-1.75 8.295-2.842 12.602-3.725.34-.07.711-.071.977-.344.115-.118.299-.215.214-.436-.078-.207-.263-.229-.437-.217-.425.028-.854.052-1.272.127-4.954.88-9.829 2.041-14.408 4.203-5.595 2.641-10.042 6.569-13.28 11.862zm7.396 1.954c-.209.529-.573.987-.656 1.574-.031.213-.066.397.122.543.689.535 1.781.271 2.278-.465 3.583-5.298 8.181-9.144 14.711-10.187.544-.087 1.098-.141 1.648-.155.477-.013 1.061-.078 1.076-.56.019-.61-.653-.507-1.066-.52-1.953-.062-3.845.332-5.711.864-4.506 1.283-8.199 3.821-11.247 7.337-.423.489-.771 1.043-1.155 1.569z"/></g><defs ><path id="B" d="M430.061 489.146a39.92 39.92 0 0 0-20.496 14.71c-5.062 6.991-7.722 15.433-7.581 24.062.03 1.351.373 2.676 1.002 3.872a8.74 8.74 0 0 0 2.624 3.017c1.097.79 2.361 1.314 3.695 1.531a8.72 8.72 0 0 0 3.989-.277l57.099-17.683a8.7 8.7 0 0 0 3.454-2.015c.979-.931 1.728-2.077 2.188-3.347a8.71 8.71 0 0 0-.905-7.731c-4.758-7.2-11.721-12.665-19.847-15.574a39.92 39.92 0 0 0-25.222-.565z"/><path id="C" d="M250.21 521.585h-55.674c-1.496.003-2.929.599-3.986 1.656s-1.653 2.49-1.656 3.985c.007 1.495.603 2.925 1.66 3.982a5.67 5.67 0 0 0 3.982 1.66h55.634c1.494-.007 2.925-.604 3.982-1.66a5.67 5.67 0 0 0 1.66-3.982 5.65 5.65 0 0 0-1.642-3.971c-1.049-1.056-2.472-1.656-3.96-1.67z"/><path id="D" d="M368.225 478.421l-20.558 4.511c-.408.09-.836.026-1.2-.18a1.69 1.69 0 0 1-.769-.938l-2.276-6.653a1.69 1.69 0 0 1-.089-.702c.02-.237.09-.468.205-.677a1.7 1.7 0 0 1 .466-.533 1.69 1.69 0 0 1 .642-.296l22.315-5.256c.241-.057.491-.06.733-.01a1.69 1.69 0 0 1 .669.298c.199.147.363.335.482.552a1.69 1.69 0 0 1 .205.703l.519 7.372c.035.413-.082.825-.329 1.159s-.608.564-1.015.65z"/><path id="E" d="M284.674 481.309l-21.025.332c-.438.008-.863-.154-1.185-.451a1.71 1.71 0 0 1-.545-1.145l-.465-6.946c-.015-.228.017-.457.093-.672a1.69 1.69 0 0 1 .348-.583c.154-.168.34-.305.548-.4a1.71 1.71 0 0 1 .661-.155l22.9-.718c.255-.006.508.045.741.148s.439.259.605.452a1.72 1.72 0 0 1 .352.668c.067.246.077.504.032.754l-1.384 7.332a1.7 1.7 0 0 1-.589.994c-.306.253-.691.39-1.087.39z"/></defs></svg>