<svg xmlns="http://www.w3.org/2000/svg" xmlns:xlink="http://www.w3.org/1999/xlink" width="636" height="636" fill="none" xmlns:v="https://vecta.io/nano"><style><![CDATA[.B{fill:#1c1f2c}.C{fill:#2e3242}.D{fill:#6366f1}.E{opacity:.3}.F{opacity:.4}.G{fill:#edf0f8}.H{fill:#4f556d}]]></style><path d="M466.574 475.431c8.786 5.301 17.501 10.735 26.887 14.892 6.055 2.678 12.604 4.653 19.254 4.875 5.401.174 13.056-1.138 15.828-6.753 1.699-3.447.583-7.753-1.761-10.802s-5.715-5.122-9-7.126l-47.541-28.928c-15.62-9.497-31.339-19.035-48.289-26.013-6.628-2.727-15.163-7.076-22.513-6.323-4.447.451-9.546 1.833-12.632 5.244-3.814 4.211-3.722 8.008.305 11.537 5.366 4.647 10.093 7.384 14.911 10.298l64.551 39.099z" class="B E"/><use xlink:href="#B" class="D"/><g class="B"><use xlink:href="#B" opacity=".6"/><path d="M428.324 410.196c0-10.095-6.151-21.845-13.744-26.196-.383-.217-.775-.415-1.178-.592l-.109-.054a6.88 6.88 0 0 0-.785-.31c-.201-.073-.392-.155-.593-.218l-.575-.155c-.265-.064-.52-.127-.776-.164l-.42-.064c-.303-.036-.607-.055-.912-.054h-.174-.547a16.13 16.13 0 0 0-7.431 2.104 16.07 16.07 0 0 0-5.592 5.314c-1.393 1.942-2.226 4.227-2.41 6.608a16.32 16.32 0 0 0-.155 2.13 1.38 1.38 0 0 0 0 .182v.2c0 10.095 6.151 21.845 13.744 26.196.402.228.794.419 1.177.601l.11.055c.265.118.529.209.785.3l.593.218c.192.064.383.11.575.155s.52.127.785.173l.411.055c.301 0 1.323.072 1.432.072h.183a16.11 16.11 0 0 0 7.436-2.101c2.271-1.292 4.192-3.117 5.596-5.317 1.389-1.943 2.219-4.228 2.4-6.608a16.18 16.18 0 0 0 .155-2.121c.005-.06.005-.121 0-.182v-.2l.019-.027z"/></g><path d="M414.947 426.203c6.067-2.575 7.284-13.335 2.72-24.034s-13.183-17.286-19.249-14.711-7.284 13.335-2.72 24.034 13.183 17.285 19.249 14.711z" class="G"/><g class="B"><path d="M410.692 421.828a8.5 8.5 0 0 1-4.207-1.256c-5.667-3.259-10.276-12.033-10.276-19.542 0-4.042 1.342-7.136 3.65-8.483 1.963-1.129 4.445-.911 7 .537 5.668 3.258 10.276 12.024 10.276 19.542 0 4.032-1.341 7.127-3.65 8.474a5.49 5.49 0 0 1-2.793.728h0zm-8.003-29.181c-.835-.011-1.657.199-2.382.61-2.081 1.201-3.277 4.032-3.277 7.773 0 7.282 4.427 15.701 9.866 18.832 2.29 1.32 4.481 1.502 6.178.528 2.081-1.201 3.276-4.032 3.276-7.764 0-7.282-4.426-15.701-9.865-18.832-1.143-.707-2.452-1.103-3.796-1.147h0z" class="F"/><path d="M411.504 411.561c-.05.329-.023.664.08.98s.279.604.513.84l1.059 1.047c-.266.834-.808 1.553-1.538 2.04a3.88 3.88 0 0 1-2.478.636l-.246-1.584a1.93 1.93 0 0 0-.34-.915c-.19-.271-.447-.488-.746-.632-.484-.127-.785.337-.675 1.038l.255 1.574a12.45 12.45 0 0 1-5.257-5.17l.804-.537a1 1 0 0 0 .264-.461c.045-.174.042-.358-.009-.531-.033-.225-.104-.444-.21-.646-.328-.674-.912-1.029-1.259-.783l-.812.537c-.538-1.305-.924-2.667-1.15-4.059-.212-1.252-.24-2.527-.082-3.787l1.058 1.047c.128.135.288.235.466.291.071.021.147.025.22.013s.144-.039.206-.081a.5.5 0 0 0 .222-.369c.054-.328.028-.665-.075-.982s-.281-.604-.519-.838l-1.058-1.047a3.87 3.87 0 0 1 1.545-2.035 3.89 3.89 0 0 1 2.479-.632l.247 1.575c.035.321.152.628.341.891a1.89 1.89 0 0 0 .736.611c.474.127.775-.337.666-1.029l-.256-1.584c2.234 1.158 4.066 2.959 5.257 5.17l-.803.547c-.13.124-.223.281-.27.454a.98.98 0 0 0 .005.529 2.75 2.75 0 0 0 .21.655c.338.674.913 1.019 1.26.783l.812-.546c.547 1.308.936 2.677 1.159 4.077.212 1.249.239 2.521.082 3.778l-1.068-1.047c-.122-.137-.28-.238-.456-.291-.074-.019-.151-.022-.226-.007s-.146.046-.207.091-.112.104-.147.171-.056.142-.059.218h0z"/><path d="M480.755 454.623l-75.912-43.69a6.58 6.58 0 0 1-1.989-2.289c-.475-.907-.732-1.912-.749-2.936 0-2.011 1.233-2.94 2.738-2.066l11.581 6.69 2.127.191 67.689 38.011-5.485 6.089z"/></g><path d="M412.974 414.246l-8.213-4.706c-.528-.374-.961-.868-1.262-1.44a4.11 4.11 0 0 1-.472-1.855h0c0-1.265.776-1.82 1.734-1.301l8.213 4.706a4.11 4.11 0 0 1 1.725 3.294h0c0 1.266-.766 1.848-1.725 1.302z" class="C"/><path d="M412.892 412.671l-8.004-4.614a1.38 1.38 0 0 1-.424-.481c-.102-.192-.156-.404-.16-.621 0-.427.265-.619.584-.437l8.004 4.615a1.38 1.38 0 0 1 .424.481 1.37 1.37 0 0 1 .16.621c0 .427-.265.618-.584.436z" class="D"/><path d="M480.764 454.623l11.471-6.608 5.476-6.135-11.472 6.608-5.475 6.135z" class="B"/><path d="M493.594 434.908l-58.535-33.678-15.113 8.711v2.348l58.526 33.678c5.266 3.031 12.923 3.541 17.093 1.138 1.78-1.029 2.629-2.421 2.62-3.914v-2.33c-.028-1.985-1.579-4.133-4.591-5.953z" class="C"/><use xlink:href="#C" class="D"/><use xlink:href="#C" class="B E"/><path d="M495.556 443.764c-4.17 2.403-11.864 1.903-17.093-1.128l-58.517-33.678 2.628-1.529 1.506-.865 6.918-3.987 4.043-2.339 58.526 33.678c5.284 3.031 6.16 7.445 1.989 9.848z" class="C"/><use xlink:href="#D" class="D"/><use xlink:href="#D" class="B F"/><use xlink:href="#E" class="C"/><g class="B"><use xlink:href="#E" opacity=".2"/><path d="M511.519 436.428a.48.48 0 0 1-.219-.055c-.067-.027-.127-.068-.178-.12a.53.53 0 0 1-.116-.179c-.027-.067-.039-.139-.037-.211a.54.54 0 0 1 .048-.209c3.368-7.582 2.163-12.597-.091-14.754-.739-.725-1.691-1.196-2.717-1.343s-2.073.036-2.987.524a.55.55 0 0 1-.419.026c-.138-.047-.252-.146-.316-.277s-.073-.28-.026-.418a.55.55 0 0 1 .277-.314 6 6 0 0 1 3.642-.62c1.249.181 2.408.752 3.312 1.63 2.519 2.421 3.925 7.891.329 15.992-.044.097-.114.179-.203.237a.56.56 0 0 1-.299.091z"/><path d="M514.586 439.168a.47.47 0 0 1-.219-.046.55.55 0 0 1-.176-.122c-.049-.051-.089-.112-.115-.179a.56.56 0 0 1-.038-.21c.002-.071.017-.142.046-.208 3.203-7.445 2.026-13.79.046-16.957-1.032-1.652-2.669-2.837-4.564-3.304-.825-.184-1.68-.198-2.512-.041a6.24 6.24 0 0 0-2.324.951.55.55 0 0 1-.389.039c-.131-.035-.243-.117-.316-.229a.55.55 0 0 1 .111-.72c.825-.552 1.754-.93 2.73-1.112a7.33 7.33 0 0 1 2.947.056c2.192.525 4.09 1.888 5.284 3.796 2.126 3.395 3.404 10.13 0 17.976a.57.57 0 0 1-.212.226c-.09.055-.194.084-.299.084h0zm12.43 27.852c0-10.103-6.151-21.845-13.744-26.205-.401-.227-.785-.409-1.177-.591l-.11-.055c-.264-.118-.52-.209-.784-.31l-.594-.209c-.191-.064-.383-.109-.575-.155s-.52-.127-.775-.173l-.42-.054c-.301 0-.602-.055-.913-.064h-.721c-2.612.086-5.164.806-7.433 2.099s-4.189 3.119-5.59 5.319c-1.391 1.94-2.224 4.222-2.409 6.599a16.33 16.33 0 0 0-.155 2.13c-.005.061-.005.122 0 .182v.201c0 10.103 6.151 21.845 13.744 26.204.401.228.794.41 1.177.592l.11.055c.264.118.529.209.784.309a6.13 6.13 0 0 0 .594.21 12.23 12.23 0 0 0 .575.154c.192.045.529.128.784.173l.411.055c.301 0 1.323.082 1.433.082h.182c2.614-.089 5.167-.812 7.438-2.106s4.191-3.121 5.595-5.322a13.03 13.03 0 0 0 2.4-6.599c.098-.705.15-1.417.155-2.13.005-.06.005-.121 0-.182v-.2l.018-.009z"/></g><path d="M513.638 483.032c6.067-2.575 7.284-13.335 2.719-24.034s-13.182-17.285-19.248-14.711-7.284 13.335-2.72 24.034 13.183 17.285 19.249 14.711z" class="G"/><g class="B"><path d="M509.383 478.662c-1.488-.048-2.938-.481-4.207-1.256-5.668-3.268-10.277-12.033-10.277-19.552 0-4.041 1.342-7.127 3.651-8.474 1.962-1.128 4.444-.91 7 .528 5.667 3.259 10.276 12.033 10.276 19.542 0 4.042-1.342 7.127-3.651 8.484a5.58 5.58 0 0 1-2.792.728h0zm-8.004-29.191a4.72 4.72 0 0 0-2.382.619c-2.081 1.202-3.276 4.032-3.276 7.764 0 7.282 4.426 15.701 9.865 18.833 2.291 1.319 4.481 1.51 6.179.537 2.08-1.202 3.276-4.033 3.276-7.774 0-7.281-4.426-15.701-9.865-18.832-1.144-.707-2.453-1.102-3.797-1.147h0z" class="F"/><path d="M510.204 468.394c-.054.329-.029.666.075.983a2.09 2.09 0 0 0 .518.838l1.05 1.047c-.267.833-.809 1.551-1.539 2.036a3.87 3.87 0 0 1-2.477.631l-.246-1.575c-.036-.32-.153-.626-.34-.888s-.437-.474-.728-.614c-.484-.127-.785.337-.675 1.029l.255 1.583a12.57 12.57 0 0 1-5.257-5.17l.804-.546c.128-.125.219-.283.264-.456s.042-.355-.009-.527a2.1 2.1 0 0 0-.21-.655c-.328-.674-.912-1.02-1.25-.783l-.821.546a18.45 18.45 0 0 1-1.15-4.068 13.03 13.03 0 0 1-.083-3.787l1.059 1.047c.125.138.286.239.466.291.071.022.146.028.219.017a.51.51 0 0 0 .206-.078c.062-.041.114-.095.153-.158a.52.52 0 0 0 .07-.209c.054-.328.029-.665-.074-.982s-.282-.604-.52-.838l-1.058-1.047c.269-.834.813-1.552 1.544-2.038s1.605-.711 2.48-.638l.247 1.584a1.91 1.91 0 0 0 .345.888c.189.263.44.474.732.614.474.127.775-.337.666-1.038l-.256-1.575c2.236 1.155 4.068 2.957 5.257 5.17l-.803.537c-.13.126-.223.286-.268.461a.98.98 0 0 0 .012.532 2.41 2.41 0 0 0 .201.646c.338.673.913 1.028 1.26.783l.821-.537c.54 1.307.926 2.672 1.15 4.068.212 1.249.239 2.521.082 3.778l-1.059-1.047a1.15 1.15 0 0 0-.465-.291.5.5 0 0 0-.426.068c-.062.041-.114.096-.152.16a.52.52 0 0 0-.07.208h0zm-5.821-40.95l-1.899-11.368-19.338 21.508c-1.022 1.129-.73 2.549.912 3.495 1.142.577 2.403.877 3.683.877a8.16 8.16 0 0 0 3.682-.877c.339-.192.647-.435.913-.719h0l12.047-12.916z"/></g><path d="M508.525 432.268l-5.22-30.574-6.543.364 2.646 15.529 1.899 11.368.684 3.75c.069.237.185.458.342.649s.351.348.571.462a5.16 5.16 0 0 0 4.645 0 1.5 1.5 0 0 0 .751-.609c.177-.28.256-.61.225-.939z" class="C"/><use xlink:href="#F" class="D"/><use xlink:href="#F" class="B E"/><g class="C"><path d="M501.735 431.267c.484 2.913-4.381 6.372-3.459 11.651l3.331 19.533c.593 2.913 2.2 5.17 4.18 5.661 1.533.319 2.793-.91 2.4-4.068l-3.395-19.907c-.456-2.685 4.782-4.551 6.389-4.241 2.137.819 4.077 2.078 5.694 3.695l-1.232-5.033c-1.332-5.461-7.109-6.199-7.839-10.449l-6.069 3.158z"/><path d="M507.084 464.517l-1.543-9.284c-.167-.624-.479-1.2-.91-1.683a4.14 4.14 0 0 0-1.572-1.093h0c-1.186-.446-2.008.073-1.825 1.156l1.542 9.284a4.13 4.13 0 0 0 .907 1.681 4.14 4.14 0 0 0 1.566 1.095c1.196.446 2.036-.073 1.835-1.156z"/></g><path d="M505.631 463.889l-1.506-9.102a1.39 1.39 0 0 0-.308-.552c-.144-.158-.323-.28-.522-.358-.402-.155-.675 0-.621.382l1.515 9.102c.057.206.162.396.306.555a1.35 1.35 0 0 0 .525.355h0c.438.155.675-.018.611-.382z" class="D"/><path d="M501.289 292.132l-3.185-5.461 13.461-7.746c.255-.125.539-.178.822-.154s.554.124.784.291a4.97 4.97 0 0 1 1.587 1.676 4.95 4.95 0 0 1 .658 2.21 1.59 1.59 0 0 1-.629 1.429h0l-13.498 7.755z" class="C"/><path d="M501.945 290.685c0 1.429-1.013 2.012-2.254 1.293a4.95 4.95 0 0 1-1.589-1.67 4.93 4.93 0 0 1-.656-2.208c0-1.429 1.004-2.011 2.245-1.301a4.97 4.97 0 0 1 1.591 1.675 4.96 4.96 0 0 1 .663 2.211z" class="B"/><path d="M499.335 288.264c-.184-.118-.404-.167-.62-.137l-13.179 7.564-.31.182 1.542 2.676 13.17-7.554.365-.228c.116-.16.171-.358.155-.555-.024-.389-.137-.768-.332-1.106a2.52 2.52 0 0 0-.791-.842h0z" class="C"/><path d="M502.647 401.649l-18.006-105.366-5.138.291 15.998 93.543 1.497 8.929.529 2.949a1.43 1.43 0 0 0 .269.532 1.44 1.44 0 0 0 .461.378c.566.287 1.191.436 1.826.436s1.259-.149 1.825-.436c.246-.097.452-.274.586-.501a1.18 1.18 0 0 0 .153-.755h0z" class="B"/><path d="M484.851 297.521h-5.193l1.634 9.53 4.125.974a13.22 13.22 0 0 0 1.268.218l-1.834-10.722z" fill="#000" class="E"/><path d="M480.262 297.539c.566.287 1.191.437 1.825.437s1.26-.15 1.826-.437a1.11 1.11 0 0 0 .546-.405 1.1 1.1 0 0 0 .208-.646c0-.232-.072-.458-.208-.647s-.326-.33-.546-.405a4.1 4.1 0 0 0-3.651 0c-.22.075-.411.217-.547.405s-.208.415-.208.647a1.11 1.11 0 0 0 .208.646c.136.189.327.33.547.405z" class="H"/><path d="M485.381 305.74c2.956.692 6.972.328 8.962-.819.839-.483 1.177-1.029 1.076-1.547l-1.369-8.101-20.241-.055 1.369 8.128 10.203 2.394z" class="B"/><g class="C"><path d="M484.049 297.612c2.957.692 6.964.327 8.953-.819.831-.474 1.177-1.011 1.086-1.52-.128-.729-1.113-1.402-2.847-1.821l-10.194-2.357-7.201 4.15 10.203 2.367zm-5.138 1.848l-15.049 8.683 1.533 2.658 15.04-8.62c.885-.501-.31-3.24-1.524-2.721z"/><path d="M456.816 317.218l-3.185-5.462 13.497-7.782a1.59 1.59 0 0 1 .828-.15c.285.026.557.128.788.296a4.94 4.94 0 0 1 1.589 1.67c.39.674.615 1.43.656 2.207a1.59 1.59 0 0 1-.127.797 1.6 1.6 0 0 1-.503.632h0l-13.543 7.792z"/></g><path d="M457.474 315.77c0 1.429-1.003 2.003-2.245 1.293a4.98 4.98 0 0 1-1.587-1.676 4.97 4.97 0 0 1-.658-2.211c0-1.429 1.004-2.011 2.245-1.292a4.94 4.94 0 0 1 1.59 1.675c.391.675.615 1.433.655 2.211z" class="B"/><path d="M497.528 298.631l-2.218-1.301a2.41 2.41 0 0 0-1.248-.146c-.422.062-.819.235-1.152.501a7.59 7.59 0 0 0-2.295 2.667 7.57 7.57 0 0 0-.845 3.413c-.022.424.069.847.263 1.226a2.41 2.41 0 0 0 .842.931h0l2.217 1.302c.397.156.828.205 1.25.141a2.41 2.41 0 0 0 1.15-.505c.966-.696 1.752-1.61 2.296-2.666a7.53 7.53 0 0 0 .835-3.415 2.37 2.37 0 0 0-.254-1.222 2.38 2.38 0 0 0-.841-.926h0z" class="C"/><path d="M493.047 307.205l-2.19-1.283a2.41 2.41 0 0 1-.842-.931c-.194-.379-.285-.801-.263-1.226a6.77 6.77 0 0 1 .667-3.049l2.263 1.301c-.456.951-.684 1.995-.666 3.05-.024.414.058.828.238 1.202s.453.696.793.936h0z" class="B"/><path d="M495.502 306.869c.965-.696 1.752-1.61 2.296-2.666s.83-2.227.834-3.415c-.1-2.175-1.679-2.985-3.514-1.82-.963.698-1.749 1.612-2.295 2.668s-.834 2.224-.844 3.412c.11 2.194 1.688 3.004 3.523 1.821z" class="C"/><use xlink:href="#G" class="B"/><path d="M495.492 299.569c.311-.214.667-.354 1.041-.41.187.355.29.747.301 1.147-.015 1.066-.277 2.114-.766 3.061a6.89 6.89 0 0 1-2.054 2.4 2.63 2.63 0 0 1-1.04.419c-.187-.358-.29-.753-.302-1.156a6.91 6.91 0 0 1 .769-3.06 6.92 6.92 0 0 1 2.051-2.401h0z" class="D"/><path d="M374.097 495.415c8.786 5.301 17.502 10.735 26.887 14.892 6.055 2.678 12.604 4.653 19.255 4.875 5.401.174 13.055-1.138 15.828-6.753 1.699-3.447.582-7.753-1.761-10.802s-5.716-5.122-9.001-7.126l-47.541-28.928c-15.62-9.497-31.338-19.035-48.288-26.014-6.628-2.726-15.163-7.075-22.514-6.322-4.447.45-9.546 1.833-12.632 5.244-3.814 4.211-3.721 8.007.305 11.537 5.367 4.647 10.093 7.384 14.911 10.298l64.551 39.099z" class="B E"/><use xlink:href="#H" class="D"/><g class="B"><use xlink:href="#H" opacity=".6"/><path d="M335.847 430.18c0-10.095-6.151-21.845-13.744-26.196-.382-.217-.775-.415-1.177-.592l-.11-.054a6.88 6.88 0 0 0-.785-.31c-.2-.073-.392-.155-.593-.218l-.575-.155c-.264-.064-.52-.128-.775-.164l-.42-.064a7.53 7.53 0 0 0-.913-.054h-.173-.548c-2.611.089-5.161.811-7.43 2.104s-4.189 3.116-5.593 5.314a13.06 13.06 0 0 0-2.409 6.608c-.099.706-.15 1.417-.155 2.13-.005.061-.005.121 0 .182v.2c0 10.094 6.151 21.845 13.744 26.196.401.228.794.419 1.177.601l.109.054c.265.119.53.21.785.301l.594.218c.191.064.383.109.574.155s.521.127.785.173l.411.054c.301 0 1.323.073 1.433.073h.182c2.613-.087 5.166-.808 7.437-2.101s4.191-3.117 5.596-5.317c1.389-1.943 2.219-4.228 2.4-6.608a16.18 16.18 0 0 0 .155-2.121c.005-.06.005-.121 0-.182v-.2l.018-.027z"/></g><path d="M322.471 446.186c6.067-2.574 7.284-13.334 2.719-24.033s-13.182-17.286-19.248-14.711-7.284 13.334-2.72 24.034 13.183 17.285 19.249 14.71z" class="G"/><g class="B"><path d="M318.216 441.812c-1.489-.043-2.94-.477-4.207-1.256-5.668-3.259-10.277-12.033-10.277-19.542 0-4.042 1.342-7.136 3.651-8.483 1.962-1.129 4.444-.911 7 .537 5.667 3.258 10.276 12.023 10.276 19.542 0 4.032-1.342 7.127-3.651 8.474-.848.487-1.813.739-2.792.728h0zm-8.004-29.181a4.71 4.71 0 0 0-2.382.61c-2.081 1.201-3.276 4.032-3.276 7.773 0 7.281 4.426 15.701 9.865 18.832 2.291 1.32 4.481 1.502 6.179.528 2.08-1.202 3.276-4.032 3.276-7.764 0-7.282-4.426-15.701-9.865-18.832a7.69 7.69 0 0 0-3.797-1.147h0z" class="F"/><path d="M319.027 431.545c-.05.329-.023.664.081.98a2.12 2.12 0 0 0 .513.84l1.058 1.047c-.266.834-.808 1.553-1.537 2.04a3.88 3.88 0 0 1-2.478.636l-.247-1.584a1.92 1.92 0 0 0-.34-.915c-.19-.271-.447-.489-.746-.632-.483-.127-.784.337-.675 1.038l.256 1.574a12.45 12.45 0 0 1-5.257-5.17l.803-.537a1 1 0 0 0 .265-.461c.045-.174.041-.358-.009-.531-.034-.225-.105-.444-.21-.646-.329-.674-.913-1.029-1.26-.783l-.812.537a18.43 18.43 0 0 1-1.15-4.059c-.212-1.252-.239-2.527-.082-3.787l1.059 1.047a1.09 1.09 0 0 0 .465.291c.072.02.147.025.221.013s.143-.039.205-.081.114-.096.152-.16a.52.52 0 0 0 .07-.209c.054-.328.028-.665-.075-.982a2.08 2.08 0 0 0-.518-.838l-1.059-1.047a3.87 3.87 0 0 1 1.545-2.035 3.89 3.89 0 0 1 2.48-.632l.246 1.575c.035.321.153.628.342.891a1.88 1.88 0 0 0 .735.611c.475.127.776-.337.666-1.029l-.255-1.584a12.51 12.51 0 0 1 5.256 5.17l-.803.546a.98.98 0 0 0-.264.984c.042.226.112.446.21.655.337.673.912 1.019 1.259.783l.812-.546c.547 1.308.937 2.677 1.159 4.077a12.93 12.93 0 0 1 .082 3.778l-1.067-1.047a1 1 0 0 0-.457-.291c-.074-.019-.151-.022-.226-.007s-.145.046-.207.091-.111.104-.147.171-.055.142-.059.218h0z"/><path d="M388.278 474.607l-75.911-43.69c-.833-.598-1.514-1.382-1.99-2.289a6.56 6.56 0 0 1-.748-2.936c0-2.011 1.232-2.94 2.738-2.066l11.581 6.69 2.126.191 67.689 38.011-5.485 6.089z"/></g><path d="M320.498 434.23l-8.214-4.706a4.12 4.12 0 0 1-1.262-1.441c-.301-.572-.463-1.207-.472-1.854h0c0-1.265.776-1.82 1.734-1.301l8.214 4.705c.526.377.956.871 1.256 1.443s.46 1.207.469 1.852h0c0 1.266-.767 1.848-1.725 1.302z" class="C"/><path d="M320.415 432.655l-8.003-4.614c-.178-.125-.323-.29-.425-.481s-.156-.404-.159-.621c0-.428.264-.619.584-.437l8.003 4.615c.178.125.323.29.425.481a1.37 1.37 0 0 1 .159.62c0 .428-.264.619-.584.437z" class="D"/><path d="M388.287 474.607l11.472-6.608 5.475-6.135-11.471 6.608-5.476 6.135z" class="B"/><path d="M401.118 454.892l-58.536-33.678-15.113 8.711v2.348l58.527 33.678c5.265 3.031 12.922 3.541 17.093 1.138 1.78-1.029 2.628-2.422 2.619-3.914v-2.33c-.027-1.985-1.579-4.133-4.59-5.953z" class="C"/><use xlink:href="#I" class="D"/><use xlink:href="#I" class="B E"/><path d="M403.08 463.748c-4.171 2.403-11.864 1.902-17.094-1.129l-58.517-33.677 2.629-1.529 1.505-.865 6.918-3.987 4.043-2.339L401.09 453.9c5.284 3.031 6.16 7.445 1.99 9.848z" class="C"/><use xlink:href="#J" class="D"/><use xlink:href="#J" class="B F"/><use xlink:href="#K" class="C"/><g class="B"><use xlink:href="#K" opacity=".2"/><path d="M419.042 456.412c-.076-.001-.151-.02-.219-.055a.52.52 0 0 1-.294-.299c-.026-.068-.039-.139-.037-.211a.54.54 0 0 1 .049-.209c3.367-7.582 2.162-12.597-.092-14.754-.739-.725-1.691-1.196-2.717-1.343s-2.072.036-2.987.523a.55.55 0 0 1-.419.027c-.138-.047-.251-.146-.315-.277s-.074-.281-.027-.418a.55.55 0 0 1 .278-.315c1.118-.584 2.392-.801 3.641-.619a5.99 5.99 0 0 1 3.313 1.63c2.519 2.421 3.924 7.891.328 15.992a.55.55 0 0 1-.203.237c-.088.058-.192.09-.299.091z"/><path d="M422.109 459.152a.49.49 0 0 1-.219-.046c-.066-.029-.125-.07-.175-.122s-.089-.112-.116-.179a.54.54 0 0 1-.037-.21.55.55 0 0 1 .045-.208c3.204-7.446 2.026-13.79.046-16.957a7.49 7.49 0 0 0-4.563-3.304 6.25 6.25 0 0 0-2.512-.042c-.832.157-1.623.481-2.325.952a.55.55 0 0 1-.705-.19.54.54 0 0 1-.082-.382c.021-.133.09-.253.194-.338a7.31 7.31 0 0 1 2.729-1.112 7.33 7.33 0 0 1 2.947.056c2.193.525 4.09 1.888 5.284 3.795 2.127 3.396 3.404 10.131 0 17.977a.57.57 0 0 1-.511.31h0zm12.431 27.852c0-10.103-6.151-21.845-13.744-26.205-.402-.228-.785-.41-1.178-.592l-.109-.054c-.265-.119-.52-.21-.785-.31l-.593-.209c-.192-.064-.384-.109-.575-.155s-.52-.127-.776-.173l-.42-.054c-.301 0-.602-.055-.912-.064h-.721c-2.613.086-5.164.806-7.434 2.099a16.04 16.04 0 0 0-5.589 5.319c-1.391 1.94-2.224 4.222-2.41 6.599a16.69 16.69 0 0 0-.155 2.13 1.38 1.38 0 0 0 0 .182v.2c0 10.104 6.151 21.845 13.744 26.205.402.228.794.41 1.177.592l.11.055c.265.118.529.209.785.309a5.83 5.83 0 0 0 .593.209c.192.055.383.11.575.155s.529.128.785.173l.411.055c.301 0 1.323.082 1.432.082h.183a16.13 16.13 0 0 0 7.437-2.107c2.271-1.294 4.191-3.12 5.595-5.321 1.389-1.94 2.219-4.222 2.4-6.599a16.32 16.32 0 0 0 .155-2.13c.005-.06.005-.121 0-.182v-.2l.019-.009z"/></g><path d="M421.162 503.016c6.066-2.575 7.283-13.335 2.719-24.034s-13.183-17.285-19.249-14.711-7.284 13.335-2.719 24.034 13.182 17.285 19.249 14.711z" class="G"/><g class="B"><path d="M416.906 498.646c-1.488-.048-2.938-.481-4.207-1.256-5.667-3.268-10.276-12.033-10.276-19.552 0-4.041 1.341-7.127 3.65-8.474 1.962-1.129 4.445-.91 7 .528 5.668 3.259 10.276 12.033 10.276 19.542 0 4.042-1.341 7.127-3.65 8.483a5.58 5.58 0 0 1-2.793.729h0zm-8.004-29.191a4.72 4.72 0 0 0-2.381.619c-2.081 1.202-3.277 4.032-3.277 7.764 0 7.282 4.426 15.701 9.866 18.832 2.29 1.32 4.481 1.511 6.178.537 2.081-1.201 3.276-4.032 3.276-7.773 0-7.281-4.426-15.701-9.865-18.832-1.143-.707-2.452-1.103-3.797-1.147h0z" class="F"/><path d="M417.727 488.378a2.08 2.08 0 0 0 .075.982c.103.317.281.605.519.839l1.049 1.047a3.85 3.85 0 0 1-1.539 2.036c-.729.484-1.603.707-2.476.63l-.247-1.574a1.91 1.91 0 0 0-.339-.889c-.187-.262-.438-.473-.729-.613-.483-.128-.785.337-.675 1.028l.256 1.584c-2.232-1.16-4.063-2.961-5.257-5.17l.803-.546c.128-.125.22-.283.265-.456s.042-.355-.009-.527c-.034-.228-.105-.45-.21-.655-.329-.674-.913-1.02-1.251-.783l-.821.546c-.538-1.308-.924-2.673-1.15-4.069a13.02 13.02 0 0 1-.082-3.786l1.059 1.047c.125.138.286.238.465.291.071.022.146.028.22.017a.5.5 0 0 0 .358-.236c.039-.064.062-.135.07-.209a2.06 2.06 0 0 0-.074-.982c-.103-.317-.281-.605-.519-.838l-1.059-1.047a3.88 3.88 0 0 1 1.544-2.038c.731-.486 1.605-.711 2.481-.638l.246 1.584c.039.32.158.626.346.888s.439.474.731.614c.475.127.776-.337.666-1.038l-.255-1.575a12.45 12.45 0 0 1 5.256 5.17l-.803.537c-.13.126-.222.286-.267.461s-.041.359.012.531a2.37 2.37 0 0 0 .201.647c.337.673.912 1.028 1.259.782l.821-.537c.541 1.308.927 2.673 1.15 4.069.212 1.248.24 2.521.082 3.777l-1.058-1.046c-.13-.133-.289-.233-.466-.292-.071-.02-.147-.024-.22-.013s-.144.04-.206.081a.54.54 0 0 0-.152.16.52.52 0 0 0-.07.209h0zm-5.821-40.95l-1.898-11.368-19.339 21.508c-1.022 1.128-.73 2.548.913 3.495a8.16 8.16 0 0 0 3.682.877c1.28 0 2.541-.3 3.683-.877a3.85 3.85 0 0 0 .912-.719h0l12.047-12.916z"/></g><path d="M416.049 452.252l-5.22-30.574-6.544.364 2.647 15.528 1.898 11.369.684 3.75c.069.237.185.458.342.649s.351.348.571.462a5.16 5.16 0 0 0 4.645 0 1.51 1.51 0 0 0 .752-.609c.176-.28.255-.61.225-.939z" class="C"/><use xlink:href="#L" class="D"/><use xlink:href="#L" class="B E"/><g class="C"><use xlink:href="#M"/><path d="M414.607 484.501l-1.542-9.284a4.14 4.14 0 0 0-.91-1.683c-.431-.482-.97-.856-1.572-1.093h0c-1.187-.446-2.008.072-1.826 1.156l1.543 9.284c.166.623.477 1.198.906 1.68a4.13 4.13 0 0 0 1.567 1.096c1.195.446 2.035-.073 1.834-1.156z"/></g><path d="M413.155 483.873l-1.506-9.102a1.39 1.39 0 0 0-.309-.552c-.144-.158-.322-.28-.522-.358-.401-.155-.675 0-.62.382l1.515 9.102a1.34 1.34 0 0 0 .306.554c.144.159.324.281.524.356h0c.438.155.676-.018.612-.382z" class="D"/><path d="M408.812 312.116l-3.185-5.461 13.462-7.746c.254-.125.539-.179.822-.154s.554.124.784.291a4.98 4.98 0 0 1 1.587 1.676c.39.675.615 1.432.658 2.21a1.58 1.58 0 0 1-.128.797 1.59 1.59 0 0 1-.502.632h0l-13.498 7.755z" class="C"/><path d="M409.468 310.669c0 1.429-1.013 2.012-2.254 1.293-.654-.424-1.199-.997-1.589-1.671a4.92 4.92 0 0 1-.656-2.207c0-1.429 1.004-2.012 2.245-1.302.655.427 1.2 1.001 1.592 1.676a4.97 4.97 0 0 1 .662 2.211z" class="B"/><path d="M406.859 308.248c-.184-.118-.404-.167-.621-.137l-13.178 7.564-.31.182 1.542 2.676 13.169-7.554.365-.228c.117-.161.172-.358.155-.555a2.51 2.51 0 0 0-.332-1.106c-.194-.338-.465-.626-.79-.842h0z" class="C"/><path d="M410.17 421.633l-18.006-105.366-5.138.291 15.999 93.542 1.496 8.93.53 2.949a1.43 1.43 0 0 0 .268.532c.126.157.283.285.462.378a4.03 4.03 0 0 0 3.65 0 1.19 1.19 0 0 0 .587-.501 1.18 1.18 0 0 0 .152-.755h0z" class="B"/><path d="M392.375 317.505h-5.193l1.634 9.53 4.125.974a13.22 13.22 0 0 0 1.268.218l-1.834-10.722z" fill="#000" class="E"/><path d="M387.786 317.523a4.03 4.03 0 0 0 3.65 0c.22-.075.411-.216.547-.405a1.11 1.11 0 0 0 .208-.646c0-.232-.073-.458-.208-.647s-.327-.33-.547-.405a4.1 4.1 0 0 0-1.825-.43c-.634 0-1.259.148-1.825.43-.221.075-.412.217-.547.405s-.208.415-.208.647a1.11 1.11 0 0 0 .755 1.051z" class="H"/><path d="M392.904 325.724c2.957.692 6.972.328 8.962-.819.84-.483 1.177-1.029 1.077-1.548l-1.369-8.1-20.242-.055 1.369 8.128 10.203 2.394z" class="B"/><g class="C"><path d="M391.573 317.596c2.957.691 6.963.327 8.952-.819.831-.474 1.178-1.011 1.086-1.521-.127-.728-1.113-1.401-2.847-1.82l-10.194-2.357-7.2 4.15 10.203 2.367zm-5.139 1.847l-15.049 8.684 1.533 2.658 15.04-8.62c.886-.501-.31-3.24-1.524-2.722z"/><path d="M364.339 337.202l-3.185-5.462 13.498-7.782c.257-.124.543-.175.828-.15s.556.128.787.296a4.93 4.93 0 0 1 1.589 1.67c.39.674.615 1.43.656 2.207a1.59 1.59 0 0 1-.629 1.429h0l-13.544 7.792z"/></g><path d="M364.998 335.754c0 1.429-1.004 2.003-2.245 1.293a4.97 4.97 0 0 1-1.587-1.676c-.39-.675-.616-1.433-.658-2.211 0-1.429 1.004-2.011 2.245-1.292a4.94 4.94 0 0 1 1.59 1.675c.39.675.615 1.433.655 2.211z" class="B"/><path d="M405.051 318.615l-2.218-1.301c-.395-.158-.826-.209-1.248-.146a2.41 2.41 0 0 0-1.152.501c-.964.697-1.75 1.611-2.295 2.667a7.58 7.58 0 0 0-.844 3.413c-.022.424.068.847.262 1.226a2.42 2.42 0 0 0 .842.931h0l2.218 1.302a2.42 2.42 0 0 0 1.249.141c.422-.064.819-.238 1.151-.506a7.54 7.54 0 0 0 2.296-2.665c.544-1.057.83-2.227.834-3.415a2.37 2.37 0 0 0-.254-1.223c-.193-.377-.483-.697-.841-.925h0z" class="C"/><path d="M400.57 327.189l-2.19-1.283a2.42 2.42 0 0 1-.843-.931c-.193-.379-.284-.802-.262-1.226-.018-1.054.21-2.098.666-3.049l2.264 1.301c-.456.951-.684 1.995-.666 3.049a2.45 2.45 0 0 0 .238 1.203c.18.374.453.696.793.936h0z" class="B"/><path d="M403.025 326.853c.965-.696 1.752-1.61 2.296-2.666s.83-2.227.834-3.415c-.1-2.175-1.679-2.985-3.513-1.82a7.59 7.59 0 0 0-2.295 2.667 7.57 7.57 0 0 0-.845 3.413c.11 2.194 1.689 3.004 3.523 1.821z" class="C"/><path d="M401.483 326.707c-1.077.045-1.26-1.165-1.287-1.693a6.88 6.88 0 0 1 .769-3.06 6.92 6.92 0 0 1 2.051-2.401 2.45 2.45 0 0 1 1.168-.428c1.077-.055 1.259 1.156 1.278 1.684-.013 1.065-.274 2.113-.761 3.06a6.89 6.89 0 0 1-2.05 2.401 2.52 2.52 0 0 1-1.168.437z" class="B"/><path d="M403.016 319.553c.311-.214.667-.354 1.04-.41a2.61 2.61 0 0 1 .301 1.147c-.014 1.066-.276 2.114-.766 3.061s-1.192 1.769-2.054 2.4a2.62 2.62 0 0 1-1.04.419 2.65 2.65 0 0 1-.301-1.156c.016-1.065.279-2.113.769-3.06a6.92 6.92 0 0 1 2.051-2.401h0z" class="D"/><path d="M281.621 515.399c8.786 5.301 17.501 10.735 26.887 14.892 6.055 2.678 12.604 4.653 19.254 4.875 5.401.174 13.055-1.138 15.828-6.753 1.699-3.447.583-7.753-1.761-10.802s-5.716-5.122-9-7.126l-47.541-28.928c-15.62-9.497-31.339-19.035-48.289-26.014-6.628-2.726-15.163-7.075-22.513-6.322-4.447.45-9.547 1.833-12.633 5.244-3.813 4.211-3.721 8.008.306 11.537 5.366 4.647 10.093 7.384 14.911 10.298l64.551 39.099z" class="B E"/><use xlink:href="#N" class="D"/><g class="B"><use xlink:href="#N" opacity=".6"/><path d="M243.371 450.164c0-10.095-6.152-21.845-13.744-26.196-.383-.217-.776-.415-1.178-.592l-.109-.054c-.255-.119-.518-.223-.785-.31-.201-.073-.393-.155-.593-.218l-.575-.155c-.265-.064-.52-.128-.776-.164l-.42-.064c-.303-.036-.607-.055-.912-.054h-.174-.547c-2.612.089-5.162.811-7.431 2.104a16.08 16.08 0 0 0-5.593 5.314 13.07 13.07 0 0 0-2.409 6.608 16.32 16.32 0 0 0-.155 2.13 1.38 1.38 0 0 0 0 .182v.2c0 10.094 6.151 21.845 13.744 26.196.402.228.794.419 1.177.601l.11.054c.265.119.529.21.785.301l.593.218c.192.064.383.109.575.155s.52.127.785.173l.41.055c.302 0 1.324.072 1.433.072h.183a16.11 16.11 0 0 0 7.436-2.101c2.271-1.292 4.192-3.117 5.596-5.317 1.389-1.943 2.219-4.228 2.4-6.608a16.18 16.18 0 0 0 .155-2.121c.005-.06.005-.121 0-.182v-.2l.019-.027z"/></g><path d="M229.995 466.17c6.066-2.574 7.283-13.334 2.719-24.033s-13.183-17.286-19.249-14.711-7.284 13.334-2.719 24.034 13.182 17.285 19.249 14.71z" class="G"/><g class="B"><path d="M225.739 461.796a8.5 8.5 0 0 1-4.207-1.256c-5.667-3.259-10.276-12.033-10.276-19.542 0-4.042 1.341-7.136 3.65-8.483 1.962-1.129 4.445-.911 7 .537 5.668 3.258 10.276 12.023 10.276 19.542 0 4.032-1.341 7.127-3.65 8.474a5.49 5.49 0 0 1-2.793.728h0zm-8.004-29.181a4.7 4.7 0 0 0-2.381.61c-2.081 1.201-3.277 4.032-3.277 7.773 0 7.281 4.426 15.701 9.866 18.832 2.29 1.32 4.481 1.502 6.178.528 2.081-1.202 3.276-4.032 3.276-7.764 0-7.282-4.426-15.701-9.865-18.832-1.143-.708-2.452-1.103-3.797-1.147h0z" class="F"/><path d="M226.551 451.529a2.13 2.13 0 0 0 .08.98c.103.316.279.604.513.84l1.059 1.047c-.266.834-.808 1.553-1.538 2.04a3.88 3.88 0 0 1-2.478.636l-.246-1.584a1.93 1.93 0 0 0-.34-.915c-.191-.271-.447-.489-.746-.632-.484-.127-.785.337-.676 1.038l.256 1.574c-2.235-1.154-4.068-2.957-5.257-5.17l.803-.537a.99.99 0 0 0 .265-.461c.045-.174.042-.358-.009-.531-.034-.225-.105-.444-.21-.646-.328-.674-.913-1.029-1.259-.783l-.813.537a18.43 18.43 0 0 1-1.149-4.059 13.03 13.03 0 0 1-.083-3.787l1.059 1.047c.128.135.288.235.465.291.072.02.147.025.221.013a.5.5 0 0 0 .205-.081c.062-.042.114-.096.152-.16a.49.49 0 0 0 .07-.209 2.07 2.07 0 0 0-.074-.982c-.103-.317-.281-.604-.519-.838l-1.058-1.047a3.87 3.87 0 0 1 1.545-2.035 3.89 3.89 0 0 1 2.479-.632l.247 1.575c.035.321.152.628.341.891a1.89 1.89 0 0 0 .736.611c.474.127.775-.337.666-1.029l-.256-1.584a12.51 12.51 0 0 1 5.257 5.17l-.803.546a.99.99 0 0 0-.27.455.98.98 0 0 0 .005.529 2.75 2.75 0 0 0 .21.655c.338.673.913 1.019 1.259.783l.813-.546c.547 1.308.936 2.677 1.159 4.077.212 1.249.239 2.521.082 3.778l-1.068-1.047c-.122-.137-.28-.238-.456-.291-.074-.019-.151-.022-.226-.007s-.146.045-.207.091-.112.104-.147.171-.056.142-.059.218h0z"/><path d="M295.802 494.591l-75.912-43.69a6.57 6.57 0 0 1-1.989-2.289c-.475-.907-.732-1.912-.749-2.936 0-2.011 1.232-2.94 2.738-2.066l11.581 6.69 2.127.191 67.689 38.011-5.485 6.089z"/></g><path d="M228.021 454.214l-8.213-4.706a4.1 4.1 0 0 1-1.262-1.441c-.301-.572-.463-1.207-.472-1.854h0c0-1.265.775-1.82 1.734-1.301l8.213 4.705c.526.377.957.871 1.256 1.443a4.11 4.11 0 0 1 .469 1.852h0c0 1.266-.766 1.848-1.725 1.302z" class="C"/><path d="M227.939 452.639l-8.004-4.614a1.38 1.38 0 0 1-.424-.481c-.102-.192-.156-.404-.16-.621 0-.428.265-.619.584-.437l8.004 4.615a1.38 1.38 0 0 1 .424.481 1.37 1.37 0 0 1 .16.62c0 .428-.265.619-.584.437z" class="D"/><path d="M295.811 494.591l11.471-6.608 5.476-6.135-11.472 6.608-5.475 6.135z" class="B"/><path d="M308.641 474.876l-58.535-33.678-15.113 8.711v2.348l58.526 33.678c5.266 3.031 12.923 3.54 17.093 1.138 1.78-1.029 2.629-2.422 2.62-3.914v-2.33c-.028-1.985-1.579-4.133-4.591-5.953z" class="C"/><use xlink:href="#C" x="-184.953" y="39.968" class="D"/><use xlink:href="#C" x="-184.953" y="39.968" class="B E"/><path d="M310.603 483.732c-4.17 2.403-11.864 1.902-17.093-1.129l-58.517-33.677 2.628-1.529 1.506-.865 6.917-3.987 4.043-2.339 58.527 33.678c5.284 3.031 6.16 7.445 1.989 9.848z" class="C"/><use xlink:href="#O" class="D"/><use xlink:href="#O" class="B F"/><use xlink:href="#P" class="C"/><g class="B"><use xlink:href="#P" opacity=".2"/><path d="M326.566 476.396c-.076-.001-.151-.02-.219-.055-.067-.027-.127-.068-.178-.12a.55.55 0 0 1-.117-.179c-.026-.068-.039-.139-.037-.211a.54.54 0 0 1 .049-.209c3.368-7.582 2.163-12.597-.091-14.754-.739-.725-1.691-1.196-2.718-1.343a4.88 4.88 0 0 0-2.986.523.55.55 0 0 1-.419.027c-.138-.047-.252-.146-.316-.277a.54.54 0 0 1-.026-.418.55.55 0 0 1 .277-.315 6 6 0 0 1 3.642-.619 5.99 5.99 0 0 1 3.312 1.63c2.519 2.421 3.925 7.891.329 15.992-.044.097-.114.179-.203.237a.56.56 0 0 1-.299.091z"/><path d="M329.633 479.136c-.076.002-.151-.014-.219-.046a.55.55 0 0 1-.176-.122.53.53 0 0 1-.115-.179.56.56 0 0 1-.038-.21.55.55 0 0 1 .046-.208c3.203-7.446 2.026-13.79.045-16.957-1.031-1.652-2.668-2.838-4.563-3.304a6.25 6.25 0 0 0-2.512-.042 6.26 6.26 0 0 0-2.325.952.55.55 0 0 1-.705-.19c-.073-.113-.102-.249-.082-.382a.54.54 0 0 1 .194-.338 7.32 7.32 0 0 1 2.729-1.112c.976-.181 1.979-.162 2.948.056 2.192.525 4.09 1.888 5.284 3.795 2.126 3.396 3.404 10.131 0 17.977-.049.093-.122.172-.212.226s-.194.084-.299.084h0zm12.43 27.852c0-10.103-6.151-21.845-13.744-26.205-.402-.227-.785-.41-1.177-.592l-.11-.054c-.264-.119-.52-.21-.785-.31l-.593-.209c-.191-.064-.383-.109-.575-.155s-.52-.127-.775-.173l-.42-.054c-.301 0-.603-.055-.913-.064h-.721c-2.612.086-5.164.806-7.433 2.099s-4.189 3.119-5.59 5.319c-1.391 1.94-2.224 4.222-2.409 6.599a16.33 16.33 0 0 0-.155 2.13c-.005.061-.005.122 0 .182v.2c0 10.104 6.151 21.845 13.744 26.205.401.228.794.41 1.177.592l.109.055c.265.118.53.209.785.309s.402.155.593.209.384.11.575.155.53.128.785.173l.411.055c.301 0 1.323.082 1.433.082h.182a16.14 16.14 0 0 0 7.437-2.106 16.09 16.09 0 0 0 5.596-5.322c1.389-1.94 2.219-4.222 2.4-6.599a16.32 16.32 0 0 0 .155-2.13 1.38 1.38 0 0 0 0-.182v-.2l.018-.009z"/></g><path d="M328.685 523c6.066-2.575 7.284-13.335 2.719-24.034s-13.182-17.285-19.249-14.711-7.283 13.335-2.719 24.034 13.183 17.285 19.249 14.711z" class="G"/><g class="B"><path d="M324.43 518.63c-1.488-.048-2.938-.481-4.207-1.256-5.667-3.268-10.276-12.033-10.276-19.552 0-4.041 1.341-7.127 3.65-8.474 1.962-1.129 4.445-.91 7 .528 5.667 3.259 10.276 12.033 10.276 19.542 0 4.042-1.341 7.127-3.65 8.483a5.58 5.58 0 0 1-2.793.729h0zm-8.004-29.191a4.72 4.72 0 0 0-2.382.619c-2.08 1.202-3.276 4.032-3.276 7.764 0 7.282 4.426 15.701 9.866 18.832 2.29 1.32 4.48 1.511 6.178.537 2.081-1.201 3.276-4.032 3.276-7.773 0-7.281-4.426-15.701-9.865-18.832-1.143-.707-2.452-1.103-3.797-1.147h0z" class="F"/><path d="M325.251 508.362a2.08 2.08 0 0 0 .074.982 2.09 2.09 0 0 0 .519.839l1.049 1.047a3.85 3.85 0 0 1-1.538 2.036 3.87 3.87 0 0 1-2.477.63l-.246-1.574a1.9 1.9 0 0 0-.34-.889c-.187-.262-.437-.473-.728-.613-.484-.128-.785.337-.676 1.028l.256 1.584a12.56 12.56 0 0 1-5.257-5.17l.803-.546c.129-.125.22-.283.265-.456s.042-.355-.009-.527c-.034-.228-.105-.45-.21-.655-.329-.674-.913-1.02-1.25-.783l-.822.546c-.537-1.308-.923-2.673-1.15-4.069-.211-1.251-.239-2.527-.082-3.786l1.059 1.047c.125.138.286.238.465.291.071.022.146.028.22.017s.144-.037.206-.078.114-.095.153-.158a.5.5 0 0 0 .069-.209 2.07 2.07 0 0 0-.593-1.82l-1.058-1.047c.269-.834.813-1.552 1.544-2.038s1.605-.711 2.48-.638l.247 1.584a1.91 1.91 0 0 0 .345.888c.188.263.44.474.731.614.475.127.776-.337.667-1.038l-.256-1.575c2.236 1.155 4.068 2.957 5.257 5.17l-.803.537c-.13.126-.223.286-.268.461s-.041.359.012.531c.036.224.104.442.201.647.338.673.913 1.028 1.259.782l.822-.537a18.23 18.23 0 0 1 1.15 4.069c.211 1.248.239 2.521.082 3.777l-1.059-1.046c-.129-.133-.289-.233-.465-.292a.53.53 0 0 0-.221-.013.53.53 0 0 0-.205.081c-.062.042-.114.097-.152.16s-.062.135-.07.209h0zm-5.822-40.95l-1.898-11.368-19.338 21.508c-1.022 1.128-.73 2.548.912 3.495 1.142.577 2.403.877 3.683.877a8.16 8.16 0 0 0 3.682-.877c.339-.192.647-.435.913-.719h0l12.046-12.916z"/></g><path d="M323.572 472.236l-5.22-30.574-6.543.364 2.646 15.528 1.898 11.369.685 3.75c.069.237.185.458.342.649s.351.348.571.462c.719.363 1.515.553 2.322.553a5.16 5.16 0 0 0 2.323-.553 1.5 1.5 0 0 0 .751-.609c.177-.28.256-.61.225-.939z" class="C"/><use xlink:href="#Q" class="D"/><use xlink:href="#Q" class="B E"/><g class="C"><use xlink:href="#M" x="-92.476" y="19.984"/><path d="M322.131 504.485l-1.543-9.284c-.167-.624-.479-1.2-.91-1.683a4.14 4.14 0 0 0-1.572-1.093h0c-1.186-.446-2.008.072-1.825 1.156l1.542 9.284c.167.623.477 1.198.906 1.68s.966.858 1.567 1.096c1.196.446 2.035-.073 1.835-1.156z"/></g><path d="M320.678 503.857l-1.506-9.102a1.39 1.39 0 0 0-.83-.91c-.402-.155-.675 0-.621.382l1.515 9.102a1.36 1.36 0 0 0 .306.554 1.34 1.34 0 0 0 .525.356h0c.438.155.675-.018.611-.382z" class="D"/><path d="M316.336 332.1l-3.185-5.461 13.461-7.746c.255-.125.539-.179.822-.154s.554.124.784.291a4.97 4.97 0 0 1 1.587 1.676 4.95 4.95 0 0 1 .658 2.21 1.59 1.59 0 0 1-.629 1.429h0l-13.498 7.755z" class="C"/><path d="M316.992 330.653c0 1.429-1.013 2.012-2.254 1.293-.655-.424-1.199-.997-1.589-1.671a4.92 4.92 0 0 1-.656-2.207c0-1.429 1.004-2.012 2.245-1.302a5 5 0 0 1 1.591 1.676 4.96 4.96 0 0 1 .663 2.211z" class="B"/><path d="M314.382 328.232c-.184-.118-.404-.167-.621-.137l-13.178 7.564-.31.182 1.542 2.676 13.169-7.554.365-.228a.83.83 0 0 0 .156-.555c-.024-.389-.137-.768-.332-1.106a2.53 2.53 0 0 0-.791-.842h0z" class="C"/><path d="M317.694 441.617l-18.006-105.366-5.138.291 15.998 93.542 1.497 8.93.529 2.949a1.43 1.43 0 0 0 .269.532 1.44 1.44 0 0 0 .461.378c.566.287 1.191.436 1.825.436s1.26-.149 1.826-.436c.246-.097.452-.274.586-.501a1.18 1.18 0 0 0 .153-.755h0z" class="B"/><path d="M299.898 337.489h-5.192l1.633 9.53 4.125.974c.402.091.831.163 1.269.218l-1.835-10.722z" fill="#000" class="E"/><path d="M295.309 337.507a4.03 4.03 0 0 0 3.65 0 1.11 1.11 0 0 0 .547-.405 1.1 1.1 0 0 0 .208-.646c0-.232-.072-.458-.208-.647s-.326-.33-.547-.405c-.566-.282-1.191-.43-1.825-.43a4.1 4.1 0 0 0-1.825.43c-.22.075-.411.217-.547.405s-.208.415-.208.647a1.11 1.11 0 0 0 .208.646c.136.189.327.33.547.405z" class="H"/><path d="M300.427 345.708c2.957.692 6.973.328 8.962-.819.84-.483 1.178-1.029 1.077-1.548l-1.369-8.1-20.242-.055 1.369 8.128 10.203 2.394z" class="B"/><g class="C"><path d="M299.096 337.58c2.957.691 6.963.327 8.953-.819.83-.474 1.177-1.011 1.086-1.521-.128-.728-1.113-1.401-2.847-1.82l-10.194-2.357-7.201 4.15 10.203 2.367zm-5.138 1.847l-15.049 8.684 1.533 2.658 15.04-8.62c.885-.501-.31-3.24-1.524-2.722z"/><path d="M271.863 357.186l-3.185-5.462 13.497-7.782a1.59 1.59 0 0 1 .828-.15c.285.026.557.128.788.296a4.94 4.94 0 0 1 1.589 1.67c.39.674.615 1.43.656 2.207a1.58 1.58 0 0 1-.128.797 1.59 1.59 0 0 1-.502.632h0l-13.543 7.792z"/></g><path d="M272.521 355.738c0 1.429-1.004 2.003-2.245 1.293a4.98 4.98 0 0 1-1.587-1.676 4.97 4.97 0 0 1-.658-2.211c0-1.429 1.004-2.011 2.245-1.292a4.94 4.94 0 0 1 1.59 1.675c.391.675.615 1.433.655 2.211z" class="B"/><path d="M312.574 338.599l-2.217-1.301a2.41 2.41 0 0 0-1.248-.146 2.4 2.4 0 0 0-1.152.501c-.964.697-1.75 1.611-2.295 2.667a7.57 7.57 0 0 0-.845 3.413c-.022.424.069.847.262 1.226s.485.7.842.931h0l2.218 1.302c.397.156.828.205 1.25.141s.818-.238 1.15-.506a7.53 7.53 0 0 0 3.131-6.08 2.37 2.37 0 0 0-.255-1.223c-.192-.377-.483-.697-.841-.925h0z" class="C"/><path d="M308.094 347.173l-2.191-1.283c-.357-.231-.648-.552-.842-.931s-.284-.802-.262-1.226c-.018-1.054.21-2.098.666-3.049l2.264 1.301c-.456.951-.685 1.995-.667 3.049a2.44 2.44 0 0 0 .239 1.203c.18.374.453.696.793.936h0z" class="B"/><path d="M310.549 346.837c.965-.696 1.752-1.61 2.296-2.666a7.53 7.53 0 0 0 .834-3.415c-.1-2.175-1.679-2.985-3.514-1.82a7.6 7.6 0 0 0-2.295 2.667 7.58 7.58 0 0 0-.844 3.413c.109 2.194 1.688 3.004 3.523 1.821z" class="C"/><use xlink:href="#G" x="-184.953" y="39.968" class="B"/><path d="M310.539 339.537c.311-.214.667-.354 1.041-.41.186.354.29.747.301 1.147-.015 1.066-.277 2.114-.766 3.061a6.91 6.91 0 0 1-2.054 2.4 2.63 2.63 0 0 1-1.041.419 2.65 2.65 0 0 1-.301-1.156 6.91 6.91 0 0 1 .769-3.06 6.92 6.92 0 0 1 2.051-2.401h0z" class="D"/><path d="M189.144 535.383c8.786 5.301 17.501 10.735 26.887 14.892 6.055 2.678 12.604 4.653 19.254 4.875 5.401.174 13.056-1.138 15.829-6.753 1.698-3.447.582-7.753-1.761-10.802s-5.716-5.122-9.001-7.126l-47.541-28.928c-15.62-9.497-31.338-19.035-48.288-26.014-6.628-2.726-15.163-7.075-22.514-6.322-4.447.45-9.546 1.832-12.632 5.243-3.814 4.212-3.722 8.008.305 11.537 5.367 4.648 10.093 7.384 14.911 10.299l64.551 39.099z" class="B E"/><use xlink:href="#R" class="D"/><g class="B"><use xlink:href="#R" opacity=".6"/><path d="M150.894 470.148c0-10.095-6.151-21.846-13.744-26.196-.382-.217-.775-.415-1.177-.592l-.11-.055c-.255-.118-.517-.222-.785-.309-.2-.073-.392-.155-.593-.219l-.575-.154c-.265-.064-.52-.128-.776-.164l-.419-.064c-.303-.037-.608-.055-.913-.054h-.173-.548a16.12 16.12 0 0 0-7.431 2.104 16.08 16.08 0 0 0-5.592 5.314 13.06 13.06 0 0 0-2.409 6.608 16.15 16.15 0 0 0-.156 2.13 1.38 1.38 0 0 0 0 .182v.2c0 10.094 6.152 21.845 13.745 26.196.401.228.794.419 1.177.601l.109.054c.265.119.53.21.785.301l.593.218c.192.064.384.109.575.155s.521.127.785.173l.411.054c.301 0 1.323.073 1.433.073h.182a16.11 16.11 0 0 0 7.436-2.101c2.271-1.292 4.192-3.117 5.596-5.317a13.06 13.06 0 0 0 2.401-6.608c.098-.703.149-1.411.155-2.121.005-.06.005-.121 0-.182v-.2l.018-.027z"/></g><path d="M137.518 486.154c6.066-2.574 7.284-13.334 2.719-24.033s-13.182-17.286-19.249-14.711-7.283 13.334-2.719 24.033 13.183 17.286 19.249 14.711z" class="G"/><g class="B"><path d="M133.263 481.78a8.51 8.51 0 0 1-4.208-1.256c-5.667-3.259-10.276-12.033-10.276-19.542 0-4.042 1.342-7.136 3.651-8.484 1.962-1.128 4.444-.91 7 .537 5.667 3.259 10.276 12.024 10.276 19.543 0 4.032-1.342 7.127-3.651 8.474a5.49 5.49 0 0 1-2.792.728h0zm-8.004-29.181c-.834-.012-1.656.199-2.382.609-2.081 1.202-3.276 4.033-3.276 7.774 0 7.281 4.426 15.701 9.865 18.832 2.291 1.32 4.481 1.502 6.179.528 2.08-1.202 3.276-4.032 3.276-7.764 0-7.282-4.426-15.701-9.866-18.833-1.143-.707-2.452-1.102-3.796-1.146h0z" class="F"/><path d="M134.074 471.513a2.13 2.13 0 0 0 .08.98c.103.316.279.604.514.84l1.058 1.047c-.266.834-.808 1.553-1.538 2.04s-1.603.71-2.477.636l-.247-1.584a1.93 1.93 0 0 0-.34-.915c-.19-.271-.447-.489-.746-.632-.483-.128-.785.337-.675 1.038l.255 1.574c-2.235-1.154-4.068-2.957-5.256-5.17l.803-.537a.99.99 0 0 0 .264-.461c.045-.174.042-.358-.009-.531-.033-.225-.104-.444-.209-.646-.329-.674-.913-1.029-1.26-.783l-.812.537c-.538-1.305-.924-2.667-1.15-4.059a13.03 13.03 0 0 1-.082-3.787l1.058 1.047c.128.135.288.235.466.291a.51.51 0 0 0 .426-.068c.062-.042.113-.096.152-.16a.52.52 0 0 0 .07-.209c.054-.328.028-.665-.075-.982a2.08 2.08 0 0 0-.518-.838l-1.059-1.047c.269-.833.814-1.551 1.545-2.035a3.89 3.89 0 0 1 2.48-.632l.246 1.575c.035.321.153.628.341.891a1.9 1.9 0 0 0 .736.611c.475.127.776-.337.666-1.029l-.255-1.584a12.51 12.51 0 0 1 5.256 5.17l-.803.546a.99.99 0 0 0-.27.455c-.046.173-.044.356.006.528a2.74 2.74 0 0 0 .209.656c.338.673.913 1.019 1.26.783l.812-.547c.547 1.309.936 2.678 1.159 4.078a12.93 12.93 0 0 1 .082 3.778l-1.067-1.047c-.123-.138-.281-.238-.457-.291-.074-.02-.151-.022-.226-.007a.5.5 0 0 0-.207.091c-.061.045-.111.104-.147.171s-.056.142-.059.218h0z"/><path d="M203.325 514.575l-75.911-43.69c-.833-.598-1.514-1.382-1.99-2.289s-.731-1.913-.748-2.936c0-2.011 1.232-2.94 2.738-2.066l11.581 6.69 2.126.191 67.689 38.011-5.485 6.089z"/></g><path d="M135.545 474.198l-8.214-4.706c-.528-.375-.96-.868-1.262-1.441s-.463-1.207-.472-1.854h0c0-1.265.776-1.82 1.734-1.301l8.214 4.705c.526.377.956.871 1.256 1.443s.46 1.207.469 1.852h0c0 1.265-.767 1.848-1.725 1.302z" class="C"/><path d="M135.462 472.623l-8.003-4.615a1.37 1.37 0 0 1-.425-.48c-.101-.192-.156-.404-.159-.621 0-.428.264-.619.584-.437l8.003 4.615c.178.125.323.289.425.481a1.37 1.37 0 0 1 .159.62c0 .428-.264.619-.584.437z" class="D"/><path d="M203.334 514.575l11.472-6.608 5.475-6.135-11.471 6.608-5.476 6.135z" class="B"/><path d="M216.164 494.86l-58.535-33.678-15.113 8.711v2.348l58.526 33.678c5.266 3.031 12.923 3.54 17.094 1.138 1.779-1.029 2.628-2.422 2.619-3.914v-2.331c-.027-1.984-1.579-4.132-4.591-5.952z" class="C"/><use xlink:href="#S" class="D"/><use xlink:href="#S" class="B E"/><path d="M218.127 503.716c-4.171 2.403-11.864 1.902-17.094-1.129l-58.517-33.677 2.628-1.53 1.506-.864 6.918-3.987 4.043-2.339 58.526 33.678c5.284 3.031 6.16 7.445 1.99 9.848z" class="C"/><use xlink:href="#T" class="D"/><use xlink:href="#T" class="B F"/><use xlink:href="#U" class="C"/><g class="B"><use xlink:href="#U" opacity=".2"/><path d="M234.089 496.38c-.076-.001-.151-.02-.219-.055-.066-.028-.127-.068-.177-.12a.52.52 0 0 1-.117-.179.53.53 0 0 1-.037-.211.54.54 0 0 1 .048-.209c3.368-7.582 2.163-12.597-.091-14.754-.739-.725-1.691-1.196-2.717-1.343a4.88 4.88 0 0 0-2.987.523.55.55 0 0 1-.734-.25.54.54 0 0 1-.027-.418c.047-.138.147-.251.278-.315 1.118-.584 2.392-.801 3.641-.619a5.99 5.99 0 0 1 3.313 1.63c2.519 2.421 3.924 7.891.328 15.992a.55.55 0 0 1-.203.237c-.089.058-.192.09-.299.091z"/><path d="M237.156 499.12a.49.49 0 0 1-.219-.046c-.066-.029-.125-.07-.175-.122s-.089-.112-.116-.179a.54.54 0 0 1-.037-.21c.001-.072.016-.142.045-.208 3.204-7.446 2.026-13.79.046-16.957a7.49 7.49 0 0 0-4.563-3.304c-.826-.184-1.681-.198-2.513-.042s-1.622.481-2.324.952a.55.55 0 0 1-.705-.19.54.54 0 0 1 .112-.72 7.31 7.31 0 0 1 2.729-1.112 7.33 7.33 0 0 1 2.947.056c2.192.525 4.09 1.888 5.284 3.795 2.127 3.396 3.404 10.131 0 17.977a.57.57 0 0 1-.511.31h0zm12.431 27.852c0-10.103-6.152-21.845-13.745-26.205-.401-.228-.784-.41-1.177-.592l-.109-.054c-.265-.119-.52-.21-.785-.31l-.593-.209c-.192-.064-.384-.109-.575-.155s-.52-.127-.776-.173l-.42-.054c-.301 0-.602-.055-.912-.064h-.721c-2.613.086-5.164.806-7.434 2.099s-4.188 3.119-5.59 5.319c-1.39 1.94-2.223 4.222-2.409 6.599-.098.706-.149 1.417-.155 2.13-.005.061-.005.121 0 .182v.2c0 10.104 6.151 21.845 13.744 26.205.402.228.794.41 1.177.592l.11.055c.265.118.529.209.785.309a5.83 5.83 0 0 0 .593.209c.192.055.383.11.575.155s.529.127.785.173l.41.055c.302 0 1.324.082 1.433.082h.183a16.13 16.13 0 0 0 7.437-2.107c2.271-1.294 4.191-3.12 5.595-5.321 1.389-1.94 2.219-4.222 2.4-6.599a16.32 16.32 0 0 0 .155-2.13c.005-.06.005-.121 0-.182v-.2l.019-.009z"/></g><path d="M236.209 542.983c6.066-2.574 7.283-13.334 2.719-24.033s-13.183-17.286-19.249-14.711-7.284 13.335-2.719 24.034 13.182 17.285 19.249 14.71z" class="G"/><g class="B"><path d="M231.953 538.613c-1.488-.047-2.938-.48-4.207-1.256-5.668-3.267-10.276-12.033-10.276-19.551 0-4.041 1.341-7.127 3.65-8.474 1.962-1.129 4.445-.91 7 .528 5.667 3.259 10.276 12.033 10.276 19.542 0 4.041-1.341 7.127-3.65 8.483a5.57 5.57 0 0 1-2.793.728h0zm-8.004-29.19a4.72 4.72 0 0 0-2.382.619c-2.08 1.201-3.276 4.032-3.276 7.764 0 7.282 4.426 15.701 9.865 18.832 2.291 1.32 4.481 1.511 6.179.537 2.081-1.201 3.276-4.032 3.276-7.773 0-7.282-4.426-15.701-9.865-18.832-1.143-.707-2.452-1.103-3.797-1.147h0z" class="F"/><path d="M232.774 528.346a2.08 2.08 0 0 0 .075.982c.103.317.281.605.518.839l1.05 1.047a3.85 3.85 0 0 1-1.539 2.036 3.87 3.87 0 0 1-2.477.63l-.246-1.574a1.9 1.9 0 0 0-.34-.889c-.186-.262-.437-.473-.728-.613-.483-.128-.785.337-.675 1.028l.255 1.584a12.56 12.56 0 0 1-5.256-5.17l.803-.546c.128-.125.22-.283.265-.456s.042-.355-.01-.527c-.033-.228-.104-.45-.21-.655-.328-.674-.912-1.02-1.25-.783l-.821.546c-.538-1.308-.924-2.673-1.15-4.069a13.02 13.02 0 0 1-.082-3.786l1.058 1.047c.126.138.287.238.466.291.071.022.146.028.22.017a.51.51 0 0 0 .206-.078.5.5 0 0 0 .152-.158c.039-.064.062-.135.07-.209a2.07 2.07 0 0 0-.074-.982c-.103-.317-.281-.605-.519-.838l-1.059-1.047c.269-.834.813-1.552 1.544-2.038s1.605-.711 2.481-.638l.246 1.584c.039.32.157.626.346.888s.439.474.731.614c.474.127.776-.337.666-1.038l-.255-1.575a12.45 12.45 0 0 1 5.256 5.17l-.803.537c-.13.126-.222.286-.267.461s-.041.359.012.531a2.37 2.37 0 0 0 .2.647c.338.673.913 1.028 1.26.782l.821-.537c.541 1.308.927 2.673 1.15 4.069.212 1.248.24 2.521.082 3.777l-1.058-1.046c-.13-.133-.289-.233-.466-.292a.53.53 0 0 0-.22-.013c-.074.012-.144.04-.206.081s-.113.097-.152.16a.52.52 0 0 0-.07.209h0zm-5.821-40.95l-1.898-11.369-19.339 21.509c-1.022 1.128-.73 2.548.913 3.495a8.16 8.16 0 0 0 3.682.877c1.28 0 2.541-.3 3.683-.877a3.87 3.87 0 0 0 .912-.719h0l12.047-12.916z"/></g><path d="M231.096 492.22l-5.22-30.574-6.544.364 2.647 15.528 1.898 11.369.684 3.75c.069.237.185.458.342.649a1.81 1.81 0 0 0 .571.461 5.15 5.15 0 0 0 2.323.554c.807 0 1.602-.19 2.322-.554a1.5 1.5 0 0 0 .752-.608c.176-.28.255-.61.225-.939z" class="C"/><use xlink:href="#V" class="D"/><use xlink:href="#V" class="B E"/><g class="C"><path d="M224.305 491.219c.484 2.913-4.38 6.371-3.458 11.651l3.331 19.533c.593 2.912 2.199 5.17 4.179 5.661 1.534.319 2.793-.91 2.401-4.068l-3.395-19.907c-.457-2.685 4.782-4.551 6.388-4.241 2.137.819 4.078 2.078 5.695 3.695l-1.232-5.033c-1.333-5.462-7.11-6.199-7.84-10.45l-6.069 3.159z"/><path d="M229.654 524.469l-1.542-9.284a4.14 4.14 0 0 0-.91-1.683 4.15 4.15 0 0 0-1.573-1.093h0c-1.186-.446-2.007.072-1.825 1.155l1.543 9.285c.166.623.476 1.198.906 1.68a4.14 4.14 0 0 0 1.567 1.096c1.195.446 2.035-.073 1.834-1.156z"/></g><path d="M228.202 523.841l-1.506-9.102a1.39 1.39 0 0 0-.309-.552 1.41 1.41 0 0 0-.522-.359c-.401-.154-.675 0-.62.383l1.515 9.102a1.35 1.35 0 0 0 .305.554c.145.158.325.28.525.356h0c.438.155.676-.018.612-.382z" class="D"/><path d="M223.859 352.084l-3.185-5.461 13.461-7.746a1.57 1.57 0 0 1 .823-.155 1.56 1.56 0 0 1 .784.292 4.97 4.97 0 0 1 1.587 1.676c.39.675.615 1.432.658 2.21a1.59 1.59 0 0 1-.63 1.429h0l-13.498 7.755z" class="C"/><path d="M224.515 350.637c0 1.429-1.013 2.012-2.254 1.292a4.93 4.93 0 0 1-1.589-1.67c-.39-.674-.615-1.43-.656-2.207 0-1.429 1.004-2.012 2.245-1.302a4.98 4.98 0 0 1 1.591 1.676 4.96 4.96 0 0 1 .663 2.211z" class="B"/><path d="M221.905 348.216a.91.91 0 0 0-.62-.137l-13.178 7.564-.311.182 1.543 2.676 13.169-7.555.365-.227c.117-.161.172-.358.155-.555-.023-.39-.137-.768-.332-1.106a2.51 2.51 0 0 0-.791-.842h0z" class="C"/><path d="M225.217 461.601l-18.006-105.366-5.138.291 15.998 93.542 1.497 8.929.529 2.95c.052.194.143.375.269.532a1.46 1.46 0 0 0 .462.378 4.03 4.03 0 0 0 3.65 0c.246-.097.452-.274.586-.501a1.18 1.18 0 0 0 .153-.755h0z" class="B"/><path d="M207.422 357.473h-5.193l1.634 9.53 4.125.973c.401.091.83.164 1.268.219l-1.834-10.722z" fill="#000" class="E"/><path d="M202.832 357.491c.566.287 1.191.436 1.826.436a4.03 4.03 0 0 0 1.825-.436c.22-.075.411-.216.547-.405a1.11 1.11 0 0 0 .208-.646c0-.232-.073-.458-.208-.647s-.327-.33-.547-.405c-.567-.283-1.192-.43-1.825-.43a4.09 4.09 0 0 0-1.826.43 1.11 1.11 0 0 0-.546.405c-.136.189-.208.415-.208.647s.072.458.208.646a1.11 1.11 0 0 0 .546.405z" class="H"/><path d="M207.951 365.692c2.957.692 6.972.328 8.962-.819.839-.483 1.177-1.029 1.077-1.548l-1.369-8.101-20.242-.054 1.369 8.128 10.203 2.394z" class="B"/><g class="C"><path d="M206.62 357.564c2.956.691 6.963.327 8.952-.82.831-.473 1.178-1.01 1.086-1.52-.127-.728-1.113-1.401-2.847-1.82l-10.194-2.357-7.2 4.15 10.203 2.367zm-5.139 1.847l-15.049 8.684 1.533 2.658 15.04-8.62c.886-.501-.31-3.24-1.524-2.722z"/><path d="M179.386 377.17l-3.185-5.462 13.498-7.782c.257-.124.543-.175.828-.15s.556.128.787.296a4.94 4.94 0 0 1 1.589 1.67c.39.674.615 1.43.656 2.207a1.59 1.59 0 0 1-.127.797c-.11.25-.283.468-.503.632h0l-13.543 7.792z"/></g><path d="M180.045 375.722c0 1.429-1.004 2.003-2.245 1.293a4.97 4.97 0 0 1-1.587-1.676 4.96 4.96 0 0 1-.658-2.211c0-1.429 1.004-2.011 2.245-1.292.655.425 1.2.999 1.59 1.674s.614 1.434.655 2.212z" class="B"/><path d="M220.098 358.583l-2.218-1.302c-.396-.157-.826-.208-1.248-.145s-.819.235-1.152.5c-.964.698-1.75 1.612-2.295 2.668a7.58 7.58 0 0 0-.844 3.413c-.022.424.068.847.262 1.226a2.42 2.42 0 0 0 .842.931h0l2.218 1.301a2.41 2.41 0 0 0 1.249.142c.422-.064.819-.239 1.151-.506a7.54 7.54 0 0 0 2.296-2.665c.544-1.057.83-2.227.834-3.415a2.38 2.38 0 0 0-.254-1.223c-.193-.377-.483-.697-.841-.925h0z" class="C"/><path d="M215.617 367.157l-2.19-1.283a2.42 2.42 0 0 1-.842-.931c-.194-.379-.284-.802-.262-1.226a6.79 6.79 0 0 1 .666-3.05l2.263 1.302c-.456.951-.684 1.995-.666 3.049a2.45 2.45 0 0 0 .238 1.203 2.46 2.46 0 0 0 .793.936h0z" class="B"/><path d="M218.072 366.82a7.54 7.54 0 0 0 2.296-2.665c.544-1.057.83-2.227.834-3.415-.1-2.175-1.679-2.985-3.513-1.82a7.59 7.59 0 0 0-2.295 2.667 7.57 7.57 0 0 0-.845 3.413c.11 2.194 1.689 3.004 3.523 1.82z" class="C"/><path d="M216.529 366.675c-1.076.045-1.259-1.165-1.286-1.693a6.88 6.88 0 0 1 .769-3.06 6.92 6.92 0 0 1 2.051-2.401 2.45 2.45 0 0 1 1.168-.428c1.077-.055 1.259 1.156 1.277 1.684a6.85 6.85 0 0 1-.761 3.06c-.487.948-1.189 1.77-2.049 2.401-.347.241-.748.392-1.169.437z" class="B"/><path d="M218.063 359.521a2.47 2.47 0 0 1 1.04-.41 2.61 2.61 0 0 1 .301 1.147c-.014 1.066-.276 2.114-.766 3.061s-1.192 1.769-2.054 2.4a2.62 2.62 0 0 1-1.04.419 2.65 2.65 0 0 1-.301-1.156 6.88 6.88 0 0 1 .769-3.06 6.92 6.92 0 0 1 2.051-2.401h0z" class="D"/><path d="M231.065 81c-4.451 0-8.06 3.6-8.06 8.041v119.277c0 4.441 3.609 8.041 8.06 8.041h68.512l16.686 21.403c1.076 1.38 3.166 1.38 4.242 0l16.686-21.403h68.512c4.451 0 8.06-3.6 8.06-8.041V89.041c0-4.441-3.609-8.041-8.06-8.041H231.065z" fill="#fff"/><path fill-rule="evenodd" d="M220 89.041c0-6.097 4.954-11.039 11.065-11.039h174.637c6.111 0 11.065 4.942 11.065 11.039v119.277c0 6.097-4.954 11.039-11.065 11.039H338.66l-15.784 20.246c-2.278 2.922-6.706 2.922-8.985 0l-15.784-20.246h-67.042c-6.111 0-11.065-4.942-11.065-11.039V89.041zm79.577 127.318h-68.512c-4.452 0-8.06-3.6-8.06-8.041V89.041c0-4.441 3.608-8.041 8.06-8.041h174.637c4.452 0 8.061 3.6 8.061 8.041v119.277c0 4.441-3.609 8.041-8.061 8.041h-68.511l-16.687 21.403a2.69 2.69 0 0 1-4.241 0l-16.686-21.403z" class="C"/><path d="M354.655 136.395c0 4.461-1.061 8.538-3.183 12.232-2.052 3.625-5.2 6.552-9.445 8.783-4.174 2.161-9.303 3.241-15.387 3.241h-10.293v24.884h-20.8v-73.711h31.093c6.014 0 11.107 1.046 15.281 3.137 4.245 2.091 7.429 4.984 9.551 8.678s3.183 7.946 3.183 12.756zm-30.031 7.946c5.872 0 8.808-2.649 8.808-7.946 0-5.368-2.936-8.051-8.808-8.051h-8.277v15.997h8.277z" class="B"/><defs ><path id="B" d="M403.319 383.672l-.748 1.502-6.918 3.996a10.45 10.45 0 0 1 .603-1.247 8.96 8.96 0 0 1 .702-1.101c.426-.574.919-1.093 1.47-1.548l.337-.255.484-.318c.295-.176.599-.334.913-.474l.502-.182.118-.045c.299-.097.604-.173.913-.228.536-.096 1.081-.13 1.624-.1h0z"/><path id="C" d="M493.594 433.916l-58.535-33.678-15.113 8.711v2.293l58.526 33.678c5.266 3.031 12.923 3.541 17.093 1.138 1.78-1.029 2.629-2.421 2.62-3.914v-2.33c-.028-1.957-1.579-4.151-4.591-5.898z"/><path id="D" d="M424.081 406.537l-1.506.864c-1.652-9.038-7.21-18.204-13.826-22.027a11.54 11.54 0 0 0-5.476-1.702 7.02 7.02 0 0 0-1.579.1c-.309.055-.614.131-.912.228l-.119.045c-.164.055-.328.11-.502.182a8.66 8.66 0 0 0-.912.474 5.38 5.38 0 0 0-.484.318l-.338.255c-.55.455-1.044.974-1.469 1.547-.261.35-.496.718-.703 1.102-.228.402-.429.818-.602 1.247a2.28 2.28 0 0 1-1.147.618c-.434.091-.886.053-1.299-.108.858-3.641 2.619-6.208 4.974-7.564 2.829-1.63 6.525-1.475 10.568.855 7.146 4.114 13.206 13.781 15.332 23.566z"/><path id="E" d="M424.089 406.537c-2.127-9.785-8.214-19.451-15.332-23.566-4.043-2.33-7.739-2.484-10.569-.855l6.936-3.996c2.829-1.629 6.516-1.475 10.559.856 7.155 4.114 13.215 13.78 15.332 23.565.931 4.269-2.5 6.544-6.926 3.996z"/><path id="F" d="M497.748 403.296c.718.368 1.515.56 2.322.56a5.1 5.1 0 0 0 2.323-.56c1.287-.737 1.287-1.929 0-2.676a5.15 5.15 0 0 0-2.323-.553c-.807 0-1.602.189-2.322.553-1.287.747-1.287 1.939 0 2.676z"/><path id="G" d="M493.959 306.723c-1.077.045-1.259-1.165-1.287-1.693a6.91 6.91 0 0 1 .769-3.06 6.92 6.92 0 0 1 2.051-2.401 2.45 2.45 0 0 1 1.168-.428c1.077-.055 1.26 1.156 1.278 1.684-.013 1.065-.273 2.113-.761 3.06a6.88 6.88 0 0 1-2.05 2.401c-.346.241-.748.392-1.168.437z"/><path id="H" d="M310.843 403.656l-.749 1.502-6.917 3.996c.173-.429.374-.845.602-1.247.207-.384.442-.752.703-1.102a8.82 8.82 0 0 1 1.469-1.547l.338-.255.483-.318c.295-.176.6-.334.913-.474.173-.073.338-.127.502-.182l.119-.045c.298-.097.603-.173.912-.228a7.02 7.02 0 0 1 1.625-.1h0z"/><path id="I" d="M401.118 453.9l-58.536-33.678-15.113 8.711v2.293l58.527 33.678c5.265 3.031 12.922 3.541 17.093 1.138 1.78-1.029 2.628-2.421 2.619-3.914v-2.33c-.027-1.957-1.579-4.151-4.59-5.898z"/><path id="J" d="M331.604 426.521l-1.505.864c-1.652-9.038-7.21-18.204-13.827-22.027-1.652-1.019-3.535-1.604-5.475-1.702a6.96 6.96 0 0 0-1.579.1c-.309.055-.614.131-.913.228l-.118.045c-.165.055-.329.109-.502.182-.314.14-.618.298-.913.474-.167.097-.328.204-.484.318l-.337.255c-.551.455-1.044.974-1.47 1.547a9.05 9.05 0 0 0-.702 1.102 10.45 10.45 0 0 0-.603 1.247 2.28 2.28 0 0 1-2.446.509c.858-3.64 2.62-6.207 4.974-7.563 2.829-1.63 6.525-1.475 10.568.855 7.146 4.114 13.206 13.781 15.332 23.566z"/><path id="K" d="M331.612 426.521c-2.126-9.785-8.214-19.452-15.332-23.566-4.043-2.33-7.739-2.485-10.568-.855l6.936-3.996c2.829-1.629 6.516-1.475 10.559.855 7.155 4.115 13.215 13.781 15.332 23.566.931 4.269-2.501 6.544-6.927 3.996z"/><path id="L" d="M405.271 423.28a5.1 5.1 0 0 0 2.323.56 5.09 5.09 0 0 0 2.322-.56c1.287-.737 1.287-1.93 0-2.676a5.14 5.14 0 0 0-2.322-.553 5.15 5.15 0 0 0-2.323.553c-1.287.746-1.287 1.939 0 2.676z"/><path id="M" d="M409.258 451.251c.484 2.913-4.38 6.371-3.458 11.651l3.331 19.533c.593 2.912 2.199 5.17 4.179 5.661 1.534.319 2.793-.91 2.401-4.068l-3.395-19.907c-.457-2.685 4.782-4.551 6.388-4.241 2.137.819 4.078 2.078 5.695 3.695l-1.232-5.033c-1.333-5.462-7.11-6.199-7.84-10.449l-6.069 3.158z"/><path id="N" d="M218.366 423.64l-.748 1.502-6.918 3.996a10.45 10.45 0 0 1 .603-1.247 9.05 9.05 0 0 1 .702-1.102c.426-.573.919-1.092 1.47-1.547l.337-.255.484-.318c.295-.176.599-.334.913-.474.173-.073.337-.127.501-.182l.119-.045c.299-.097.604-.173.913-.228.535-.096 1.081-.13 1.624-.1h0z"/><path id="O" d="M239.128 446.505l-1.506.864c-1.652-9.038-7.21-18.204-13.826-22.027a11.54 11.54 0 0 0-5.476-1.702c-.528-.027-1.058.007-1.579.1-.309.055-.614.131-.912.228l-.119.045c-.164.055-.329.109-.502.182-.313.14-.618.298-.913.474a5.51 5.51 0 0 0-.483.318l-.338.255a8.82 8.82 0 0 0-1.469 1.547c-.261.35-.496.718-.703 1.102-.228.402-.429.818-.602 1.247a2.28 2.28 0 0 1-2.446.509c.858-3.64 2.619-6.207 4.974-7.563 2.829-1.63 6.525-1.475 10.568.855 7.146 4.114 13.205 13.781 15.332 23.566z"/><path id="P" d="M239.136 446.505c-2.127-9.785-8.214-19.452-15.333-23.566-4.042-2.33-7.739-2.485-10.568-.855l6.936-3.996c2.829-1.629 6.516-1.475 10.559.855 7.155 4.115 13.215 13.781 15.332 23.566.931 4.269-2.5 6.544-6.926 3.996z"/><path id="Q" d="M312.795 443.264a5.09 5.09 0 0 0 2.322.56 5.1 5.1 0 0 0 2.323-.56c1.287-.737 1.287-1.93 0-2.676a5.15 5.15 0 0 0-2.323-.553c-.807 0-1.602.189-2.322.553-1.287.746-1.287 1.939 0 2.676z"/><path id="R" d="M125.89 443.624l-.749 1.502-6.917 3.996c.173-.429.374-.845.602-1.247.207-.384.442-.752.703-1.102a8.82 8.82 0 0 1 1.469-1.547l.338-.255.483-.319a8.96 8.96 0 0 1 .913-.473c.173-.073.338-.127.502-.182l.119-.045c.298-.097.603-.173.912-.228.536-.097 1.081-.13 1.625-.1h0z"/><path id="S" d="M216.164 493.868l-58.535-33.678-15.113 8.711v2.293l58.526 33.678c5.266 3.031 12.923 3.541 17.094 1.138 1.779-1.029 2.628-2.421 2.619-3.914v-2.33c-.027-1.957-1.579-4.151-4.591-5.898z"/><path id="T" d="M146.651 466.488l-1.506.865c-1.651-9.038-7.209-18.204-13.826-22.027a11.54 11.54 0 0 0-5.475-1.702c-.529-.027-1.059.007-1.579.1-.309.055-.614.131-.913.228l-.119.045c-.164.055-.328.109-.501.182a8.86 8.86 0 0 0-.913.473c-.167.098-.328.204-.484.319l-.337.255c-.551.455-1.045.974-1.47 1.547a9.18 9.18 0 0 0-.703 1.102c-.228.402-.429.818-.602 1.247a2.28 2.28 0 0 1-2.446.509c.858-3.641 2.62-6.207 4.974-7.564 2.829-1.629 6.525-1.474 10.568.856 7.146 4.114 13.206 13.781 15.332 23.565z"/><path id="U" d="M146.659 466.488c-2.126-9.784-8.214-19.451-15.332-23.565-4.043-2.33-7.739-2.485-10.568-.855l6.936-3.996c2.829-1.63 6.516-1.475 10.559.855 7.155 4.114 13.214 13.781 15.332 23.566.931 4.269-2.501 6.544-6.927 3.995z"/><path id="V" d="M220.318 463.248a5.1 5.1 0 0 0 2.323.56 5.09 5.09 0 0 0 2.322-.56c1.287-.737 1.287-1.93 0-2.676-.72-.364-1.515-.553-2.322-.553a5.15 5.15 0 0 0-2.323.553c-1.287.746-1.287 1.939 0 2.676z"/></defs></svg>